<?xml version="1.0" encoding="UTF-8" standalone="no"?><!-- Generator: Gravit.io --><svg xmlns="http://www.w3.org/2000/svg" xmlns:xlink="http://www.w3.org/1999/xlink" style="isolation:isolate" viewBox="0 0 1080 1080" width="1080pt" height="1080pt"><defs><clipPath id="_clipPath_67fi3qF4hN9i6MqKfIM46tNL8Gn3xbD8"><rect width="1080" height="1080"/></clipPath></defs><g clip-path="url(#_clipPath_67fi3qF4hN9i6MqKfIM46tNL8Gn3xbD8)"><rect width="1080" height="1080" style="fill:rgb(14,19,17)" fill-opacity="0"/><rect x="379.477" y="304.107" width="340.703" height="243.734" transform="matrix(1,0,0,1,0,0)" fill="rgb(184,185,162)"/><path d=" M 252.367 215 L 580.121 215 C 735.295 215 827.633 293.699 827.633 415.124 C 827.633 546.387 734.853 623.177 579.531 623.177 L 390.136 623.177 L 390.136 865 L 252.367 865 L 252.367 215 Z  M 390.136 515.26 L 566.993 515.26 C 641.335 515.26 690.307 491.18 690.307 417.327 C 690.307 357.862 652.251 322.33 566.993 322.33 L 390.136 322.33 L 390.136 515.26 L 390.136 515.26 Z " fill="rgb(184,185,162)"/><path d=" M 390.136 322.33 L 580.123 322.33 C 662.98 322.33 701.172 361.607 701.172 413.816 C 701.172 456.326 673.903 480.49 646.231 490.108 C 680.134 500.21 714.765 525.748 714.765 574.239 C 714.765 642.853 660.795 680.191 578.91 680.191 L 390.136 680.191 L 390.136 322.411 L 390.136 322.33 Z  M 563.698 464.812 C 606.663 464.812 623.17 448.486 623.17 422.625 C 623.17 391.106 598.572 379.711 564.83 379.711 L 464.254 379.711 L 464.254 464.892 L 563.698 464.892 L 563.698 464.812 Z  M 464.335 623.133 L 567.582 623.133 C 603.912 623.133 635.307 612.384 635.307 571.976 C 635.307 538.76 611.195 521.788 567.096 521.788 L 464.254 521.788 L 464.254 623.133 L 464.335 623.133 Z " fill="rgb(14,19,17)" vector-effect="non-scaling-stroke" stroke-width="2" stroke="rgb(184,185,162)" stroke-linejoin="miter" stroke-linecap="butt" stroke-miterlimit="4"/><rect x="457.877" y="370.876" width="182.133" height="104.889" transform="matrix(1,0,0,1,0,0)" fill="rgb(14,19,17)"/><path d=" M 483.367 467.635 C 481.231 467.635 479.174 467.376 477.354 466.816 C 472.764 465.48 470.074 462.594 470.074 458.975 L 470.074 374.529 C 470.074 370.867 472.685 368.023 477.354 366.688 C 481.943 365.352 487.799 365.697 493.417 367.722 L 608.707 409.04 C 614.087 410.978 617.173 413.822 617.173 416.795 C 617.173 419.811 614.087 422.611 608.707 424.55 L 493.417 465.868 C 490.093 466.988 486.612 467.635 483.367 467.635 L 483.367 467.635 Z  M 483.446 372.289 C 483.288 372.289 483.13 372.289 483.051 372.332 C 482.734 372.418 482.022 373.107 482.022 374.486 L 482.022 458.931 C 482.022 460.353 482.734 461 483.051 461.086 C 483.367 461.172 484.792 461.129 486.928 460.353 L 602.218 419.035 C 604.196 418.303 605.383 417.441 605.383 416.666 C 605.383 415.89 604.196 415.028 602.218 414.296 L 486.928 372.978 C 485.266 372.461 484.08 372.289 483.446 372.289 L 483.446 372.289 Z " fill="rgb(184,185,162)"/><polygon points="479.727,465.869,477.096,367.722,611.975,415.346" fill="rgb(184,185,162)"/></g></svg>