<?xml version="1.0" encoding="UTF-8" standalone="no"?><!-- Generator: Gravit.io --><svg xmlns="http://www.w3.org/2000/svg" xmlns:xlink="http://www.w3.org/1999/xlink" style="isolation:isolate" viewBox="0 0 1080 919" width="1080pt" height="919pt"><defs><clipPath id="_clipPath_MDgA5ZsEghZcKt40nmhMw3HODWAvMgyC"><rect width="1080" height="919"/></clipPath></defs><g clip-path="url(#_clipPath_MDgA5ZsEghZcKt40nmhMw3HODWAvMgyC)"><g><path d=" M 128.409 404.42 C 132.388 376.122 138.733 348.911 148.103 322.398 C 162.192 282.533 181.194 245.224 207.321 211.935 C 221.131 194.34 235.63 177.097 251.403 161.275 C 274.216 138.392 300.058 119.02 327.972 102.588 C 357.313 85.318 388.065 71.095 420.938 62.074 C 438.899 57.145 457.128 52.769 475.512 49.919 C 493.373 47.15 511.564 46.242 529.65 45.286 C 542.77 44.592 556.025 44.292 569.1 45.326 C 599.7 47.744 629.824 53.068 659.321 61.914 C 683.611 69.198 707.017 78.573 729.52 90.145 C 754.551 103.017 778.455 117.818 799.842 136.178 C 815.498 149.62 830.986 163.414 845.217 178.323 C 864.936 198.983 881.74 222.071 896.334 246.693 C 913.417 275.513 927.796 305.605 936.707 337.951 C 942.09 357.492 946.256 377.403 950.184 397.303 C 955.693 425.211 955.91 453.609 954.45 481.809 C 953.368 502.685 950.027 523.539 946.341 544.162 C 941.667 570.318 933.538 595.652 923.076 620.051 C 910.684 648.95 895.467 676.333 876.921 701.888 C 861.946 722.521 845.822 742.145 826.967 759.206 C 811.4 773.291 795.217 786.904 778.079 798.985 C 760.902 811.094 742.784 822.189 724.047 831.694 C 690.132 848.897 654.292 861.145 616.617 867.304 C 602.467 869.617 588.23 871.944 573.946 872.765 C 553.637 873.931 533.15 875.113 512.919 873.702 C 491.369 872.2 469.94 868.177 448.619 864.357 C 424.413 860.021 401.168 851.936 378.653 842.304 C 349.416 829.796 321.217 815.005 296.208 795.116 C 277.988 780.627 259.63 766.052 243.168 749.672 C 217.768 724.399 196.312 695.767 178.871 664.31 C 165.155 639.57 153.337 614.011 144.818 586.957 C 137.65 564.196 131.833 541.157 129.251 517.404 C 127.873 504.73 126.697 492.023 125.91 479.301 C 125.185 467.59 124.5 455.819 124.9 444.112 C 125.347 431.012 127.034 417.953 128.409 404.42 Z  M 904.165 302.163 C 897.204 288.44 890.681 274.472 883.19 261.045 C 867.499 232.916 847.95 207.519 825.571 184.452 C 814.347 172.882 802.02 162.329 789.734 151.853 C 769.547 134.64 747.227 120.516 723.834 108.072 C 696.386 93.47 667.494 82.653 637.424 74.81 C 613.508 68.573 589.177 64.262 564.588 63.467 C 541.55 62.722 518.377 63.971 495.357 65.635 C 480.589 66.703 465.789 69.258 451.355 72.647 C 417.766 80.534 385.655 92.489 355.038 108.689 C 326.258 123.918 299.71 142.276 275.615 163.938 C 256.388 181.224 238.433 199.984 223.048 220.888 C 203.758 247.095 187.362 274.974 174.584 305.04 C 157.497 345.246 147.485 387.112 144.032 430.505 C 142.843 445.441 143.403 460.566 143.968 475.575 C 144.467 488.859 145.12 502.272 147.427 515.324 C 150.989 535.47 155.18 555.589 160.62 575.301 C 169.536 607.613 183.891 637.737 201.35 666.28 C 215.015 688.62 230.454 709.819 248.813 728.525 C 262.996 742.976 277.616 757.25 293.553 769.664 C 311.294 783.483 330.078 796.279 349.606 807.42 C 381.556 825.646 415.725 839.079 451.926 846.281 C 472.791 850.431 493.905 854.493 515.069 855.674 C 540.827 857.112 566.741 856.832 592.535 852.932 C 614.879 849.554 636.837 844.958 658.396 838.306 C 686.343 829.684 712.829 817.801 738.168 803.193 C 765.753 787.29 790.971 768.195 813.979 746.342 C 825.658 735.248 836.013 722.725 846.624 710.55 C 865.918 688.415 881.364 663.626 894.649 637.576 C 905.966 615.385 914.743 592.102 921.69 568.117 C 930.168 538.847 935.249 508.955 936.49 478.634 C 937.294 458.984 936.188 439.131 934.278 419.53 C 932.504 401.321 929.871 382.968 925.176 365.329 C 919.553 344.204 911.34 323.768 904.165 302.163 Z " fill="rgb(214,213,201)"/><path d=" M 820.092 188.839 C 842.725 212.549 862.259 238.116 878.172 266.332 C 892.249 291.295 904.065 317.268 912.256 344.832 C 918.266 365.059 922.509 385.582 925.771 406.451 C 929.92 432.999 929.682 459.651 928.572 486.185 C 927.399 514.251 921.733 541.855 913.968 568.958 C 906.104 596.407 895.371 622.776 881.137 647.363 C 869.686 667.142 856.327 685.938 842.52 704.191 C 832.589 717.321 821.141 729.475 809.282 740.939 C 786.573 762.892 761.237 781.506 733.896 797.447 C 711 810.797 686.902 821.489 661.84 829.716 C 640.292 836.788 618.287 842.633 595.554 844.845 C 583.051 846.062 570.54 847.241 558.013 848.168 C 549.486 848.8 540.851 849.858 532.392 849.164 C 512.01 847.492 491.665 845.209 471.377 842.612 C 442.667 838.937 415.242 830.122 388.892 818.632 C 369.942 810.37 351.667 800.336 333.782 789.908 C 301.817 771.27 274.285 746.832 249.952 719.277 C 234.202 701.441 220.151 681.855 207.233 661.831 C 190.215 635.452 177.145 606.835 168.591 576.555 C 163.085 557.061 159.196 537.085 155.153 517.209 C 150.085 492.288 149.687 466.931 150.807 441.691 C 151.767 420.031 154.75 398.534 159.301 377.195 C 166.262 344.554 177.323 313.461 192.288 283.79 C 205.214 258.164 220.61 234.014 239.425 212.199 C 247.164 203.225 254.268 193.524 262.979 185.604 C 279.511 170.574 296.547 156.012 314.2 142.323 C 334.283 126.749 356.808 114.953 379.875 104.412 C 404.893 92.979 430.934 84.483 457.905 78.841 C 478.887 74.451 499.965 71.058 521.465 71.02 C 538.37 70.99 555.368 69.891 572.161 71.271 C 604.571 73.933 636.353 80.465 667.127 91.258 C 705.806 104.824 742.022 123.183 774.166 148.761 C 789.946 161.317 804.63 175.249 820.092 188.839 Z  M 621.333 98 C 618.841 97.419 616.377 96.629 613.853 96.29 C 595.439 93.815 577.073 90.294 558.575 89.306 C 535.761 88.087 512.873 88.794 490.1 92.234 C 470.854 95.14 451.913 98.998 433.285 104.623 C 405.095 113.135 378.291 124.692 352.875 139.607 C 326.669 154.985 302.724 173.336 281.011 194.467 C 270.532 204.666 261.027 215.921 251.597 227.132 C 236.312 245.305 223.564 265.237 212.392 286.176 C 200.802 307.896 191.513 330.573 184.433 354.146 C 176.48 380.626 171.28 407.76 170.022 435.274 C 168.877 460.313 168.946 485.458 172.847 510.507 C 176.042 531.023 180.233 551.197 186.394 570.987 C 194.708 597.692 206.16 622.979 220.31 647.112 C 235.585 673.162 253.867 696.929 274.806 718.56 C 284.584 728.661 295.583 737.603 306.241 746.825 C 326.063 763.979 348.222 777.694 371.396 789.736 C 399.96 804.577 430.065 815.574 461.6 821.857 C 481.22 825.766 501.2 828.682 521.149 829.909 C 543.76 831.299 566.468 830.279 589.059 827.01 C 608.515 824.196 627.622 820.223 646.431 814.576 C 676.069 805.677 704.191 793.399 730.696 777.412 C 753.643 763.571 775.175 747.773 794.262 728.987 C 806.425 717.017 817.649 704.056 828.861 691.163 C 844.964 672.645 857.811 651.828 869.135 630.179 C 881.545 606.454 891.164 581.541 898.123 555.616 C 905.894 526.663 910.551 497.172 910.617 467.287 C 910.662 446.608 908.967 425.777 906.115 405.282 C 903.554 386.872 899.172 368.599 894.128 350.678 C 886.409 323.251 874.573 297.463 860.156 272.833 C 845.946 248.559 829.207 226.223 809.966 205.771 C 794.803 189.653 778.31 175.006 760.508 161.8 C 732.777 141.228 702.915 124.525 670.483 112.761 C 654.713 107.041 638.374 102.888 621.333 98 Z " fill="rgb(214,213,201)"/><path d=" M 492.058 710.187 C 478.089 706.191 464.254 703.229 451.065 698.475 C 425.686 689.327 402.219 676.105 381.718 658.677 C 367.63 646.699 354.444 633.248 342.877 618.832 C 331.465 604.611 321.441 588.961 312.893 572.833 C 301.114 550.608 294.242 526.472 289.909 501.577 C 286.535 482.185 285.459 462.632 287.038 443.251 C 288.505 425.245 291.971 407.242 296.3 389.668 C 302.7 363.686 314.506 339.858 329.411 317.639 C 333.19 312.005 337.201 306.472 341.626 301.342 C 346.063 296.199 345.599 289.732 347.314 283.879 C 348.543 279.684 348.688 275.178 349.822 270.946 C 350.161 269.68 352.077 268.26 353.492 267.961 C 358.694 266.863 363.966 265.738 369.253 265.487 C 377.767 265.084 383.085 259.229 389.158 254.708 C 414.403 235.913 442.008 222.107 472.411 213.674 C 489.499 208.935 506.685 205.46 524.425 204.848 C 532.974 204.554 541.537 203.551 550.058 203.851 C 571.067 204.593 591.764 207.655 612.04 213.449 C 640.143 221.478 666.179 233.748 689.908 250.835 C 694.527 254.16 698.648 258.329 703.599 260.996 C 707.931 263.33 713.045 264.367 717.927 265.488 C 722.744 266.594 727.767 266.826 732.563 268 C 734.123 268.381 736.083 270.331 736.439 271.888 C 738.274 279.917 738.898 288.297 741.434 296.068 C 743.247 301.621 747.044 306.677 750.587 311.49 C 766.387 332.956 777.925 356.557 785.987 381.856 C 791.17 398.122 795.08 414.709 796.219 431.844 C 796.845 441.258 798.559 450.682 798.286 460.058 C 797.197 497.494 790.372 533.641 773.951 567.771 C 762.945 590.648 749.244 611.439 732.407 630.42 C 713.202 652.07 690.813 669.417 665.673 683.567 C 645.887 694.703 625.062 703.323 602.931 707.795 C 583.72 711.678 566.46 720.699 547.902 726.143 C 544.392 727.172 541.542 727.31 538.084 725.976 C 525.809 721.243 513.405 716.841 501.002 712.45 C 498.265 711.481 495.329 711.077 492.058 710.187 Z  M 660.983 668.255 C 661.743 667.77 662.491 667.264 663.266 666.802 C 688.559 651.712 710.723 633.087 729.187 609.979 C 746.667 588.1 760.061 564.091 769.263 537.691 C 776.188 517.827 779.852 497.404 781.862 476.426 C 783.494 459.385 782.32 442.628 780.199 425.949 C 777.82 407.25 773.04 388.913 765.67 371.486 C 760.687 359.705 754.675 348.359 749.124 336.819 C 748.588 348.882 749.38 360.341 750.093 371.805 C 750.53 378.848 751.008 385.893 751.182 392.945 C 751.642 411.609 752.662 430.298 752.105 448.937 C 751.586 466.279 749.592 483.597 747.73 500.87 C 746.512 512.174 744.984 523.513 742.518 534.597 C 737.89 555.397 730.268 575.116 719.84 593.809 C 709.469 612.399 697.539 629.78 682.676 645.026 C 675.134 652.762 667.121 660.039 658.755 667.955 C 657.776 668.538 656.796 669.12 655.817 669.703 C 655.995 670.016 656.173 670.329 656.351 670.642 C 657.626 669.878 658.901 669.115 660.983 668.255 Z  M 430.836 672.332 C 431.34 672.391 431.845 672.449 432.349 672.508 C 432.046 671.978 431.744 671.448 430.95 670.338 C 429.363 669.098 427.59 668.034 426.219 666.589 C 414.251 653.973 401.848 641.723 390.552 628.527 C 372.22 607.112 359.835 582.182 350.253 555.814 C 342.807 535.323 339.644 513.907 337.414 492.389 C 335.716 476.002 334.343 459.52 334.095 443.061 C 333.767 421.228 334.589 399.375 335.105 377.535 C 335.249 371.444 335.976 365.36 336.584 359.288 C 337.474 350.413 338.499 341.552 339.466 332.684 C 335.713 337.561 332.707 342.741 329.809 347.98 C 317.183 370.806 308.922 395.325 305.081 420.925 C 302.53 437.924 302.534 455.413 302.669 472.672 C 302.755 483.63 304.77 494.641 306.65 505.501 C 309.527 522.12 314.738 538.055 321.41 553.598 C 331.726 577.628 345.061 599.791 362.944 618.77 C 374.497 631.031 387.253 642.315 400.429 652.835 C 409.635 660.185 420.465 665.502 430.836 672.332 Z  M 633.839 660.463 C 645.019 651.447 656.7 642.973 667.216 633.24 C 675.176 625.872 681.814 617.034 688.747 608.609 C 700.263 594.615 709.196 578.944 716.159 562.323 C 723.54 544.706 728.673 526.4 729.932 507.11 C 731.014 490.523 733.974 473.992 734.076 457.424 C 734.249 429.285 732.864 401.135 732.04 372.993 C 731.905 368.377 731.468 363.752 730.862 359.172 C 729.103 345.871 727.371 332.562 725.272 319.313 C 723.697 309.373 721.721 299.487 719.535 289.664 C 719.194 288.133 716.925 286.2 715.294 285.917 C 699.028 283.094 682.759 280.198 666.391 278.086 C 650.835 276.078 635.183 274.664 619.533 273.568 C 603.221 272.426 586.856 271.261 570.522 271.376 C 539.563 271.595 508.601 272.484 477.658 273.575 C 463.061 274.089 448.458 275.303 433.94 276.936 C 414.21 279.156 394.605 282.562 374.85 284.441 C 367.924 285.1 366.196 288.29 365.396 293.894 C 362.437 314.623 359.02 335.294 356.503 356.075 C 354.437 373.129 352.314 390.298 352.169 407.432 C 351.947 433.507 353.06 459.613 354.313 485.672 C 354.922 498.33 357.025 510.925 358.641 523.524 C 361.542 546.131 370.674 566.626 381.892 585.993 C 393.956 606.819 409.263 625.207 427.54 641.217 C 444.95 656.467 463.657 669.773 484.148 680.204 C 501.078 688.823 518.954 695.596 536.483 703.017 C 539.7 704.379 542.885 705.006 546.821 703.681 C 569.116 696.173 590.684 687.094 610.997 675.212 C 618.576 670.78 625.778 665.704 633.839 660.463 Z  M 637.568 239.137 C 557.604 203.959 467.528 218.779 410.381 259.73 C 419.892 258.701 429.554 257.411 439.258 256.659 C 456.248 255.342 473.252 254.124 490.272 253.3 C 504.977 252.588 519.71 252.287 534.434 252.181 C 542.409 252.123 550.387 252.957 558.37 253.202 C 573.276 253.658 588.188 253.931 603.095 254.37 C 612.949 254.66 622.81 254.932 632.646 255.55 C 638.511 255.918 644.319 257.122 650.181 257.618 C 657.374 258.227 664.596 258.489 671.806 258.9 C 671.985 258.278 672.163 257.656 672.342 257.035 C 660.986 251.238 649.631 245.441 637.568 239.137 Z " fill="rgb(214,213,201)"/><path d=" M 279.557 299.651 C 276.257 298.021 273.31 296.622 269.541 294.832 C 274.433 303.919 278.962 312.332 284.186 322.035 C 273.842 323.188 264.355 324.245 253.439 325.461 C 265.517 331.905 276.537 337.784 288.32 344.071 C 286.5 347.85 285.016 351.781 282.714 355.154 C 282.085 356.076 278.639 356.018 277.094 355.224 C 261.575 347.256 246.185 339.039 230.756 330.898 C 228.358 329.633 225.945 328.399 223.359 327.056 C 224.754 324.279 226.329 322.107 226.966 319.688 C 228.659 313.266 233.62 312.137 239.041 311.748 C 246.433 311.218 253.84 310.903 261.847 310.462 C 257.177 302.21 252.973 294.092 248.038 286.445 C 246.372 283.862 246.654 282.389 247.878 280.161 C 249.891 276.495 251.681 272.706 253.703 268.696 C 273.251 279.006 292.507 289.162 311.958 299.421 C 309.41 304.459 307.286 308.66 304.966 313.246 C 296.404 308.679 288.158 304.281 279.557 299.651 Z " fill="rgb(214,213,201)"/><path d=" M 359.468 211.957 C 352.603 200.676 345.979 189.738 339.165 178.487 C 342.571 176.417 345.549 174.234 348.845 172.761 C 350.543 172.002 353.045 171.882 354.775 172.543 C 367.871 177.543 380.865 182.808 394.884 187.269 C 388.687 176.964 382.49 166.658 376.069 155.979 C 380.809 153.244 385.035 150.805 389.522 148.217 C 400.903 167.055 412.034 185.48 422.941 203.535 C 415.678 212.152 408.162 210.171 399.854 206.432 C 389.251 201.659 378.222 197.833 366.248 193.158 C 371.449 201.857 375.942 209.657 380.715 217.281 C 386.448 226.441 385.102 230.675 374.904 233.768 C 374.091 234.014 372.364 232.878 371.766 231.938 C 367.642 225.458 363.705 218.86 359.468 211.957 Z " fill="rgb(214,213,201)"/><path d=" M 853.547 316.402 C 855.596 325.763 852.545 334.382 845.611 339.314 C 837.917 344.786 827.207 344.593 818.102 338.393 C 813.6 346.308 809.121 354.185 804.323 362.62 C 801.686 357.424 799.113 352.583 796.816 347.615 C 796.407 346.729 796.877 345.177 797.396 344.167 C 799.658 339.764 801.445 334.892 804.605 331.227 C 809.539 325.506 807.435 321.123 803.366 316.069 C 797.479 318.977 791.6 321.882 785.684 324.805 C 785.47 324.628 785.147 324.482 785.02 324.235 C 778.296 311.196 778.294 311.187 791.447 304.574 C 805.08 297.718 818.788 291.006 832.319 283.955 C 836.209 281.928 838.225 282.491 839.99 286.473 C 844.369 296.353 849.007 306.117 853.547 316.402 Z  M 828.913 328.122 C 836.407 328.008 840.984 322.838 838.546 316.686 C 836.621 311.828 833.865 307.3 831.227 302.133 C 826.067 304.724 821.252 307.141 816.446 309.555 C 817.642 311.869 818.393 313.776 819.523 315.422 C 822.345 319.535 825.338 323.53 828.913 328.122 Z " fill="rgb(214,213,201)"/><path d=" M 807.124 241.089 C 811.989 246.674 816.568 251.972 821.513 257.693 C 817.766 260.902 814.339 263.837 810.66 266.987 C 803.256 258.108 795.996 249.402 788.832 240.811 C 788.077 241.068 787.657 241.094 787.41 241.314 C 785.094 243.371 781.259 245.264 780.96 247.601 C 780.678 249.809 784.03 252.565 785.94 254.955 C 790.049 260.098 794.259 265.162 798.592 270.46 C 793.754 272.22 789.192 273.879 784.567 275.562 C 780.312 270.615 775.572 265.88 771.821 260.46 C 769.436 257.014 767.984 257.112 765.464 259.74 C 763.941 261.327 762.228 262.731 760.049 264.721 C 767.116 273.349 774.412 282.255 781.858 291.345 C 778.375 294.473 775.117 297.399 771.494 300.653 C 760.632 287.743 749.776 274.84 738.772 261.76 C 755.641 247.648 772.297 233.715 789.416 219.394 C 795.203 226.504 801.021 233.653 807.124 241.089 Z " fill="rgb(214,213,201)"/><path d=" M 518.294 116.342 C 518.435 124.751 518.513 132.626 518.595 140.965 C 528.002 140.33 535.738 139.808 544.342 139.227 C 543.871 131.452 543.396 123.601 542.858 114.72 C 548.267 114.286 553.256 113.887 559.154 113.414 C 559.154 135.62 559.154 157.002 559.154 179.263 C 555.197 179.612 550.696 180.01 545.339 180.484 C 544.813 171.632 544.323 163.374 543.806 154.679 C 536.132 154.679 528.198 154.679 519.681 154.679 C 519.681 162.848 519.681 171.168 519.681 179.651 C 514.627 180.29 510.126 180.859 504.907 181.519 C 504.297 159.155 503.701 137.302 503.081 114.567 C 508.087 114.977 513.159 115.393 518.294 116.342 Z " fill="rgb(214,213,201)"/><path d=" M 587.331 140.019 C 589.053 132.633 590.528 125.663 592.028 118.579 C 592.512 118.485 593.075 118.206 593.556 118.309 C 609.275 121.664 624.987 125.057 640.78 128.461 C 639.917 133.017 639.144 137.094 638.194 142.106 C 627.124 139.731 615.982 137.34 604.443 134.865 C 603.608 138.683 602.838 142.203 601.982 146.115 C 610.918 148.161 619.958 150.231 629.454 152.405 C 627.573 155.912 626.074 159.667 623.674 162.712 C 622.702 163.946 619.659 164.251 617.746 163.914 C 611.465 162.805 605.27 161.207 598.781 159.738 C 597.987 163.903 597.239 167.831 596.455 171.945 C 606.326 173.92 616.396 175.824 626.39 178.069 C 627.701 178.364 629.633 180.492 629.535 181.618 C 629.213 185.31 628.088 188.932 627.239 192.724 C 610.36 189.054 594.301 185.562 578.472 182.12 C 581.383 168.03 584.234 154.233 587.331 140.019 Z " fill="rgb(214,213,201)"/><path d=" M 297.103 246.046 C 294.854 240.773 293.219 235.659 290.668 231.053 C 288.346 226.86 288.593 223.935 292.396 220.989 C 294.442 219.404 296.034 217.234 297.91 215.245 C 320.263 223.489 342.372 231.643 365.178 240.054 C 361.245 244.412 358.057 247.943 354.545 251.835 C 354.72 251.786 354.315 252.051 354.03 251.955 C 349.242 250.347 343.166 246.051 339.974 247.624 C 334.099 250.518 329.875 256.813 325.069 261.792 C 323.811 263.095 322.945 264.774 321.974 266.172 C 324.046 270.639 326.11 275.088 328.179 279.549 C 324.694 283.249 321.425 286.72 317.301 291.099 C 310.518 275.937 303.918 261.183 297.103 246.046 Z  M 311.97 244.211 C 313.15 246.68 314.33 249.149 315.726 252.069 C 318.9 248.259 321.801 244.777 325.041 240.887 C 319.271 238.624 313.878 236.509 307.583 234.04 C 309.17 237.87 310.336 240.683 311.97 244.211 Z " fill="rgb(214,213,201)"/><path d=" M 646.837 197.79 C 646.42 197.368 646.266 197.255 646.151 197.109 C 639.134 188.161 639.137 188.166 649.209 183.379 C 650.372 182.826 651.493 182.185 650.65 183.552 C 655.681 187.494 660.712 191.435 665.741 195.378 C 666.323 195.835 666.831 196.581 667.479 196.727 C 670.906 197.504 674.938 200.24 677.423 195.764 C 679.721 191.625 676.281 188.89 673.583 186.358 C 669.333 182.369 664.496 178.897 660.784 174.471 C 655.044 167.63 655.208 159.604 660.229 151.585 C 663.442 146.455 673.79 142.668 680.623 144.309 C 690.908 146.78 698.982 152.464 704.765 161.362 C 706.289 163.708 706.423 165.784 703.718 167.331 C 700.724 169.043 697.693 170.692 696.83 169.816 C 692.491 166.729 688.212 163.552 683.779 160.606 C 682.299 159.623 680.426 158.715 678.732 158.713 C 676.963 158.711 674.311 159.37 673.651 160.601 C 672.862 162.074 673.007 165.187 674.084 166.322 C 678.548 171.027 683.587 175.178 688.285 179.67 C 699.888 190.763 692.355 208.01 681.05 211.081 C 670.754 213.877 660.972 210.528 652.709 203.608 C 650.707 201.931 648.974 199.933 646.837 197.79 Z " fill="rgb(214,213,201)"/><path d=" M 492.183 792.605 C 484.379 799.563 475.858 803.312 465.52 803.318 C 446.355 803.329 431.375 786.904 431.522 769.4 C 431.664 752.344 441.255 738.287 458.033 735.14 C 470.527 732.796 482.734 734.496 492.964 744.719 C 489.617 748.605 486.308 752.447 483.013 756.272 C 471.572 747.166 460.433 746.128 452.947 754.764 C 445.138 763.771 445.517 775.11 454.568 783.847 C 462.206 791.22 472.707 790.135 484.278 779.751 C 487.057 784.022 489.735 788.138 492.183 792.605 Z " fill="rgb(214,213,201)"/><path d=" M 474.678 188.419 C 466.628 190.924 459.212 193.464 450.701 191.56 C 438.198 188.764 426.897 177.547 425.167 164.35 C 423.592 152.327 425.935 141.418 435.749 132.582 C 444.141 125.025 462.895 120.735 474.542 126.899 C 475.653 127.488 476.579 130.317 476.131 131.596 C 474.938 135.009 472.949 138.143 471.704 140.558 C 465.562 139.954 459.715 137.989 454.563 139.139 C 440.464 142.287 435.947 159.722 445.617 170.945 C 454.183 180.887 464.02 178.857 472.793 171.961 C 475.22 170.054 477.08 166.261 479.56 165.915 C 482.035 165.57 484.965 168.456 487.688 169.94 C 488.479 170.371 489.244 170.85 490.398 171.529 C 487.198 179.053 482.095 184.48 474.678 188.419 Z " fill="rgb(214,213,201)"/><path d=" M 635.351 791.935 C 635.351 795.461 635.351 798.433 635.351 801.749 C 630.072 801.749 625.137 801.749 619.605 801.749 C 619.605 797.031 619.079 792.328 619.717 787.788 C 620.948 779.04 617.443 772.156 612.726 765.297 C 606.913 756.844 601.581 748.057 596.09 739.384 C 595.537 738.511 595.318 737.428 594.682 735.752 C 600.345 735.752 605.519 735.614 610.674 735.859 C 611.813 735.913 613.285 737.081 613.93 738.144 C 618.297 745.354 622.484 752.673 627.159 760.695 C 630.226 755.89 634.045 751.716 635.786 746.805 C 639.482 736.383 646.774 734.195 656.466 735.729 C 657.2 735.845 657.966 735.733 658.711 735.8 C 659.044 735.83 659.362 736.04 660.254 736.394 C 655.704 743.507 651.229 750.53 646.726 757.536 C 643.259 762.932 639.33 768.091 636.455 773.783 C 635.075 776.514 635.564 780.232 635.381 783.512 C 635.234 786.128 635.351 788.758 635.351 791.935 Z " fill="rgb(214,213,201)"/><path d=" M 720.538 209.111 C 724.639 203.865 728.611 199.017 732.123 193.856 C 732.736 192.955 731.932 190.136 730.89 189.232 C 727.155 185.991 723.037 183.192 718.639 179.909 C 721.369 176.159 723.986 172.563 727.113 168.267 C 733.235 172.704 739.137 176.884 744.932 181.207 C 752.439 186.808 759.78 192.635 767.36 198.133 C 770.234 200.218 770.714 202.24 768.556 204.898 C 766.465 207.474 764.26 209.958 762.035 212.564 C 756.813 208.756 751.677 205.01 746.508 201.24 C 737.509 212.918 728.697 224.215 720.046 235.634 C 715.567 241.547 715.656 241.701 709.726 237.477 C 707.633 235.987 705.785 234.152 703.343 232.062 C 709.102 224.344 714.677 216.874 720.538 209.111 Z " fill="rgb(214,213,201)"/><path d=" M 534.125 744.622 C 534.125 741.509 534.125 738.927 534.125 736.046 C 552.618 736.046 570.67 736.046 588.98 736.046 C 588.98 740.327 588.98 744.383 588.98 749.022 C 582.571 749.022 576.121 749.022 569.108 749.022 C 569.108 766.898 569.108 784.206 569.108 801.804 C 564.116 801.804 559.684 801.804 554.675 801.804 C 554.675 784.642 554.675 767.332 554.675 749.238 C 548.77 749.238 543.412 749.045 538.077 749.309 C 534.767 749.473 533.65 748.246 534.125 744.622 Z " fill="rgb(214,213,201)"/><path d=" M 521.752 748.138 C 521.752 766.275 521.752 783.852 521.752 801.764 C 516.443 801.764 511.509 801.764 506.288 801.764 C 506.288 779.95 506.288 758.284 506.288 736.179 C 511.109 736.179 516.047 736.179 521.752 736.179 C 521.752 739.865 521.752 743.722 521.752 748.138 Z " fill="rgb(214,213,201)"/><path d=" M 256.211 447.149 C 258.519 452.351 257.918 456.784 254.145 460.845 C 259.492 464.641 259.823 469.782 257.604 475.125 C 255.267 480.754 250.16 481.79 244.731 481.512 C 241.64 481.353 238.402 481.297 235.524 480.327 C 227.735 477.702 225.341 469.598 230.506 463.142 C 232.264 460.946 232.14 459.706 230.73 457.595 C 228.14 453.718 228.977 447.445 232.454 444.547 C 239.068 439.034 251.78 439.778 256.211 447.149 Z  M 244.305 465.806 C 241.231 465.839 237.32 465.356 237.802 469.888 C 237.956 471.335 241.427 473.284 243.487 473.423 C 245.409 473.553 247.473 471.585 249.475 470.54 C 248.06 468.964 246.646 467.388 244.305 465.806 Z  M 248.32 453.864 C 248.068 453.19 247.928 452.445 247.547 451.856 C 245.858 449.245 243.622 447.724 240.856 450.117 C 239.76 451.065 239.503 452.984 238.864 454.461 C 241.318 455.03 243.759 455.688 246.241 456.081 C 246.674 456.15 247.284 455.106 248.32 453.864 Z " fill="rgb(214,213,201)"/><path d=" M 844.303 476.729 C 837.441 483.04 829.968 482.806 822.274 479.955 C 820.174 479.177 817.076 477.981 819.4 474.824 C 820.967 472.696 821.568 468.66 826.429 471.239 C 832.588 474.506 835.751 473.096 838.463 467.442 C 836.007 467.642 833.551 468.017 831.094 468.023 C 823.587 468.041 817.914 463.393 817.56 457.099 C 817.046 447.944 821.459 442.123 829.709 441.073 C 841.497 439.574 848.848 446.079 849.083 458.002 C 849.213 464.576 848.537 470.873 844.303 476.729 Z  M 838.918 454.193 C 837 452.478 835.314 450.055 833.074 449.318 C 831.757 448.885 828.774 450.702 827.924 452.261 C 826.279 455.278 827.123 458.071 830.852 459.492 C 835.406 461.227 837.714 459.262 838.918 454.193 Z " fill="rgb(214,213,201)"/><path d=" M 883.919 451.217 C 883.919 455.855 883.919 459.941 883.919 464.425 C 885.829 464.593 887.408 464.731 889.253 464.893 C 889.253 467.278 889.253 469.461 889.253 472.034 C 887.745 472.314 886.016 472.634 883.987 473.01 C 883.987 475.697 883.987 478.26 883.987 481.185 C 880.949 481.185 878.263 481.185 875.187 481.185 C 875.021 478.492 874.854 475.788 874.664 472.731 C 868.532 472.731 862.603 472.731 856.944 472.731 C 853.229 467.797 855.44 464.527 858.776 461.012 C 863.597 455.933 867.851 450.32 872.583 445.151 C 876.631 440.73 876.779 440.866 883.919 441.35 C 883.919 444.418 883.919 447.542 883.919 451.217 Z  M 867.595 463.745 C 869.898 464.122 872.202 464.5 874.725 464.912 C 874.725 461.517 874.725 459.012 874.725 457.597 C 872.846 459.162 870.482 461.13 867.595 463.745 Z " fill="rgb(214,213,201)"/><path d=" M 216.792 481.537 C 214.439 481.547 212.609 481.547 210.329 481.547 C 210.329 471.312 210.329 461.491 210.329 451.595 C 203.691 452.721 203.691 452.721 201.179 444.643 C 206.919 443.192 212.619 441.75 219.137 440.102 C 219.137 454.259 219.159 467.086 219.06 479.911 C 219.056 480.454 217.922 480.988 216.792 481.537 Z " fill="rgb(214,213,201)"/><path d=" M 659.976 668.13 C 658.901 669.115 657.626 669.878 656.351 670.642 C 656.173 670.329 655.995 670.016 655.817 669.703 C 656.796 669.12 657.776 668.538 659.038 667.739 C 659.472 667.652 659.624 667.781 659.976 668.13 Z " fill="rgb(214,213,201)"/><path d=" M 431.209 671.106 C 431.744 671.448 432.046 671.978 432.349 672.508 C 431.845 672.449 431.34 672.391 430.702 672.029 C 430.705 671.582 430.841 671.437 431.209 671.106 Z " fill="rgb(214,213,201)"/><path d=" M 458.761 393.84 C 451.494 389.139 451.912 381.746 452.21 374.531 C 452.305 372.229 453.204 369.917 453.974 367.693 C 456.008 361.819 459.282 357.386 466.101 356.373 C 469.305 355.898 472.515 354.669 475.399 353.163 C 476.955 352.35 478.509 350.378 478.876 348.673 C 479.712 344.792 479.814 340.752 480.192 337.003 C 472.587 338.719 465.466 340.327 458.344 341.934 C 458.092 341.127 457.84 340.321 457.588 339.514 C 465.919 335.733 474.25 331.952 483.379 327.809 C 483.379 335.743 483.379 342.589 483.379 350.287 C 489.296 348.289 494.562 346.512 499.552 344.827 C 499.813 349.988 499.309 355.338 500.552 360.245 C 501.775 365.07 504.902 369.389 506.937 374.041 C 508 376.472 509.651 379.442 509.075 381.657 C 506.537 391.411 509.512 400.064 513.532 410.389 C 513.822 405.776 513.524 402.666 514.293 399.846 C 516.239 392.714 519.752 387.743 527.971 385.376 C 544.256 380.686 560.067 374.353 575.929 368.249 C 557.013 371.11 536.961 370.399 522.189 385.949 C 511.059 376.964 510.73 355.654 521.47 348.198 C 510.872 340.791 514.152 322.867 521.165 315.688 C 523.471 313.327 527.837 312.962 531.279 311.734 C 532.827 311.182 534.43 310.786 535.988 310.259 C 544.607 307.346 544.605 307.34 543.958 296.974 C 536.621 297.637 529.676 303.384 521.828 299.486 C 526.121 297.312 530.21 295.003 534.493 293.137 C 538.965 291.19 543.623 289.669 548.643 287.797 C 548.643 294.076 548.643 299.677 548.643 305.778 C 555.104 303.543 561.187 301.438 566.168 299.715 C 566.716 306.779 565.796 314.202 568.142 320.387 C 571.229 328.526 574.09 336.129 573.883 345.131 C 573.781 349.593 576.627 354.758 579.549 358.506 C 583.88 364.06 585.204 369.956 583.449 376.212 C 581.134 384.46 583.565 392.099 586.163 399.322 C 589.09 407.462 593.973 414.898 599.068 422.24 C 599.068 390.522 599.068 358.805 599.068 327.434 C 592.366 328.809 585.485 330.22 578.604 331.631 C 578.374 330.827 578.144 330.023 577.914 329.219 C 586.268 325.489 594.623 321.758 603.658 317.723 C 603.658 332.226 603.658 345.657 603.658 359.853 C 617.726 355.049 631.27 350.424 645.619 345.525 C 641.615 368.087 640.742 389.867 655.021 409.959 C 652.144 411.057 649.709 412.058 647.227 412.922 C 634.278 417.427 621.293 421.83 608.392 426.467 C 606.789 427.043 605.608 428.793 604.231 429.999 C 604.562 430.606 604.892 431.212 605.223 431.819 C 619.595 429.816 633.968 427.813 648.522 425.785 C 647.873 433.745 643.129 439.454 637.79 444.753 C 634.394 448.124 633.246 451.563 635.406 456.188 C 636.915 459.417 638.935 460.275 642.338 460.256 C 667.075 460.12 691.813 460.183 716.551 460.183 C 718.559 460.183 720.568 460.183 722.823 460.183 C 722.823 465.523 722.823 470.328 722.823 475.53 C 602.806 475.53 482.793 475.53 362.41 475.53 C 362.41 470.678 362.41 465.743 362.41 460.313 C 391.421 460.313 420.373 460.313 449.876 460.313 C 442.438 445.456 432.602 434.366 416.662 429.758 C 412.29 428.494 408.035 426.708 403.914 424.763 C 402.579 424.133 401.842 422.235 401.356 420.338 C 426.675 428.658 452.445 432.4 478.723 435.708 C 478.723 431.938 478.723 428.841 478.723 424.451 C 473.039 426.642 467.914 428.617 462.695 430.628 C 452.904 421.925 449.955 411.736 454.276 399.766 C 454.995 397.775 457.059 396.269 459.045 394.173 C 473.38 389.209 487.172 384.609 500.964 380.009 C 494.87 379.801 488.856 380.11 483.142 381.585 C 474.215 383.891 464.603 385.238 458.761 393.84 Z  M 517.522 425.311 C 506.663 424.786 495.804 424.261 485.073 423.742 C 485.073 428.772 485.073 432.582 485.073 437.031 C 504.261 437.031 523.009 437.031 541.653 437.031 C 542.079 433.565 542.494 430.173 543.143 424.881 C 537.346 428.314 532.786 431.015 527.885 433.918 C 525.073 431.353 521.765 428.336 517.522 425.311 Z  M 462.907 460.181 C 510.763 460.181 558.619 460.181 606.476 460.181 C 602.355 458.423 598.114 457.521 593.955 456.333 C 586.51 454.206 579.201 452.725 571.713 456.467 C 569.512 457.567 566.732 457.733 564.19 457.888 C 550.414 458.731 536.912 456.976 523.48 453.876 C 519.458 452.948 513.997 452.089 511.026 454.018 C 504.299 458.387 497.02 458.914 489.886 458.767 C 483.051 458.625 476.32 455.75 469.442 454.949 C 460.622 453.922 457.946 453.402 455.062 460.181 C 457.362 460.181 459.609 460.181 462.907 460.181 Z  M 558.301 437.686 C 570.059 436.041 581.831 434.48 593.563 432.669 C 595.553 432.362 597.377 430.978 599.277 430.092 C 597.213 429.248 595.166 428.361 593.077 427.584 C 592.234 427.27 591.291 427.234 590.408 427.013 C 576.804 423.619 563.006 423.885 549.101 424.412 C 549.101 428.995 549.101 433.172 549.101 437.686 C 552.04 437.686 554.628 437.686 558.301 437.686 Z  M 546.965 335.319 C 537.843 336.903 528.621 338.283 523.286 347.617 C 536.45 343.012 549.613 338.408 562.777 333.804 C 562.672 333.387 562.567 332.971 562.461 332.554 C 557.621 333.447 552.781 334.339 546.965 335.319 Z " fill="rgb(214,213,201)"/><path d=" M 497.017 677.255 C 478.61 668.293 461.465 658.095 445.492 645.865 C 423.518 629.04 405.294 608.955 390.916 585.325 C 381.224 569.398 373.703 552.49 369.479 534.365 C 366.944 523.488 365.804 512.27 364.352 501.163 C 363.466 494.392 363.177 487.543 362.476 478.972 C 368.108 485.578 372.868 491.047 377.502 496.621 C 386.107 506.974 394.659 517.372 403.195 527.781 C 414.651 541.749 426.014 555.793 437.525 569.715 C 445.886 579.827 454.47 589.755 462.866 599.84 C 471.717 610.471 480.646 621.049 489.086 632.001 C 490.607 633.975 490.175 637.644 490.212 640.536 C 490.336 650.385 491.863 651.679 501.515 650.453 C 503.027 650.261 505.285 651.207 506.277 652.396 C 517.492 665.837 528.527 679.427 539.597 692.989 C 539.681 693.091 539.571 693.351 539.389 695.124 C 525.129 689.078 511.283 683.207 497.017 677.255 Z " fill="rgb(214,213,201)"/><path d=" M 552.991 497.607 C 548.353 492.096 543.995 486.877 539.148 481.071 C 540.992 480.787 542.152 480.454 543.314 480.452 C 562.423 480.419 581.535 480.289 600.639 480.597 C 603.147 480.638 606.318 482.372 607.993 484.336 C 618.4 496.532 628.466 509.018 638.647 521.407 C 648.947 533.94 659.24 546.48 669.555 559.001 C 676.589 567.54 683.758 575.972 690.599 584.663 C 691.592 585.925 691.985 589.052 691.14 590.153 C 682.285 601.693 673.128 613.001 664.038 624.36 C 661.833 627.115 660.389 627.197 657.809 624.032 C 644.282 607.434 630.313 591.197 616.743 574.633 C 615.7 573.36 616.06 570.381 616.66 568.476 C 617.232 566.661 619.068 565.278 620.178 563.592 C 622.365 560.271 621.088 556.289 617.321 554.73 C 615.303 553.895 613.23 552.975 611.1 552.671 C 606.268 551.983 603.346 549.261 600.587 545.353 C 598.632 542.584 595.321 540.311 592.13 538.98 C 587.149 536.903 582.986 534.508 579.541 530.005 C 571.144 519.029 562.072 508.568 552.991 497.607 Z " fill="rgb(214,213,201)"/><path d=" M 449.469 516.679 C 439.656 504.743 430.132 493.091 420.113 480.833 C 422.228 480.669 423.776 480.446 425.325 480.444 C 443.657 480.42 461.991 480.613 480.317 480.294 C 484.687 480.218 487.306 482.053 489.716 485.006 C 498.797 496.138 507.848 507.295 517.115 518.694 C 511.696 526.282 506.734 535.061 496.471 537.619 C 491.194 538.935 486.741 540.962 483.477 545.223 C 481.955 547.21 480.896 549.552 479.331 552.243 C 469.487 540.498 459.623 528.73 449.469 516.679 Z " fill="rgb(214,213,201)"/><path d=" M 689.028 514.399 C 683.857 508.108 678.981 502.096 674.083 496.103 C 670.138 491.277 666.166 486.473 661.596 480.917 C 682.021 480.917 701.531 480.917 721.965 480.917 C 721.683 501.418 719.047 521.862 713.397 543.254 C 705.031 533.329 697.172 524.007 689.028 514.399 Z " fill="rgb(214,213,201)"/><path d=" M 597.375 628.056 C 598.832 625.504 599.99 623.264 601.525 620.296 C 610.874 631.628 619.837 642.491 629.69 654.434 C 615.176 662.362 601.273 670.005 587.29 677.498 C 586.265 678.047 584.018 678.08 583.423 677.402 C 576.052 669.011 568.883 660.443 561.335 651.535 C 565.051 650.07 567.78 648.633 570.685 647.979 C 572.565 647.555 574.848 647.878 576.701 648.552 C 587.72 652.56 594.748 655.23 593.703 637.197 C 593.497 633.65 593.866 630.518 597.375 628.056 Z " fill="rgb(214,213,201)"/><path d=" M 431.494 377.794 C 438.445 371.845 445.115 366.177 451.785 360.51 C 452.371 360.929 452.958 361.348 453.545 361.767 C 443.521 380.508 438.218 400.131 442.299 421.009 C 429.027 419.763 416.467 418.584 403.295 417.348 C 409.336 402.173 419.293 389.451 431.494 377.794 Z " fill="rgb(214,213,201)"/><path d=" M 560.828 541.438 C 556.067 535.638 553.266 534.666 545.36 539.867 C 542.493 532.267 544.298 525.106 549.853 522.041 C 556.136 518.574 563.089 520.744 567.882 527.881 C 573.037 535.556 580.357 539.802 589.05 542.401 C 596.248 544.552 600.52 551.371 599.203 557.291 C 597.645 564.298 588.919 569.5 582.779 567.682 C 585.863 558.033 584.803 556.008 574.575 552.361 C 568.875 550.328 564.043 547.251 560.828 541.438 Z " fill="rgb(214,213,201)"/><path d=" M 489.306 623.709 C 488.762 621.51 487.956 619.703 488.084 617.964 C 488.837 607.72 485.613 598.849 479.619 590.671 C 475.429 584.954 475.552 576.536 479.638 572.905 C 483.871 569.143 493.232 567.91 499.358 573.637 C 497.889 574.933 496.335 576.124 494.999 577.524 C 492.461 580.182 491.572 583.145 493.734 586.536 C 494.915 588.388 495.726 590.534 497.143 592.166 C 500.797 596.372 501.766 601.146 501.584 606.591 C 501.291 615.339 504.729 618.441 514.042 617.921 C 512.618 623.714 509.21 627.28 503.969 629.244 C 497.751 631.573 493.335 628.596 489.306 623.709 Z " fill="rgb(214,213,201)"/><path d=" M 536.011 523.384 C 541.556 528.282 539.431 534.155 539.53 539.584 C 538.955 539.766 538.717 539.927 538.606 539.865 C 529.736 534.853 526.785 535.194 521.177 543.716 C 518.195 548.249 514.36 550.738 509.536 552.34 C 499.732 555.595 498.359 557.817 500.225 567.394 C 493.117 568.945 486.421 563.602 484.888 557.497 C 483.476 551.879 487.254 545.186 493.403 543.443 C 502.818 540.773 510.165 535.647 515.859 527.57 C 520.37 521.172 526.188 518.02 536.011 523.384 Z " fill="rgb(214,213,201)"/><path d=" M 585.807 593.128 C 587.765 589.804 591.243 586.824 591.095 584.038 C 590.882 580.052 588.016 576.207 586.175 572.058 C 595.646 566.061 606.246 569.581 607.575 579.415 C 608.031 582.789 606.927 587.365 604.78 589.914 C 598.17 597.764 596.495 606.921 596.046 616.527 C 595.702 623.898 593.898 626.706 586.831 628.965 C 581.934 630.53 576.767 628.579 573.338 623.87 C 572.112 622.187 570.887 620.503 569.59 618.721 C 573.266 617.686 576.503 617.44 578.967 615.932 C 583.174 613.358 583.171 608.608 583.674 604.191 C 584.081 600.616 585.01 597.1 585.807 593.128 Z " fill="rgb(214,213,201)"/><path d=" M 543.072 642.387 C 537.916 643.302 533.195 643.94 528.643 645.192 C 520.561 647.416 513.938 644.64 511.54 637.617 C 509.412 631.382 512.885 623.458 518.749 621.165 C 521.281 630.397 523.824 631.262 533.717 629.315 C 539.237 628.228 545.444 628.274 550.879 629.645 C 559.746 631.881 563.104 629.34 565.342 622.923 C 565.567 622.28 565.959 621.695 566.297 621.036 C 574.654 627.839 575.631 637.039 568.877 643.099 C 565.112 646.477 560.894 646.205 556.407 645.107 C 552.165 644.07 547.861 643.284 543.072 642.387 Z " fill="rgb(214,213,201)"/><path d=" M 529.321 604.883 C 530.998 602.432 532.427 600.313 533.893 598.22 C 535.762 595.551 546.485 593.334 548.295 595.738 C 553.002 601.987 557.46 608.482 561.301 615.284 C 562.253 616.971 561.278 621.019 559.751 622.498 C 558.028 624.166 554.487 625.161 552.081 624.689 C 545.472 623.394 539.248 622.673 532.528 624.86 C 530.034 625.671 525.181 623.853 523.636 621.661 C 522.107 619.491 522.683 615.105 523.659 612.124 C 524.515 609.513 527.208 607.503 529.321 604.883 Z " fill="rgb(214,213,201)"/><path d=" M 575.098 575.195 C 579.557 574.553 582.71 575.809 584.792 579.529 C 586.967 583.416 585.559 586.458 583.093 589.595 C 579.338 594.372 578.033 599.919 577.794 606.002 C 577.702 608.334 575.779 612.15 574.082 612.523 C 571.049 613.189 566.362 612.914 564.485 610.977 C 559.56 605.897 555.63 599.81 551.603 593.92 C 549.752 591.212 553.401 582.73 556.586 581.615 C 562.606 579.507 568.651 577.468 575.098 575.195 Z " fill="rgb(214,213,201)"/><path d=" M 511.813 576.724 C 517.619 578.59 523.071 580.084 528.468 581.757 C 530.984 582.537 533.847 591.679 532.063 594.315 C 528.069 600.218 523.96 606.109 519.232 611.411 C 517.727 613.1 513.913 613.877 511.526 613.361 C 508.022 612.603 506.18 609.86 505.801 605.623 C 505.378 600.898 503.842 596.097 501.888 591.732 C 499.961 587.425 496.525 583.544 499.688 578.662 C 502.685 574.036 507.36 576.39 511.813 576.724 Z " fill="rgb(214,213,201)"/><path d=" M 539.746 552.693 C 539.746 557.515 539.474 561.834 539.821 566.102 C 540.188 570.613 538.957 573.598 534.87 576.158 C 532.193 577.834 530.446 578.502 527.421 577.321 C 522.52 575.408 517.329 574.25 512.305 572.635 C 508.302 571.349 504.929 569.637 504.793 564.426 C 504.656 559.195 508.226 557.803 511.834 555.718 C 516.212 553.188 521.01 550.617 524.09 546.817 C 527.299 542.858 530.51 541.409 534.939 542.724 C 539.543 544.091 539.993 548.069 539.746 552.693 Z " fill="rgb(214,213,201)"/><path d=" M 544.249 555.897 C 544.25 553.856 544.318 552.353 544.236 550.858 C 544.022 546.937 545.313 543.787 549.261 542.626 C 553.353 541.423 557.32 542.358 559.593 546.077 C 562.789 551.307 567.195 554.367 573.021 555.833 C 576.944 556.819 579.376 558.848 579.245 563.62 C 579.115 568.343 577.101 570.632 572.785 571.878 C 567.17 573.499 561.681 575.555 556.11 577.339 C 551.038 578.962 544.351 574.139 544.263 568.808 C 544.196 564.686 544.25 560.563 544.249 555.897 Z " fill="rgb(214,213,201)"/><path d=" M 607.7 569.433 C 604.059 568.25 600.805 567.211 597.209 566.062 C 599.549 562.984 602.04 559.708 605.073 555.718 C 608.341 556.875 612.21 558.245 617.627 560.163 C 614.074 563.67 611.081 566.623 607.7 569.433 Z " fill="rgb(214,213,201)"/><path d=" M 472.576 567.918 C 467.236 559.707 467.238 559.713 476.193 556.684 C 477.039 556.398 477.843 555.988 478.585 555.67 C 481.283 559.374 483.836 562.878 486.191 566.111 C 482.837 567.311 479.186 568.74 475.437 569.838 C 474.795 570.026 473.737 568.795 472.576 567.918 Z " fill="rgb(214,213,201)"/><path d=" M 495.886 642.11 C 495.886 639.023 495.886 636.443 495.886 634.47 C 500.219 633.036 503.937 631.806 507.671 630.571 C 507.671 634.225 507.671 638.243 507.671 643.258 C 504.556 644.263 500.691 645.51 496.286 646.93 C 496.139 645.344 496.012 643.98 495.886 642.11 Z " fill="rgb(214,213,201)"/><path d=" M 538.741 578.266 C 543.398 575.702 546.634 577.876 548.346 581.244 C 549.931 584.361 548.981 588.381 545.415 589.694 C 543.154 590.526 539.279 590.162 537.581 588.675 C 533.988 585.528 534.441 581.557 538.741 578.266 Z " fill="rgb(214,213,201)"/></g></g></svg>