<?xml version="1.0" encoding="UTF-8" standalone="no"?><!-- Generator: Gravit.io --><svg xmlns="http://www.w3.org/2000/svg" xmlns:xlink="http://www.w3.org/1999/xlink" style="isolation:isolate" viewBox="0 0 1080 1080" width="1080pt" height="1080pt"><defs><clipPath id="_clipPath_hWElvXj8XnqzBDLG2lbPmswvS6fJopWB"><rect width="1080" height="1080"/></clipPath></defs><g clip-path="url(#_clipPath_hWElvXj8XnqzBDLG2lbPmswvS6fJopWB)"><g><path d=" M 30.5 410.386 L 30.5 419.84 L 540 419.84 L 1049.5 419.84 L 1049.5 410.386 L 1049.5 400.932 L 540 400.932 L 30.5 400.932 L 30.5 410.386 Z " fill="rgb(214,213,201)"/><path d=" M 36.471 495.717 L 36.471 534.776 L 49.407 534.776 L 62.344 534.776 L 62.344 521.093 L 62.344 507.41 L 83.49 507.41 L 104.636 507.41 L 104.636 498.205 L 104.636 489 L 83.49 489 L 62.344 489 L 62.344 483.776 L 62.344 478.552 L 84.386 478.452 L 106.378 478.303 L 106.527 467.456 L 106.626 456.659 L 71.549 456.659 L 36.471 456.659 L 36.471 495.717 Z " fill="rgb(214,213,201)"/><path d=" M 144.043 511.49 C 144.192 566.172 144.242 566.371 145.337 572.043 C 148.571 588.213 154.392 599.657 164.194 608.962 C 168.871 613.44 172.503 615.977 178.573 619.012 C 190.614 625.083 204.247 628.018 223.055 628.665 C 248.779 629.461 269.179 624.933 284.504 614.982 C 289.38 611.798 296.992 604.086 300.376 598.911 C 305.003 591.746 307.69 585.079 309.829 575.426 C 312.019 565.525 312.118 562.788 312.118 508.405 L 312.118 456.659 L 287.24 456.659 L 262.362 456.659 L 262.362 504.275 C 262.362 533.233 262.163 553.683 261.865 556.419 C 261.118 562.738 260.173 566.271 257.835 570.998 C 254.252 578.362 247.983 583.238 239.126 585.626 C 233.603 587.119 222.458 587.119 216.935 585.626 C 208.079 583.238 201.71 578.212 198.127 570.849 C 194.296 562.838 194.545 566.52 194.197 508.654 L 193.948 456.908 L 168.921 456.758 L 143.894 456.659 L 144.043 511.49 Z " fill="rgb(214,213,201)"/><path d=" M 327.045 540 L 327.045 623.341 L 351.923 623.341 L 376.801 623.341 L 376.801 600.702 L 376.801 578.063 L 399.589 578.063 L 422.327 578.113 L 434.319 600.603 L 446.359 623.092 L 470.839 623.242 C 494.026 623.341 495.319 623.291 494.971 622.495 C 494.822 621.998 488.055 609.608 479.994 594.93 C 471.934 580.302 465.366 568.062 465.366 567.814 C 465.366 567.565 466.063 566.918 466.909 566.42 C 469.894 564.679 475.218 559.703 478.402 555.723 C 484.074 548.608 488.304 538.905 489.796 529.551 C 490.642 524.078 490.543 511.241 489.548 505.42 C 486.811 488.552 479.397 476.362 466.958 468.202 C 457.604 462.033 445.713 458.4 430.885 457.206 C 426.955 456.858 405.908 456.659 375.756 456.659 L 327.045 456.659 L 327.045 540 Z  M 424.964 499.2 C 432.428 500.892 437.553 505.42 439.543 511.938 C 440.439 514.873 440.588 516.316 440.389 520.744 C 440.19 525.422 439.991 526.466 438.598 529.352 C 436.11 534.527 431.831 537.711 424.915 539.652 C 422.228 540.348 418.994 540.498 399.44 540.498 L 377.05 540.498 L 376.9 519.451 L 376.801 498.454 L 399.191 498.454 C 417.501 498.454 422.228 498.603 424.964 499.2 Z " fill="rgb(214,213,201)"/><path d=" M 507.161 539.95 L 507.161 623.341 L 558.061 623.341 C 589.059 623.341 611.648 623.142 615.878 622.794 C 648.219 620.356 666.778 609.011 672.4 588.213 C 673.993 582.492 673.993 570.6 672.5 564.778 C 669.614 553.882 663.146 545.871 651.951 539.303 C 648.07 536.965 647.473 536.467 647.473 535.273 C 647.473 534.129 648.07 533.581 651.851 531.293 C 657.125 528.059 662.996 522.287 665.235 518.107 C 668.072 512.684 669.067 508.106 669.017 500.195 C 669.017 494.672 668.768 492.384 667.922 489.299 C 663.245 471.834 649.662 462.033 624.585 457.853 C 619.858 457.057 613.838 456.957 563.286 456.808 L 507.161 456.609 L 507.161 539.95 Z  M 610.653 496.364 C 617.818 498.902 621.102 503.081 621.102 509.599 C 621.052 517.013 617.072 521.242 608.365 523.083 C 605.628 523.68 600.055 523.829 580.949 523.829 L 556.917 523.829 L 556.917 509.748 C 556.917 501.987 557.066 495.469 557.265 495.269 C 557.464 495.07 568.858 494.971 582.541 495.07 C 606.971 495.22 607.469 495.269 610.653 496.364 Z  M 611.151 553.384 C 617.022 555.325 619.958 557.663 621.998 562.042 C 623.64 565.624 623.441 571.595 621.6 575.277 C 620.007 578.412 616.276 581.745 612.843 582.989 C 607.967 584.83 604.334 585.079 580.302 584.93 L 557.166 584.78 L 557.017 569.107 C 556.967 560.499 557.017 553.136 557.166 552.787 C 557.365 552.24 562.092 552.14 582.89 552.29 C 605.877 552.489 608.663 552.588 611.151 553.384 Z " fill="rgb(214,213,201)"/><path d=" M 734.993 458.002 C 734.396 459.595 712.255 518.704 700.96 548.956 C 696.781 560.151 688.82 581.397 683.347 596.125 C 677.824 610.803 673.346 622.943 673.346 623.092 C 673.346 623.242 684.889 623.291 699.02 623.242 L 724.694 623.092 L 728.823 611.4 L 732.903 599.707 L 770.37 599.707 L 807.886 599.707 L 811.966 611.4 L 816.046 623.092 L 841.72 623.242 C 862.119 623.341 867.394 623.242 867.394 622.744 C 867.394 622.396 853.412 584.93 836.396 539.502 L 805.398 456.908 L 770.469 456.758 L 735.541 456.659 L 734.993 458.002 Z  M 775.047 505.022 C 775.445 505.917 779.923 518.854 785.048 533.781 C 790.172 548.707 794.501 561.196 794.601 561.495 C 794.8 561.992 789.774 562.141 770.37 562.141 C 750.119 562.141 745.94 562.042 746.139 561.495 C 746.288 561.096 750.567 548.608 755.692 533.731 C 760.817 518.854 765.295 505.917 765.693 505.022 L 766.339 503.429 L 770.37 503.429 L 774.4 503.429 L 775.047 505.022 Z " fill="rgb(214,213,201)"/><path d=" M 876.35 540 L 876.35 623.341 L 900.73 623.341 L 925.11 623.341 L 925.21 574.68 L 925.359 526.068 L 927.349 526.068 C 929.588 526.068 928.494 524.625 944.515 548.956 C 948.446 554.977 955.312 565.375 959.691 572.093 C 967.453 583.835 974.717 594.93 987.405 614.236 L 993.375 623.341 L 1021.438 623.341 L 1049.5 623.341 L 1049.5 540 L 1049.5 456.659 L 1025.12 456.659 L 1000.739 456.659 L 1000.739 505.42 L 1000.739 554.18 L 998.849 554.18 C 997.605 554.18 996.659 553.882 996.162 553.285 C 995.764 552.837 990.838 545.274 985.215 536.517 C 979.593 527.76 969.095 511.39 961.88 500.195 C 954.616 488.95 945.361 474.571 941.281 468.252 L 933.818 456.659 L 905.108 456.659 L 876.35 456.659 L 876.35 540 Z " fill="rgb(214,213,201)"/><path d=" M 63.09 545.921 C 50.502 548.807 40.501 556.469 34.779 567.615 C 32.938 571.097 30.5 578.063 30.5 579.655 C 30.5 579.904 35.724 580.053 42.143 580.053 L 53.786 580.053 L 55.278 577.416 C 60.304 568.51 71.399 565.276 80.654 569.953 C 83.49 571.396 87.669 575.575 88.814 578.063 C 89.162 578.859 89.66 579.556 89.908 579.556 C 90.754 579.556 109.114 568.858 109.114 568.361 C 109.114 566.968 104.935 560.997 101.402 557.464 C 96.576 552.638 91.302 549.354 84.734 547.165 C 80.455 545.722 79.31 545.523 73.041 545.423 C 68.364 545.274 65.08 545.473 63.09 545.921 Z " fill="rgb(214,213,201)"/><path d=" M 30.5 594.134 C 30.5 595.478 32.54 601.747 33.983 604.832 C 36.122 609.459 39.307 613.688 43.586 617.669 C 49.059 622.744 54.283 625.58 61.896 627.67 C 66.324 628.864 77.271 628.864 81.699 627.67 C 89.461 625.58 94.536 622.744 100.307 617.37 C 103.989 613.937 109.114 607.121 109.114 605.678 C 109.114 605.329 105.482 602.991 101.054 600.404 C 96.576 597.866 92.247 595.378 91.351 594.831 L 89.759 593.935 L 88.714 596.025 C 87.172 599.01 83.44 602.543 80.007 604.235 C 77.271 605.528 76.574 605.678 71.797 605.678 C 67.17 605.678 66.225 605.528 63.737 604.334 C 60.354 602.792 56.622 599.16 54.88 595.826 L 53.636 593.488 L 42.093 593.488 C 33.137 593.488 30.5 593.637 30.5 594.134 Z " fill="rgb(214,213,201)"/><path d=" M 30.5 669.614 L 30.5 679.068 L 540 679.068 L 1049.5 679.068 L 1049.5 669.614 L 1049.5 660.16 L 540 660.16 L 30.5 660.16 L 30.5 669.614 Z " fill="rgb(214,213,201)"/></g></g></svg>