<?xml version="1.0" encoding="UTF-8" standalone="no"?><!-- Generator: Gravit.io --><svg xmlns="http://www.w3.org/2000/svg" xmlns:xlink="http://www.w3.org/1999/xlink" style="isolation:isolate" viewBox="0 0 1080 1080" width="1080pt" height="1080pt"><defs><clipPath id="_clipPath_xh40yqWIWCypqZJox3G1xBcv2BIesIfM"><rect width="1080" height="1080"/></clipPath></defs><g clip-path="url(#_clipPath_xh40yqWIWCypqZJox3G1xBcv2BIesIfM)"><g><path d=" M 552.711 632.921 C 552.711 577.041 552.755 522.009 552.633 466.977 C 552.622 462.268 551.99 457.435 550.795 452.882 C 549.025 446.136 544.372 442.29 537.481 440.196 C 534.205 439.201 531.754 435.489 528.93 433.008 C 531.802 430.934 534.411 427.691 537.588 426.978 C 556.646 422.699 575.834 419.004 594.977 415.109 C 603.98 413.277 605.703 414.982 605.616 423.713 C 605.393 446.06 605.541 468.411 605.541 489.374 C 617.883 487.771 629.618 485.644 641.444 484.834 C 667.352 483.061 684.509 496.741 697.673 517.526 C 717.375 548.636 712.128 609.076 687.526 635.711 C 672.684 651.778 655.345 660.503 634.046 663.798 C 608.186 667.798 583.183 663.364 558.155 658.258 C 556.044 657.828 553.232 654.631 552.982 652.462 C 552.271 646.302 552.719 640.009 552.711 632.921 Z  M 653.215 564.045 C 652.054 554.897 652.163 545.349 649.432 536.697 C 645.435 524.028 639.299 512.209 624.725 508.004 C 611.919 504.31 605.519 508.659 605.518 521.527 C 605.516 552.179 605.296 582.834 605.633 613.482 C 605.758 624.936 607.186 636.375 608.013 647.728 C 623.729 649.152 634.042 643.407 641.036 630.335 C 651.898 610.031 654.405 588.247 653.215 564.045 Z " fill="rgb(214,213,201)"/><path d=" M 159.174 620.982 C 160.678 636.693 166.146 642.544 180.719 644.896 C 183.192 645.295 186.285 645.279 187.899 646.757 C 190.206 648.868 192.355 652.073 192.691 655.025 C 192.859 656.498 188.859 659.947 186.731 659.958 C 146.997 660.164 107.262 659.987 67.526 659.875 C 67.281 659.874 67.037 659.64 66.162 659.191 C 66.162 655.71 66.162 651.886 66.162 647.198 C 70.688 645.988 75.686 644.593 80.716 643.32 C 88.586 641.328 93.58 636.772 94.572 628.385 C 95.623 619.503 97.529 610.653 97.759 601.756 C 98.652 567.225 99.381 532.68 99.414 498.139 C 99.426 484.994 98.125 471.734 96.124 458.726 C 93.284 440.267 89.604 437.191 71.076 433.695 C 69.475 433.392 67.829 433.325 65.957 433.122 C 65.957 428.176 65.957 423.766 65.957 418.757 C 69.105 418.594 71.863 418.327 74.622 418.325 C 133.384 418.301 192.147 418.454 250.907 418.134 C 258.828 418.09 261.413 421.295 261.414 428.304 C 261.415 447.039 261.144 465.781 261.555 484.508 C 261.704 491.285 257.135 490.865 253.028 492.493 C 247.702 494.603 246.558 491.05 245.011 487.741 C 241.687 480.632 238.634 473.393 235.192 466.343 C 227.835 451.274 215.372 442.443 199.063 440.811 C 185.656 439.469 172.007 440.537 157.145 440.537 C 157.145 470.741 157.145 500.043 157.145 529.559 C 183.735 536.811 197.503 528.16 204.272 498.831 C 208.593 498.831 213.04 498.831 218.168 498.831 C 218.168 526.18 218.168 553.509 218.168 581.338 C 213.516 581.338 209.105 581.338 204.721 581.338 C 196.079 551.8 191.397 547.265 155.217 550.57 C 155.902 565.878 156.504 581.3 157.317 596.711 C 157.731 604.563 158.526 612.395 159.174 620.982 Z " fill="rgb(214,213,201)"/><path d=" M 392.608 522.303 C 402.364 542.518 405.394 562.887 403.126 584.783 C 400.768 607.542 392.935 626.854 376.664 643.056 C 362.797 656.864 345.629 663.391 326.978 665.02 C 303.526 667.068 281.187 663.205 262.237 647.056 C 248.603 635.437 240.612 620.581 236.829 603.783 C 230.947 577.66 231.003 551.613 243.771 526.988 C 256.916 501.637 277.153 486.809 305.941 482.755 C 328.635 479.558 349.971 482.383 368.501 495.371 C 377.974 502.011 384.552 512.781 392.608 522.303 Z  M 346.591 547.195 C 343.264 535.742 341.023 523.81 336.259 512.989 C 332.558 504.582 325.795 496.809 314.705 498.539 C 304.824 500.08 299.814 507.224 296.651 516.413 C 286.965 544.547 288.211 573.516 291.006 602.246 C 292.16 614.101 296.825 626.269 302.537 636.869 C 310.805 652.209 325.95 652.368 336.509 638.564 C 338.673 635.735 340.718 632.281 341.292 628.86 C 343.924 613.178 346.797 597.465 348.027 581.643 C 348.871 570.781 347.162 559.722 346.591 547.195 Z " fill="rgb(214,213,201)"/><path d=" M 788.014 663.608 C 750.933 657.197 726.96 628.787 721.272 593.422 C 716.671 564.809 720.865 538.122 738.242 514.318 C 751.461 496.209 768.968 484.759 791.628 483.223 C 802.899 482.459 814.703 482.048 825.581 484.508 C 850.882 490.229 864.5 508.724 870.875 532.587 C 873.804 543.548 874.244 555.174 876.003 567.867 C 841.249 567.867 808.262 567.867 775.404 567.867 C 772.099 601.896 792.159 635.236 827.714 634.808 C 839.602 634.666 850.369 632.534 860.55 626.212 C 862.901 624.753 867.068 626.219 870.399 626.338 C 870.142 629.921 871.276 634.679 869.404 636.897 C 856.844 651.774 840.86 661.438 821.294 663.418 C 810.551 664.504 799.609 663.616 788.014 663.608 Z  M 784.182 512.735 C 780.37 525.037 776.557 537.339 772.302 551.07 C 789.84 550.243 804.606 549.547 820.135 548.815 C 820.29 533.353 818.638 518.755 811.558 505.291 C 807.454 497.487 798.995 495.939 792.385 501.701 C 789.277 504.41 787.112 508.201 784.182 512.735 Z " fill="rgb(214,213,201)"/><path d=" M 922.772 486.516 C 948.777 477.376 973.726 481.677 998.468 488.959 C 1000.762 489.635 1003.656 492.962 1003.858 495.268 C 1004.938 507.619 1005.568 520.037 1005.587 532.433 C 1005.591 535.205 1003.153 539.34 1000.734 540.459 C 996.422 542.454 992.804 540.265 990.946 535.343 C 988.873 529.849 986.533 524.398 983.719 519.252 C 974.638 502.644 957.682 495.839 943.764 501.927 C 931.996 507.074 927.912 530.075 941.354 537.529 C 952.326 543.614 963.629 549.119 974.905 554.635 C 987.319 560.709 999.524 566.808 1007.398 579.053 C 1018.3 596.006 1015.033 624.99 1003.087 640.021 C 989.059 657.673 969.72 663.615 948.487 665.233 C 928.91 666.726 909.902 662.734 891.022 658.13 C 884.444 656.525 881.167 652.723 881.352 645.567 C 881.682 632.803 881.169 620.012 881.709 607.261 C 881.828 604.46 884.259 600.563 886.713 599.319 C 891.011 597.141 893.595 600.16 895.334 604.453 C 900.506 617.223 906.468 629.79 918.168 637.891 C 933.977 648.838 957.143 645.334 962.354 627.882 C 965.278 618.091 962.613 608.929 953.632 603.997 C 942.159 597.695 930.359 591.713 918.126 587.122 C 880.441 572.979 874.61 528.225 898.791 502.785 C 905.172 496.073 914.257 491.932 922.772 486.516 Z " fill="rgb(214,213,201)"/><path d=" M 476.057 600.345 C 476.642 610.157 476.94 619.176 477.884 628.126 C 479.158 640.214 481.523 642.552 493.256 645.06 C 496.79 645.815 500.325 646.564 504.448 647.442 C 504.448 651.07 504.448 654.927 504.448 659.802 C 501.62 659.928 498.622 660.174 495.624 660.177 C 467.528 660.207 439.431 660.199 411.335 660.193 C 398.735 660.191 398.735 660.182 402.075 647.284 C 419.937 643.772 422.913 639.44 423.293 620.249 C 423.594 605.025 424.903 589.798 424.632 574.592 C 424.323 557.202 422.55 539.844 421.825 522.454 C 421.427 512.888 414.781 510.172 407.439 508.913 C 403 508.151 398.715 507.133 399.946 502.485 C 400.75 499.452 405.079 495.934 408.391 495.211 C 431.012 490.28 453.782 486.033 477.338 481.401 C 477.338 490.367 477.338 498.994 477.338 510.093 C 480.765 506.138 482.789 504.019 484.57 501.711 C 495.881 487.058 515.843 476.293 537.446 483.481 C 540.225 484.406 544.256 489.532 543.653 491.41 C 538.647 506.999 532.688 522.282 527.148 537.301 C 519.167 534.724 512.687 531.673 505.912 530.715 C 499.229 529.769 492.096 530.144 485.439 531.407 C 478.687 532.689 475.693 537.508 475.897 545.036 C 476.389 563.186 476.057 581.358 476.057 600.345 Z " fill="rgb(214,213,201)"/></g></g></svg>