<?xml version="1.0" encoding="UTF-8" standalone="no"?><!-- Generator: Gravit.io --><svg xmlns="http://www.w3.org/2000/svg" xmlns:xlink="http://www.w3.org/1999/xlink" style="isolation:isolate" viewBox="0 0 1080 1080" width="1080pt" height="1080pt"><defs><clipPath id="_clipPath_Fgh7QfrpI8gbyojVQ1N2oySsU28R9U5j"><rect width="1080" height="1080"/></clipPath></defs><g clip-path="url(#_clipPath_Fgh7QfrpI8gbyojVQ1N2oySsU28R9U5j)"><g><path d=" M 391.963 742.6 C 391.963 784.308 408.866 822.069 436.194 849.39 C 463.519 876.718 501.276 893.622 542.984 893.622 C 584.688 893.622 622.441 876.718 649.774 849.39 C 677.102 822.069 694.006 784.308 694.006 742.6 L 694.228 739.404 C 694.244 739.22 702.25 676.268 647.132 635.092 L 680.904 589.836 C 755.145 645.306 751.726 728.971 750.511 743.577 C 750.253 800.492 727.074 852.008 689.731 889.351 C 652.169 926.905 600.286 950.139 542.984 950.139 C 485.682 950.139 433.795 926.909 396.237 889.351 C 358.679 851.797 335.446 799.906 335.446 742.6 L 391.963 742.6 L 391.963 742.6 Z  M 617.522 410.345 C 617.551 389.571 609.298 369.643 594.589 354.973 C 579.919 340.265 559.991 332.012 539.217 332.041 C 518.443 332.013 498.514 340.266 483.841 354.973 C 469.136 369.645 460.883 389.572 460.909 410.345 L 404.396 410.345 C 404.396 373.119 419.49 339.414 443.888 315.016 C 468.286 290.618 501.991 275.52 539.217 275.52 C 576.439 275.52 610.149 290.614 634.546 315.012 C 658.944 339.41 674.039 373.119 674.039 410.341 L 617.522 410.341 L 617.522 410.345 L 617.522 410.345 Z " fill="rgb(214,213,201)"/><path d=" M 345.714 680.027 C 334.649 709.989 335.707 742.424 335.707 742.424 L 391.752 742.362 C 391.752 742.362 392.342 706.156 400.582 679.964 L 345.714 680.027 Z " fill-rule="evenodd" fill="rgb(214,213,201)"/><path d=" M 686.976 593.415 C 667.839 574.959 645.331 560.353 620.679 550.395 C 596.836 540.786 570.676 535.492 543.136 535.492 C 428.669 535.492 335.868 628.293 335.868 742.764 C 335.868 857.232 428.669 950.033 543.136 950.033 C 657.608 950.033 750.409 857.232 750.409 742.764 C 750.409 736.337 750.096 723.708 749.487 711.466 C 749.061 703.092 748.549 695.606 747.983 691.945 L 803.831 683.559 C 804.808 689.87 805.519 699.228 806 708.821 C 806.556 720.128 806.866 731.447 806.93 742.768 C 806.93 888.448 688.82 1006.558 543.136 1006.558 C 397.452 1006.558 279.351 888.448 279.351 742.768 C 279.351 597.084 397.456 478.979 543.136 478.979 C 576.896 478.962 610.343 485.446 641.65 498.078 C 673.03 510.743 701.683 529.321 726.05 552.802 L 686.976 593.415 L 686.976 593.415 Z " fill="rgb(185,186,163)"/><path d=" M 667.158 683.106 L 802.163 683.266 L 802.163 739.775 L 667.158 739.623 L 667.158 683.106 L 667.158 683.106 Z " fill="rgb(185,186,163)"/><path d=" M 447.346 691.444 L 449.042 691.444 C 460.487 691.444 463.542 685.501 463.796 680.996 L 473.565 680.996 L 473.565 741.186 L 461.671 741.186 L 461.671 699.685 L 447.346 699.685 L 447.346 691.444 Z  M 503.035 700.893 C 503.035 692.238 508.56 690.714 511.619 690.714 C 517.738 690.714 520.716 694.949 520.716 701.826 C 520.716 708.946 516.128 711.915 511.959 711.915 C 507.458 711.915 503.035 709.969 503.035 700.893 L 503.035 700.893 Z  M 492.332 727.268 C 493.348 736.829 500.741 742.8 511.021 742.8 C 521.9 742.8 532.919 735.215 532.919 711.915 C 532.919 703.436 532.583 681 511.705 681 C 499.893 681 491.14 687.838 491.14 702.588 C 491.14 712.685 497.853 721.453 509.408 721.453 C 513.487 721.453 518.16 720.43 520.884 716.346 L 521.052 716.514 C 520.966 729.124 516.035 733.258 511.107 733.258 C 507.454 733.258 504.82 731.488 504.137 727.35 L 504.137 727.268 L 492.332 727.268 L 492.332 727.268 Z  M 550.623 711.861 C 550.623 696.383 552.495 690.554 559.309 690.554 C 566.124 690.554 567.995 696.383 567.995 711.861 C 567.995 727.338 566.124 733.262 559.309 733.262 C 552.495 733.262 550.623 727.338 550.623 711.861 Z  M 538.412 711.861 C 538.412 732.918 545.106 742.8 559.305 742.8 C 573.501 742.8 580.202 732.918 580.202 711.861 C 580.202 690.804 573.501 681.012 559.305 681.012 C 545.106 681.012 538.412 690.804 538.412 711.861 Z  M 597.602 705.085 C 599.798 703.55 602.517 701.764 608.371 701.764 C 616.424 701.764 626.595 707.383 626.595 721.18 C 626.595 729.378 622.445 742.8 604.721 742.8 C 595.304 742.8 585.704 737.177 585.106 725.064 L 597.004 725.064 C 597.508 729.964 600.142 733.262 605.397 733.262 C 611.075 733.262 614.388 728.448 614.388 722.028 C 614.388 716.71 611.84 711.306 605.565 711.306 C 603.955 711.306 599.888 711.388 597.598 715.612 L 586.974 715.108 L 591.139 682.031 L 624.215 682.031 L 624.215 692.038 L 599.712 692.038 L 597.602 705.085 L 597.602 705.085 Z " fill-rule="evenodd" fill="rgb(185,186,163)"/><path d=" M 460.628 409.755 L 404.212 409.954 C 400.285 472.746 456.802 508.069 456.802 508.069 L 647.828 635.815 L 682.268 590.782 L 501.538 475.888 C 501.538 475.888 460.628 451.357 460.628 409.755 L 460.628 409.755 Z " fill-rule="evenodd" fill="rgb(214,213,201)"/><path d=" M 683.409 73.442 C 684.464 91.755 684.941 110.085 684.283 128.375 C 683.947 137.685 687.157 142.425 696.023 145.308 C 710.817 150.117 725.281 155.964 739.774 161.651 C 742.268 162.629 744.22 164.984 748.364 168.219 C 729.385 173.914 712.844 179.48 695.972 183.736 C 684.063 186.74 680.747 193.318 681.002 205.11 C 681.356 221.487 679.53 237.911 675.021 255.471 C 664.655 241.095 653.683 227.108 644.157 212.196 C 638.631 203.546 633.326 201.666 623.551 204.841 C 606.957 210.231 589.803 213.902 570.682 215.545 C 580.459 202.043 589.853 188.241 600.143 175.142 C 607.352 165.966 609.623 158.449 601.347 147.997 C 591.212 135.197 583.208 120.708 576.386 103.568 C 591.391 108.266 606.835 111.917 621.276 117.964 C 635.008 123.716 643.802 122.554 651.782 108.657 C 658.681 96.644 668.749 86.45 677.796 74.447 C 679.571 73.442 680.967 73.442 683.409 73.442 Z " fill="rgb(185,186,163)"/><path d=" M 898 260.686 C 883.29 276.4 868.581 290.936 853.716 305.626 C 865.02 327.097 875.102 346.248 885.184 365.398 C 884.471 366.376 883.759 367.353 883.047 368.33 C 868.285 361.735 853.309 355.575 838.828 348.412 C 826.334 342.231 816.804 342.055 806.704 354.074 C 796.943 365.689 784.167 374.77 771.907 385.683 C 773.211 367.979 772.917 349.354 776.52 331.517 C 778.688 320.782 774.885 317.854 767.137 314.156 C 750.992 306.45 735.13 298.15 719.393 286.161 C 740.613 281.779 761.834 277.397 783.867 272.848 C 787.664 250.882 791.413 229.196 795.161 207.511 C 796.373 207.166 797.584 206.821 798.796 206.477 C 806.726 220.649 815.163 234.569 822.418 249.079 C 827.746 259.737 834.749 264.366 846.832 261.906 C 863.013 258.611 879.372 256.194 896.827 252.921 C 898 254.798 898 257.153 898 260.686 Z " fill="rgb(185,186,163)"/><path d=" M 400.647 73.442 C 413.05 88.304 423.823 103.55 435.869 117.714 C 438.399 120.689 446.127 121.48 450.572 120.198 C 468.295 115.088 485.667 108.762 506.25 105.493 C 499.041 116.86 492.025 128.355 484.582 139.567 C 469.597 162.14 469.468 162.102 485.204 183.176 C 493.167 193.84 501.275 204.397 507.447 218.203 C 490.227 213.815 472.719 210.295 455.894 204.715 C 445.673 201.326 440.776 204.603 435.439 212.572 C 425.958 226.728 415.504 240.231 405.457 254.008 C 403.895 253.889 402.334 253.77 400.772 253.651 C 400.075 238.271 398.249 222.834 399.018 207.527 C 399.704 193.862 395.778 186.402 381.837 183.189 C 365.779 179.488 350.167 173.851 330.388 167.849 C 338.098 163.802 342.778 160.587 347.948 158.75 C 396.012 141.665 396.092 141.733 395.454 91.129 C 395.39 86.034 394.148 80.954 392.928 74.655 C 394.759 73.442 397.114 73.442 400.647 73.442 Z " fill="rgb(185,186,163)"/><path d=" M 182 253.62 C 201.899 255.648 221.747 259.283 241.745 261.652 C 245.236 262.065 250.751 258.028 252.949 254.543 C 262.855 238.839 271.903 222.593 283.543 202.626 C 288.173 228.679 292.083 250.685 296.037 272.939 C 318.027 277.371 339.066 281.612 360.106 285.852 C 360.48 287.081 360.854 288.31 361.228 289.539 C 351.167 294.777 341.173 300.148 331.033 305.229 C 297.974 321.795 298.155 321.714 305.386 357.922 C 307.15 366.753 307.12 375.941 307.915 384.965 C 306.379 385.713 304.844 386.46 303.308 387.208 C 291.832 375.049 280.076 363.137 268.994 350.628 C 263.229 344.12 258.352 340.892 249.202 345.38 C 232.235 353.702 214.565 360.591 194.378 365.409 C 202.374 350.553 210.145 335.569 218.455 320.891 C 223.1 312.689 226.103 306.07 217.146 297.898 C 205.26 287.054 194.93 274.505 182.966 262.276 C 182 259.508 182 257.153 182 253.62 Z " fill="rgb(185,186,163)"/></g></g></svg>