<?xml version="1.0" encoding="UTF-8" standalone="no"?><!-- Generator: Gravit.io --><svg xmlns="http://www.w3.org/2000/svg" xmlns:xlink="http://www.w3.org/1999/xlink" style="isolation:isolate" viewBox="0 0 1080 919" width="1080pt" height="919pt"><defs><clipPath id="_clipPath_yLxpReG9vnqPuQUmAniBFdVKCl5DIZ1t"><rect width="1080" height="919"/></clipPath></defs><g clip-path="url(#_clipPath_yLxpReG9vnqPuQUmAniBFdVKCl5DIZ1t)"><g><path d=" M 202.233 606.732 C 425.159 606.732 648.086 606.732 877.767 606.732 C 877.767 622.451 877.767 638.17 877.767 654.366 C 654.841 654.366 431.914 654.366 202.233 654.366 C 202.233 638.647 202.233 622.928 202.233 606.732 Z " fill="rgb(214,213,201)"/><path d=" M 202.233 264.634 C 425.159 264.634 648.086 264.634 877.767 264.634 C 877.767 280.353 877.767 296.072 877.767 312.268 C 654.841 312.268 431.914 312.268 202.233 312.268 C 202.233 296.549 202.233 280.83 202.233 264.634 Z " fill="rgb(214,213,201)"/><path d=" M 529.851 335.375 C 535.349 335.347 540.847 335.319 546.512 335.29 C 552.223 335.374 557.933 335.457 563.817 335.544 C 572.383 335.418 572.383 335.418 581.121 335.29 C 589.369 335.332 589.369 335.332 597.783 335.375 C 602.793 335.399 607.803 335.423 612.965 335.449 C 631.799 339.316 637.579 343.808 648.259 359.902 C 651.184 376.75 650.777 393.272 650.373 410.327 C 650.343 415.198 650.312 420.069 650.28 425.088 C 650.159 440.622 649.888 456.148 649.612 471.679 C 649.503 482.22 649.405 492.761 649.316 503.303 C 649.078 529.121 648.704 554.934 648.259 580.75 C 631.111 580.75 613.962 580.75 596.295 580.75 C 596.295 552.17 596.295 523.589 596.295 494.143 C 574.859 494.143 553.424 494.143 531.339 494.143 C 531.339 522.723 531.339 551.303 531.339 580.75 C 514.191 580.75 497.043 580.75 479.375 580.75 C 478.84 549.694 478.447 518.642 478.186 487.583 C 478.077 477.019 477.929 466.455 477.742 455.892 C 477.479 440.703 477.356 425.518 477.261 410.327 C 477.149 405.608 477.037 400.889 476.922 396.027 C 476.914 375.379 476.92 363.601 488.532 346.104 C 503.487 336.704 512.255 335.46 529.851 335.375 Z  M 531.339 385.884 C 531.339 404.461 531.339 423.038 531.339 442.179 C 552.775 442.179 574.21 442.179 596.295 442.179 C 596.295 423.601 596.295 405.024 596.295 385.884 C 574.859 385.884 553.424 385.884 531.339 385.884 Z " fill="rgb(214,213,201)"/><path d=" M 338.216 335.375 C 343.499 335.347 348.783 335.319 354.226 335.29 C 362.453 335.416 362.453 335.416 370.846 335.544 C 376.313 335.46 381.781 335.376 387.414 335.29 C 392.703 335.318 397.992 335.346 403.442 335.375 C 408.247 335.399 413.053 335.423 418.005 335.449 C 435.605 339.038 447.652 345.012 457.723 359.902 C 461.48 374.534 461.369 388.685 461.174 403.73 C 461.199 407.963 461.224 412.196 461.249 416.557 C 461.267 425.493 461.219 434.429 461.111 443.364 C 460.972 457.008 461.109 470.629 461.276 484.273 C 461.258 492.97 461.225 501.667 461.174 510.365 C 461.253 516.455 461.253 516.455 461.333 522.669 C 460.916 542.2 459.642 555.446 446.285 570.328 C 432.536 581.857 421.51 584.042 403.442 584.048 C 398.153 584.062 392.864 584.076 387.414 584.091 C 381.947 583.971 376.479 583.851 370.846 583.727 C 362.619 583.823 362.619 583.823 354.226 583.922 C 314.74 583.567 314.74 583.567 298.112 572.543 C 284.798 553.239 285.723 537.129 285.964 514.171 C 285.943 509.831 285.923 505.492 285.901 501.021 C 285.886 491.863 285.926 482.706 286.017 473.548 C 286.133 459.546 286.018 445.558 285.879 431.556 C 285.894 422.647 285.921 413.738 285.964 404.829 C 285.92 400.652 285.876 396.474 285.831 392.17 C 286.169 372.768 286.88 362.745 298.112 346.448 C 312.729 336.768 320.787 335.463 338.216 335.375 Z  M 340.804 385.884 C 340.804 433.042 340.804 480.199 340.804 528.786 C 362.239 528.786 383.674 528.786 405.759 528.786 C 405.759 481.628 405.759 434.471 405.759 385.884 C 384.324 385.884 362.889 385.884 340.804 385.884 Z " fill="rgb(214,213,201)"/><path d=" M 147.832 335.375 C 153.135 335.347 158.438 335.319 163.902 335.29 C 172.158 335.416 172.158 335.416 180.581 335.544 C 186.085 335.46 191.589 335.376 197.259 335.29 C 236.702 335.498 236.702 335.498 255.736 347.131 C 264.62 363.063 265.313 376.015 264.211 393.733 C 264.113 396.733 264.015 399.734 263.915 402.825 C 263.661 410.173 263.273 417.516 262.857 424.857 C 253.135 429.718 247.638 429.768 236.875 429.729 C 232.32 429.746 232.32 429.746 227.673 429.763 C 219.554 429.188 219.554 429.188 210.893 424.857 C 210.893 413.425 210.893 401.993 210.893 390.214 C 180.884 388.071 180.884 388.071 150.268 385.884 C 150.268 433.042 150.268 480.199 150.268 528.786 C 170.275 527.357 190.281 525.928 210.893 524.455 C 212.262 494.501 212.262 494.501 196.278 475.198 C 193.565 472.306 190.852 469.414 188.057 466.435 C 180.918 459.163 180.918 459.163 171.92 455.17 C 171.92 450.883 171.92 446.596 171.92 442.179 C 186.264 442.054 200.608 441.976 214.953 441.908 C 219.047 441.872 223.142 441.835 227.36 441.798 C 233.201 441.777 233.201 441.777 239.159 441.756 C 244.567 441.722 244.567 441.722 250.085 441.687 C 258.527 442.179 258.527 442.179 262.857 446.509 C 264.321 464.877 264.265 483.302 264.481 501.721 C 264.724 509.474 264.724 509.474 264.972 517.385 C 265.184 538.455 265.244 554.337 255.719 573.341 C 231.587 585.66 207.242 583.862 180.581 583.456 C 172.325 583.582 172.325 583.582 163.902 583.71 C 155.948 583.668 155.948 583.668 147.832 583.625 C 143.004 583.601 138.175 583.577 133.201 583.551 C 114.864 579.673 108.946 574.554 98.304 559.098 C 95.188 544.099 95.268 529.448 95.428 514.171 C 95.408 509.831 95.387 505.492 95.366 501.021 C 95.351 491.863 95.391 482.706 95.481 473.548 C 95.597 459.546 95.482 445.558 95.344 431.556 C 95.358 422.647 95.386 413.738 95.428 404.829 C 95.385 400.652 95.341 396.474 95.296 392.17 C 95.634 372.774 96.347 362.744 107.567 346.448 C 122.229 336.746 130.352 335.463 147.832 335.375 Z " fill="rgb(214,213,201)"/><path d=" M 899.419 335.544 C 904.923 335.46 910.427 335.376 916.098 335.29 C 955.675 335.498 955.675 335.498 974.575 347.401 C 983.262 362.651 983.93 371.958 983.049 389.402 C 982.854 394.432 982.658 399.461 982.457 404.643 C 982.08 410.362 982.08 410.362 981.696 416.196 C 964.548 416.196 947.4 416.196 929.732 416.196 C 929.732 406.193 929.732 396.19 929.732 385.884 C 909.725 385.884 889.719 385.884 869.107 385.884 C 870.487 410.487 870.487 410.487 880.603 418.516 C 883.653 420.084 886.703 421.652 889.845 423.267 C 893.211 425.059 896.577 426.851 900.045 428.697 C 903.59 430.467 907.134 432.236 910.786 434.059 C 917.7 437.678 924.612 441.298 931.525 444.919 C 934.864 446.628 938.204 448.338 941.644 450.099 C 955.233 457.174 968.456 464.788 981.696 472.491 C 982.327 486.472 982.71 500.45 983.049 514.441 C 983.231 518.391 983.412 522.34 983.599 526.409 C 983.93 544.619 983.197 556.264 974.575 572.546 C 950.665 586.045 926.364 583.866 899.419 583.456 C 891.163 583.582 891.163 583.582 882.741 583.71 C 843.164 583.502 843.164 583.502 824.264 571.599 C 815.576 556.349 814.908 547.042 815.789 529.598 C 815.985 524.568 816.18 519.539 816.381 514.357 C 816.758 508.638 816.758 508.638 817.143 502.804 C 834.291 502.804 851.439 502.804 869.107 502.804 C 869.107 511.378 869.107 519.952 869.107 528.786 C 889.113 527.357 909.119 525.928 929.732 524.455 C 927.414 506.732 927.414 506.732 914.972 500.51 C 910.459 498.404 905.946 496.297 901.297 494.126 C 823.73 455.126 823.73 455.126 811.685 431.452 C 804.992 401.509 809.449 373.219 824.687 346.843 C 848.127 332.565 872.56 335.135 899.419 335.544 Z " fill="rgb(214,213,201)"/><path d=" M 24.688 264.634 C 70.417 264.634 116.145 264.634 163.259 264.634 C 163.259 280.353 163.259 296.072 163.259 312.268 C 133.25 312.268 103.241 312.268 72.322 312.268 C 72.322 409.441 72.322 506.614 72.322 606.732 C 102.331 606.732 132.341 606.732 163.259 606.732 C 163.259 622.451 163.259 638.17 163.259 654.366 C 117.531 654.366 71.802 654.366 24.688 654.366 C 24.688 525.754 24.688 397.143 24.688 264.634 Z " fill="rgb(214,213,201)"/><path d=" M 921.071 264.634 C 965.371 264.634 1009.67 264.634 1055.312 264.634 C 1055.312 393.246 1055.312 521.857 1055.312 654.366 C 1011.012 654.366 966.713 654.366 921.071 654.366 C 921.071 638.647 921.071 622.928 921.071 606.732 C 949.651 606.732 978.232 606.732 1007.678 606.732 C 1007.678 509.559 1007.678 412.386 1007.678 312.268 C 979.098 312.268 950.517 312.268 921.071 312.268 C 921.071 296.549 921.071 280.83 921.071 264.634 Z " fill="rgb(214,213,201)"/><path d=" M 674.241 338.25 C 691.389 338.25 708.537 338.25 726.205 338.25 C 726.205 401.127 726.205 464.004 726.205 528.786 C 750.498 528.786 774.792 528.786 799.821 528.786 C 799.821 545.934 799.821 563.082 799.821 580.75 C 782.946 581.334 766.091 581.764 749.21 582.103 C 742.047 582.375 742.047 582.375 734.739 582.653 C 727.81 582.758 727.81 582.758 720.741 582.864 C 716.501 582.978 712.26 583.091 707.891 583.208 C 690.013 579.545 684.521 574.231 674.241 559.098 C 671.292 542.256 671.723 525.726 672.126 508.673 C 672.157 503.802 672.188 498.931 672.219 493.912 C 672.34 478.378 672.612 462.852 672.888 447.321 C 672.996 436.78 673.095 426.239 673.184 415.697 C 673.422 389.879 673.796 364.066 674.241 338.25 Z " fill="rgb(214,213,201)"/></g></g></svg>