<?xml version="1.0" encoding="UTF-8" standalone="no"?><!-- Generator: Gravit.io --><svg xmlns="http://www.w3.org/2000/svg" xmlns:xlink="http://www.w3.org/1999/xlink" style="isolation:isolate" viewBox="0 0 639 200" width="639pt" height="200pt"><defs><clipPath id="_clipPath_Ite081TKT1BUI5GUiYA8VcmyKm7VwqRn"><rect width="639" height="200"/></clipPath></defs><g clip-path="url(#_clipPath_Ite081TKT1BUI5GUiYA8VcmyKm7VwqRn)"><g><path d=" M 169.173 46.985 C 187.079 38.344 205.595 36.368 224.33 43.414 C 231.172 45.988 237.218 50.678 243.873 54.546 C 263.642 35.209 305.435 33.049 327.555 54.47 C 334.767 46.374 343.72 41.199 354.561 39.945 C 359.155 39.413 363.863 39.54 368.498 39.779 C 375.111 40.119 381.701 41.271 388.306 41.318 C 414.47 41.503 440.636 41.337 466.8 41.524 C 468.515 41.536 472.433 39.079 472.091 44.099 C 473.5 43.918 475.006 43.997 476.304 43.515 C 490.357 38.301 504.675 38.052 519.055 41.555 C 537.661 46.088 549.227 60.496 549.912 79.656 C 550.131 85.795 549.946 91.949 549.946 98.346 C 547.813 98.592 546.08 98.791 545.23 98.889 C 545.619 107.041 547.166 115.041 546.139 122.696 C 543.447 142.755 529.082 156.304 508.86 159.411 C 495.138 161.52 481.663 160.865 468.756 157.02 C 466.774 157.585 464.793 158.638 462.81 158.641 C 431.48 158.699 400.15 158.617 368.82 158.59 C 366.997 158.589 365.137 158.587 363.356 158.917 C 343.688 162.563 333.926 159.932 319.153 146.763 C 307.022 156.788 292.863 160.843 277.194 160.625 C 261.561 160.407 247.766 155.817 236.553 144.658 C 214.747 163.225 190.627 164.345 166.196 155.531 C 163.797 156.841 162.088 158.579 160.366 158.593 C 137.369 158.772 114.37 158.712 91.371 158.695 C 90.736 158.694 90.102 158.507 88.981 158.33 C 95.179 119.446 101.352 80.725 107.564 41.756 C 127.875 41.756 147.956 41.756 168.393 41.756 C 168.393 42.898 168.393 44.128 168.245 45.905 C 168.455 46.629 168.814 46.807 169.173 46.985 Z  M 326.538 123.858 C 327.87 133.263 332.731 140.089 341.884 142.939 C 353.758 146.636 364.126 144.003 372.517 133.069 C 372.517 136.811 372.517 139.503 372.517 142.287 C 382 142.287 391.26 142.287 400.681 142.287 C 405.137 114.01 409.556 85.977 414.014 57.689 C 412.396 57.593 411.418 57.487 410.438 57.486 C 402.284 57.472 394.129 57.478 385.636 57.478 C 384.995 60.796 384.39 63.928 383.702 67.489 C 377.903 59.919 375.021 57.717 369.403 56.339 C 354.542 52.691 340.217 58.953 334.398 73.198 C 327.932 89.029 325.414 105.817 326.538 123.858 Z  M 177.76 60.841 C 173.086 65.452 166.995 69.299 164.019 74.824 C 156.773 88.277 154.994 103.346 156.317 118.418 C 157.324 129.891 164.673 137.324 175.244 141.447 C 184.661 145.121 194.41 145.412 204.222 143.494 C 219.442 140.518 229.988 131.947 233.796 116.664 C 236.037 107.668 237.715 98.403 238.37 89.169 C 239.512 73.057 231.03 61.672 215.419 57.331 C 202.773 53.814 190.388 55.112 177.76 60.841 Z  M 264.827 59.855 C 254.686 64.622 248.007 72.572 245.5 83.3 C 243.276 92.815 241.586 102.587 241.018 112.324 C 240.197 126.397 247.909 136.989 261.246 141.699 C 273.322 145.964 285.547 145.666 297.443 141.157 C 311.518 135.823 321.289 120.771 320.476 106.534 C 311.233 106.534 301.989 106.534 292.697 106.534 C 292.158 108.732 291.805 110.705 291.177 112.587 C 290.549 114.467 289.835 116.367 288.83 118.063 C 286.298 122.337 281.335 124.151 276.291 122.927 C 271.082 121.664 269.347 117.741 269.705 113.121 C 270.282 105.674 271.336 98.249 272.551 90.874 C 273.051 87.834 274.066 84.704 275.594 82.045 C 278.302 77.333 283.722 75.668 289.09 77.259 C 294.305 78.804 294.966 83.055 295.161 87.544 C 295.245 89.487 295.175 91.438 295.175 93.556 C 304.498 93.556 313.725 93.556 322.879 93.556 C 325.891 79.097 319.907 66 307.226 59.875 C 293.466 53.228 279.47 54.44 264.827 59.855 Z  M 496.895 112.597 C 499.89 114.133 503.397 115.617 502.508 119.753 C 502.085 121.723 500.401 124.106 498.634 124.976 C 493.413 127.551 488.304 124.849 486.456 119.292 C 486.048 118.066 484.989 116.131 484.183 116.107 C 476.105 115.869 468.018 115.962 459.955 115.962 C 460.015 129.448 466.365 138.469 478.424 142.052 C 489.165 145.243 500.115 145.45 510.947 142.363 C 522.512 139.067 529.758 130.149 530.591 118.652 C 531.476 106.438 526.641 98.414 514.945 92.947 C 511.942 91.544 508.77 90.507 505.716 89.208 C 502.358 87.78 498.774 86.637 495.828 84.593 C 494.318 83.546 493.018 80.592 493.389 78.885 C 493.768 77.145 496.091 75.067 497.953 74.554 C 503.542 73.012 506.575 75.371 508.993 82.188 C 517.244 82.188 525.469 82.188 533.676 82.188 C 533.874 69.307 527.691 60.753 515.851 57.444 C 506.706 54.889 497.416 54.691 488.172 56.757 C 475.723 59.539 467.808 68.095 466.493 79.786 C 465.035 92.748 469.552 100.547 482.38 106.653 C 486.868 108.789 491.583 110.446 496.895 112.597 Z  M 453.532 142.004 C 454.954 133.527 456.376 125.049 457.929 115.795 C 453.132 115.795 448.947 115.795 444.4 115.795 C 447.527 95.968 450.537 76.881 453.554 57.75 C 443.713 57.75 434.445 57.75 425 57.75 C 420.486 86.001 416.009 114.014 411.46 142.482 C 425.507 142.482 439.126 142.482 453.532 142.004 Z  M 150.703 137.888 C 151.824 130.742 152.945 123.596 154.163 115.833 C 149.315 115.833 145.242 115.833 140.787 115.833 C 143.883 96.152 146.889 77.04 149.917 57.794 C 140.073 57.794 130.846 57.794 121.371 57.794 C 116.866 86.078 112.404 114.093 107.913 142.289 C 109.333 142.403 110.315 142.549 111.297 142.55 C 123.289 142.565 135.284 142.661 147.27 142.393 C 148.417 142.368 149.512 140.036 150.703 137.888 Z " fill="rgb(214,213,201)"/><path d=" M 169.005 46.79 C 168.814 46.807 168.455 46.629 168.288 46.338 C 168.598 46.348 168.718 46.471 169.005 46.79 Z " fill="rgb(214,213,201)"/><path d=" M 367.006 122.852 C 358.093 123.188 354.2 119.879 354.978 111.478 C 355.786 102.76 357.36 94.048 359.413 85.53 C 361.155 78.298 366.123 75.404 372.671 76.425 C 378.13 77.277 381.19 81.42 380.567 88.834 C 379.917 96.578 378.713 104.321 377.095 111.925 C 376 117.075 373.302 121.556 367.006 122.852 Z " fill="rgb(214,213,201)"/><path d=" M 207.595 105.225 C 206.278 109.738 205.466 114.041 203.636 117.856 C 201.401 122.517 195.869 124.351 190.888 122.912 C 185.836 121.452 184.077 117.571 184.581 112.926 C 185.546 104.046 186.76 95.171 188.41 86.395 C 189.228 82.043 191.926 78.569 196.637 77.283 C 204.615 75.106 210.102 78.873 209.851 87.062 C 209.669 92.991 208.421 98.888 207.595 105.225 Z " fill="rgb(214,213,201)"/></g></g></svg>