<?xml version="1.0" encoding="UTF-8" standalone="no"?><!-- Generator: Gravit.io --><svg xmlns="http://www.w3.org/2000/svg" xmlns:xlink="http://www.w3.org/1999/xlink" style="isolation:isolate" viewBox="0 0 1080 1080" width="1080pt" height="1080pt"><defs><clipPath id="_clipPath_LMbXxLDIYhjVtcxIKh4HxUBnZ97zW65t"><rect width="1080" height="1080"/></clipPath></defs><g clip-path="url(#_clipPath_LMbXxLDIYhjVtcxIKh4HxUBnZ97zW65t)"><g><path d=" M 178.484 124.395 C 417.085 124.395 655.685 124.395 901.516 124.395 C 901.516 237.698 901.516 237.698 898.635 254.982 C 898.475 256.673 898.337 258.366 898.223 260.061 C 898.154 261.031 898.085 262.001 898.014 263 C 897.942 264.038 897.87 265.075 897.795 266.144 C 897.036 276.577 896.027 286.964 894.846 297.357 C 894.096 304.035 893.533 310.699 893.13 317.407 C 892.916 319.804 892.497 321.802 891.914 324.117 C 891.606 326.613 891.325 329.105 891.066 331.607 C 890.021 341.343 888.829 351.058 887.598 360.772 C 887.356 362.692 887.116 364.612 886.878 366.532 C 885.448 378.078 883.812 389.552 881.737 401.002 C 880.645 407.024 879.722 413.054 878.891 419.117 C 877.448 429.496 875.665 439.744 873.284 449.952 C 871.678 456.854 870.233 463.785 868.809 470.727 C 868.441 472.514 868.441 472.514 868.065 474.338 C 867.824 475.507 867.583 476.676 867.335 477.88 C 866.988 479.567 866.988 479.567 866.633 481.287 C 866.228 483.288 865.833 485.291 865.453 487.297 C 864.674 491.402 863.716 494.995 862.148 498.873 C 861.305 502.216 860.594 505.586 859.867 508.955 C 858.319 515.953 856.631 522.814 854.421 529.637 C 853.465 532.609 852.608 535.596 851.766 538.602 C 844.961 562.522 837.12 586.091 828.841 609.537 C 828.521 610.446 828.521 610.446 828.194 611.375 C 824.03 623.194 819.555 634.851 814.28 646.223 C 813.2 648.614 812.216 651.024 811.257 653.466 C 809.562 657.782 807.68 661.992 805.732 666.2 C 804.851 668.137 803.999 670.087 803.163 672.044 C 796.208 688.219 788.159 703.947 779.154 719.075 C 777.686 721.579 776.311 724.117 774.949 726.681 C 772.14 731.893 769 736.865 765.834 741.864 C 762.495 747.163 759.421 752.572 756.526 758.128 C 755.892 758.128 755.258 758.128 754.605 758.128 C 754.493 758.696 754.38 759.264 754.264 759.85 C 753.616 762.068 752.826 763.332 751.424 765.149 C 748.137 769.577 745.471 774.277 743.083 779.252 C 742.449 779.252 741.815 779.252 741.162 779.252 C 740.942 779.91 740.722 780.567 740.495 781.244 C 738.949 784.711 736.833 787.583 734.561 790.595 C 734.096 791.219 733.632 791.843 733.153 792.487 C 731.667 794.48 730.173 796.468 728.68 798.456 C 727.705 799.763 726.731 801.069 725.758 802.376 C 722.905 806.201 720.034 810.012 717.157 813.82 C 716.482 814.717 716.482 814.717 715.793 815.632 C 714.511 817.331 713.225 819.027 711.936 820.721 C 711.205 821.685 710.473 822.649 709.719 823.643 C 707.545 826.315 705.209 828.69 702.754 831.103 C 702.22 831.836 701.685 832.569 701.134 833.324 C 700.51 834.126 700.51 834.126 699.874 834.944 C 699.24 834.944 698.606 834.944 697.953 834.944 C 697.735 835.479 697.518 836.014 697.293 836.564 C 695.688 839.393 693.553 841.323 691.232 843.586 C 690.598 844.536 689.964 845.487 689.311 846.466 C 688.678 846.466 688.044 846.466 687.391 846.466 C 687.155 847.015 686.918 847.564 686.675 848.129 C 685.269 850.672 683.623 852.388 681.562 854.437 C 680.78 855.217 679.998 855.998 679.192 856.802 C 678.372 857.609 677.553 858.417 676.709 859.249 C 675.912 860.046 675.114 860.842 674.293 861.663 C 661.173 874.691 661.173 874.691 655.704 877.193 C 655.704 877.827 655.704 878.46 655.704 879.113 C 655.071 879.113 654.437 879.113 653.784 879.113 C 653.784 879.747 653.784 880.381 653.784 881.034 C 649.491 884.875 649.491 884.875 647.063 884.875 C 647.063 885.508 647.063 886.142 647.063 886.795 C 645.117 888.475 643.165 890.043 641.121 891.596 C 640.51 892.068 639.898 892.539 639.267 893.025 C 637.998 894.003 636.727 894.979 635.454 895.952 C 633.814 897.209 632.182 898.476 630.555 899.75 C 556.931 957.108 556.931 957.108 537.599 954.969 C 534.274 953.566 531.186 951.783 528.057 949.988 C 527.142 949.475 526.226 948.962 525.283 948.433 C 523.34 947.342 521.4 946.245 519.463 945.144 C 516.478 943.448 513.481 941.774 510.481 940.105 C 508.538 939.019 506.595 937.933 504.653 936.845 C 503.755 936.344 502.857 935.842 501.932 935.326 C 496.364 932.181 491.029 928.806 485.749 925.203 C 484.576 924.426 483.402 923.65 482.227 922.878 C 474.528 917.792 466.961 912.556 459.49 907.142 C 457.906 906.002 456.312 904.877 454.715 903.756 C 453.263 902.727 453.263 902.727 451.781 901.678 C 450.922 901.074 450.063 900.47 449.178 899.848 C 448.572 899.343 447.965 898.838 447.341 898.317 C 447.341 897.684 447.341 897.05 447.341 896.397 C 446.845 896.179 446.35 895.961 445.84 895.737 C 442.64 894.014 439.518 892.076 436.778 889.676 C 436.778 889.042 436.778 888.408 436.778 887.755 C 435.974 887.41 435.974 887.41 435.154 887.058 C 432.455 885.569 430.455 883.729 428.196 881.634 C 425.728 879.352 423.298 877.164 420.631 875.115 C 419.593 874.242 419.593 874.242 418.534 873.352 C 418.534 872.718 418.534 872.085 418.534 871.432 C 418.024 871.234 417.515 871.036 416.989 870.832 C 413.726 868.955 411.323 866.418 408.692 863.75 C 408.16 863.225 407.628 862.7 407.08 862.16 C 403.171 858.232 403.171 858.232 403.171 856.069 C 402.221 855.752 401.27 855.435 400.291 855.108 C 400.291 854.475 400.291 853.841 400.291 853.188 C 399.657 853.188 399.023 853.188 398.37 853.188 C 398.37 852.554 398.37 851.92 398.37 851.267 C 397.736 851.267 397.103 851.267 396.45 851.267 C 394.792 849.655 394.792 849.655 392.969 847.547 C 392.363 846.856 391.756 846.165 391.131 845.454 C 389.728 843.586 389.728 843.586 389.728 841.665 C 388.778 841.349 387.827 841.032 386.848 840.705 C 385.467 839.178 384.156 837.586 382.887 835.964 C 379.982 832.321 377.031 828.78 373.885 825.342 C 346.519 795.259 346.519 795.259 346.519 788.854 C 345.886 788.854 345.252 788.854 344.599 788.854 C 342.297 785.785 340.389 783.092 339.798 779.252 C 339.164 779.252 338.53 779.252 337.877 779.252 C 336.523 777.381 336.523 777.381 334.937 774.751 C 331.654 769.429 328.152 764.325 324.543 759.223 C 322.785 756.61 321.187 753.961 319.649 751.213 C 317.969 748.238 316.181 745.328 314.413 742.405 C 311.687 737.881 309.012 733.345 306.483 728.707 C 305.171 726.334 303.816 723.989 302.457 721.643 C 299.2 716.007 296.148 710.324 293.288 704.473 C 291.895 701.69 290.434 698.958 288.944 696.226 C 285.497 689.895 282.469 683.512 279.699 676.848 C 278.457 673.896 277.134 671.004 275.764 668.109 C 269.092 653.76 262.954 639.118 257.532 624.251 C 256.445 621.317 255.298 618.416 254.111 615.521 C 250.869 607.611 248.141 599.578 245.499 591.45 C 244.721 589.082 243.922 586.721 243.118 584.361 C 239.682 574.261 236.522 564.112 233.596 553.852 C 232.4 549.662 231.177 545.499 229.772 541.374 C 228.515 537.67 227.524 533.946 226.614 530.14 C 225.464 525.394 224.24 520.685 222.886 515.994 C 219.666 504.811 217.219 493.475 214.755 482.106 C 214.021 478.753 213.265 475.405 212.5 472.059 C 209.74 459.943 207.283 447.836 205.242 435.579 C 204.561 431.506 203.765 427.477 202.909 423.437 C 201.494 416.572 200.574 409.663 199.665 402.715 C 198.968 397.408 198.141 392.162 197.114 386.909 C 196.521 383.38 196.258 379.834 196.004 376.268 C 195.832 373.897 195.832 373.897 194.807 371.166 C 194.557 369.403 194.344 367.634 194.151 365.863 C 194.033 364.802 193.915 363.741 193.793 362.648 C 193.612 360.983 193.612 360.983 193.427 359.284 C 192.724 352.835 191.987 346.414 190.955 340.009 C 189.897 333.313 189.274 326.606 188.686 319.856 C 187.955 311.616 187.199 303.386 186.222 295.172 C 179.557 238.529 178.484 181.361 178.484 124.395 Z " fill="rgb(214,213,201)"/><path d=" M 205.37 302.032 C 426.543 302.032 647.715 302.032 875.591 302.032 C 873.67 326.997 873.67 326.997 872.71 330.838 C 872.424 333.498 872.169 336.155 871.93 338.82 C 869.673 362.277 866.132 385.478 862.15 408.692 C 861.387 413.153 860.675 417.618 860.005 422.094 C 857.49 438.899 853.634 455.47 849.718 471.995 C 848.401 477.593 847.248 483.186 846.251 488.849 C 845.717 491.78 845.052 494.664 844.324 497.553 C 844.085 498.516 843.846 499.479 843.6 500.471 C 842.944 502.714 842.944 502.714 841.984 503.674 C 840.656 503.767 839.323 503.794 837.992 503.794 C 837.124 503.796 836.256 503.798 835.362 503.8 C 834.395 503.798 833.429 503.795 832.433 503.793 C 830.902 503.794 830.902 503.794 829.34 503.796 C 825.873 503.798 822.406 503.794 818.939 503.79 C 816.447 503.79 813.955 503.791 811.463 503.792 C 806.021 503.794 800.579 503.793 795.137 503.789 C 787.045 503.783 778.953 503.783 770.86 503.784 C 757.25 503.785 743.64 503.782 730.03 503.776 C 716.547 503.77 703.065 503.767 689.583 503.765 C 688.327 503.765 688.327 503.765 687.046 503.765 C 682.794 503.765 678.542 503.765 674.291 503.764 C 644.15 503.762 614.009 503.756 583.869 503.747 C 554.581 503.738 525.294 503.731 496.006 503.727 C 495.104 503.727 494.202 503.727 493.272 503.727 C 484.212 503.725 475.152 503.724 466.091 503.723 C 447.633 503.721 429.175 503.718 410.717 503.715 C 409.868 503.715 409.019 503.715 408.145 503.715 C 351.435 503.706 294.726 503.691 238.016 503.674 C 237.857 502.925 237.698 502.176 237.533 501.404 C 236.795 497.94 236.056 494.476 235.316 491.012 C 235.065 489.834 234.815 488.656 234.556 487.443 C 233.095 480.604 231.582 473.78 229.994 466.97 C 227.276 455.272 225.014 443.507 223.032 431.663 C 222.885 430.788 222.738 429.913 222.586 429.011 C 222.459 428.247 222.333 427.483 222.203 426.696 C 221.776 424.42 221.284 422.181 220.763 419.926 C 219.727 415.31 219.03 410.682 218.392 405.996 C 218.271 405.126 218.15 404.256 218.025 403.359 C 217.771 401.537 217.519 399.715 217.268 397.892 C 216.906 395.27 216.538 392.648 216.168 390.026 C 214.468 377.981 212.796 365.933 211.131 353.883 C 210.967 352.7 210.803 351.516 210.634 350.297 C 205.37 312.034 205.37 312.034 205.37 302.032 Z " fill="rgb(10,16,13)"/><path d=" M 196.728 141.678 C 423.604 141.678 650.481 141.678 884.232 141.678 C 884.232 191.908 884.232 191.908 883.009 216.613 C 882.877 219.342 882.757 222.07 882.636 224.799 C 882.058 237.808 881.412 250.782 879.849 263.718 C 879.258 269.017 878.975 274.316 878.708 279.64 C 878.471 282.828 878.471 282.828 877.511 287.629 C 655.387 287.629 433.264 287.629 204.409 287.629 C 203.138 280.636 202.128 274.131 201.739 267.108 C 201.683 266.195 201.627 265.282 201.569 264.341 C 201.39 261.402 201.219 258.462 201.049 255.522 C 200.804 251.424 200.555 247.325 200.306 243.227 C 200.246 242.229 200.186 241.23 200.124 240.202 C 199.744 233.931 199.289 227.673 198.771 221.412 C 197.712 208.447 197.364 195.489 197.088 182.487 C 197.068 181.556 197.048 180.625 197.028 179.666 C 196.972 176.936 196.92 174.205 196.87 171.474 C 196.855 170.693 196.841 169.911 196.825 169.106 C 196.675 159.962 196.728 150.828 196.728 141.678 Z " fill="rgb(10,16,13)"/><path d=" M 242.817 519.038 C 439.275 519.038 635.732 519.038 838.143 519.038 C 836.08 527.289 833.924 535.391 831.481 543.523 C 831.3 544.126 831.119 544.73 830.933 545.352 C 824.357 567.208 817.229 588.974 809.09 610.3 C 808.369 612.196 807.664 614.097 806.962 615.999 C 804.302 623.202 801.538 630.362 798.714 637.503 C 798.411 638.279 798.107 639.055 797.794 639.854 C 797.186 641.38 796.559 642.899 795.914 644.41 C 795.23 646.04 794.6 647.694 794.013 649.362 C 791.494 655.681 791.494 655.681 787.823 657.475 C 784.953 658.211 782.148 658.665 779.21 659.047 C 777.12 659.402 775.031 659.764 772.943 660.131 C 771.933 660.3 770.923 660.468 769.883 660.642 C 753.806 663.552 739.039 671.733 726.759 682.272 C 707.313 697.999 684.428 711.571 658.585 709.158 C 647.896 707.584 639.835 703.706 631.219 697.395 C 602.803 676.873 602.803 676.873 571.207 662.108 C 570.173 661.709 569.139 661.311 568.075 660.9 C 550.227 654.971 528.537 656.782 510.714 662.108 C 509.507 662.467 508.3 662.826 507.057 663.195 C 495.882 666.892 486.16 672.61 476.488 679.212 C 464.246 687.469 451.234 694.697 438.219 701.656 C 437.281 702.16 437.281 702.16 436.325 702.675 C 428.811 706.618 422.598 708.702 414.033 708.557 C 413.189 708.547 412.344 708.537 411.473 708.526 C 392.856 708.074 379.486 699.853 364.962 689.08 C 360.249 685.588 355.367 682.442 350.36 679.391 C 349.289 678.693 349.289 678.693 348.196 677.981 C 341.063 673.443 333.358 670.193 325.605 666.88 C 324.209 666.27 322.823 665.637 321.449 664.98 C 314.318 661.606 306.82 659.837 299.192 657.926 C 298.157 657.652 297.122 657.378 296.056 657.097 C 294.653 656.741 294.653 656.741 293.221 656.378 C 289.717 654.926 288.566 652.873 287.003 649.519 C 286.725 648.788 286.448 648.057 286.162 647.303 C 285.835 646.457 285.509 645.612 285.173 644.74 C 284.645 643.356 284.645 643.356 284.106 641.943 C 283.303 639.906 282.498 637.869 281.691 635.833 C 278.965 628.912 276.251 621.986 273.544 615.058 C 272.985 613.63 272.985 613.63 272.415 612.173 C 267.931 600.681 263.838 589.109 260.015 577.382 C 259.101 574.608 258.162 571.844 257.217 569.081 C 251.589 552.572 247.048 535.96 242.817 519.038 Z " fill="rgb(10,16,13)"/><path d=" M 598.977 735.353 C 609.446 742.885 619.324 749.474 631.699 753.327 C 632.348 753.529 632.997 753.731 633.665 753.939 C 664.538 763.277 695.958 757.764 723.938 742.791 C 725.798 741.805 727.672 740.855 729.554 739.91 C 736.778 736.239 743.187 732.163 749.523 727.101 C 751.725 725.481 751.725 725.481 753.645 725.481 C 753.645 724.847 753.645 724.214 753.645 723.561 C 754.279 723.877 754.912 724.194 755.565 724.521 C 737.033 754.645 717.984 783.699 695.563 811.086 C 694.249 812.692 692.94 814.301 691.633 815.913 C 688.354 819.946 685.056 823.962 681.69 827.923 C 680.904 828.849 680.904 828.849 680.103 829.794 C 678.749 831.103 678.749 831.103 676.829 831.103 C 676.614 831.63 676.399 832.156 676.178 832.698 C 674.527 835.619 672.319 837.808 669.957 840.15 C 669.474 840.635 668.991 841.12 668.494 841.619 C 667.476 842.638 666.456 843.655 665.433 844.669 C 663.865 846.228 662.307 847.796 660.749 849.366 C 659.758 850.355 658.767 851.344 657.775 852.333 C 657.308 852.804 656.841 853.275 656.359 853.76 C 653.045 857.029 653.045 857.029 650.903 857.029 C 650.586 857.979 650.27 858.93 649.943 859.909 C 648.435 861.27 646.863 862.56 645.262 863.81 C 641.446 866.849 637.788 869.965 634.22 873.292 C 629.056 878.032 623.604 882.308 617.996 886.502 C 616.352 887.743 614.728 889.008 613.107 890.279 C 594.913 904.415 575.159 916.87 554.968 927.93 C 553.151 928.939 551.364 929.983 549.583 931.054 C 548.659 931.599 547.734 932.143 546.781 932.705 C 546.05 933.146 545.318 933.588 544.565 934.044 C 540.753 935.385 537.479 934.227 533.895 932.597 C 532.955 932.072 532.015 931.546 531.047 931.006 C 529.46 930.124 529.46 930.124 527.842 929.225 C 526.713 928.585 525.585 927.945 524.457 927.303 C 523.287 926.645 522.118 925.987 520.948 925.329 C 511.247 919.845 501.761 914.072 492.47 907.919 C 491.723 907.427 490.977 906.935 490.208 906.428 C 478.697 898.806 467.72 890.618 456.943 881.994 C 456.413 881.573 455.883 881.152 455.338 880.719 C 449.524 876.094 443.964 871.244 438.507 866.203 C 436.461 864.337 434.393 862.526 432.292 860.723 C 427.307 856.373 422.661 851.693 417.994 847.007 C 417.124 846.14 416.253 845.272 415.356 844.379 C 410.987 840.005 406.746 835.581 402.721 830.888 C 400.556 828.377 398.291 825.967 396.03 823.542 C 392.212 819.405 388.592 815.176 385.122 810.74 C 383.514 808.701 381.886 806.688 380.231 804.686 C 359.306 779.332 338.228 751.147 323.474 721.64 C 328.46 723.21 332.242 726.3 336.377 729.382 C 346.932 737.111 357.331 744.618 369.564 749.486 C 370.421 749.829 371.277 750.172 372.16 750.525 C 397.143 760.054 426.466 760.84 451.181 750.266 C 468.934 742.214 485.772 732.199 501.991 721.427 C 509.477 716.458 516.512 711.943 525.117 709.158 C 526.305 708.742 527.493 708.326 528.718 707.897 C 556.212 701.845 578.153 720.273 598.977 735.353 Z " fill="rgb(10,16,13)"/><path d=" M 548.162 330.838 C 548.795 331.155 549.429 331.472 550.082 331.798 C 549.448 332.749 548.815 333.699 548.162 334.679 C 547.7 338.215 547.77 339.861 549.79 342.844 C 556.955 350.605 568.855 352.922 578.888 354.843 C 580.156 354.843 581.423 354.843 582.729 354.843 C 582.071 354.63 581.413 354.418 580.735 354.199 C 577.717 353.22 574.702 352.231 571.687 351.242 C 570.652 350.908 569.617 350.574 568.551 350.23 C 562.754 348.321 557.377 346.217 552.003 343.321 C 552.003 342.687 552.003 342.053 552.003 341.4 C 553.18 341.822 554.357 342.244 555.57 342.679 C 561.186 344.551 566.908 345.704 572.707 346.861 C 573.767 347.077 574.827 347.293 575.919 347.516 C 578.508 348.043 581.099 348.563 583.689 349.082 C 577.986 347.181 572.282 345.279 566.406 343.321 C 566.406 343.004 566.406 342.687 566.406 342.36 C 571.195 341.419 575.826 341.161 580.689 341.1 C 581.423 341.072 582.157 341.044 582.913 341.016 C 588.423 340.955 592.526 342.174 597.132 345.241 C 599.172 347.462 599.172 347.462 600.973 350.042 C 601.895 351.236 602.837 352.416 603.793 353.583 C 604.238 354.141 604.682 354.699 605.14 355.274 C 609.211 359.078 614.046 359.051 619.317 358.961 C 626.843 358.403 634.266 357.026 641.707 355.809 C 657.123 353.324 672.357 351.274 687.991 351.302 C 688.657 351.298 689.323 351.293 690.009 351.289 C 703.552 351.253 717.149 353.918 727.599 363.005 C 731.474 367.563 733.163 370.695 732.903 376.729 C 732.254 380.323 730.512 382.447 727.719 384.609 C 715.472 392.468 701.092 393.321 686.971 393.791 C 685.811 393.833 684.65 393.874 683.455 393.917 C 680.606 394.018 677.757 394.116 674.908 394.211 C 696.741 408.061 696.741 408.061 721.958 410.535 C 727.335 408.735 731.248 406.652 734.441 401.893 C 737.322 402.853 737.322 402.853 739.242 405.734 C 738.731 411.556 738.731 411.556 737.322 414.376 C 740.386 412.056 742.84 409.882 745.003 406.694 C 746.744 409.767 747.425 412.583 748.004 416.056 C 748.165 417.002 748.326 417.947 748.491 418.922 C 748.608 419.639 748.724 420.357 748.844 421.097 C 750.27 418.72 750.27 418.72 751.725 416.296 C 752.358 416.613 752.992 416.93 753.645 417.256 C 754.579 426.04 752.303 431.804 747.884 439.341 C 750.519 436.781 752.973 434.232 755.265 431.359 C 755.998 430.508 756.731 429.656 757.486 428.779 C 758.119 428.779 758.753 428.779 759.406 428.779 C 759.248 429.709 759.089 430.64 758.926 431.599 C 757.598 439.577 757.598 439.577 760.366 446.722 C 761 447.455 761.634 448.188 762.287 448.943 C 762.962 453.575 761.735 455.623 759.406 459.505 C 759.005 462.507 759.005 462.507 759.406 465.266 C 760.04 465.9 760.674 466.534 761.327 467.187 C 761.147 469.587 761.147 469.587 760.366 471.988 C 756.156 474.795 752.898 474.038 747.884 473.908 C 747.884 470.423 747.884 466.937 747.884 463.346 C 746.616 463.346 745.349 463.346 744.043 463.346 C 744.099 463.983 744.154 464.621 744.212 465.278 C 744.566 472.215 744.566 472.215 741.942 475.889 C 739.288 477.717 737.621 478.437 734.441 478.709 C 733.173 476.808 731.906 474.907 730.6 472.948 C 732.501 470.096 732.501 470.096 734.441 467.187 C 733.807 467.187 733.173 467.187 732.521 467.187 C 733.641 464.76 734.73 463.005 736.481 460.945 C 739.152 455.961 739.211 451.6 738.282 446.062 C 736.947 442.949 735.445 440.111 733.687 437.218 C 732.27 433.964 732.607 432.163 733.481 428.779 C 732.372 429.353 731.263 429.927 730.12 430.519 C 717.38 436.087 703.891 435.877 690.272 435.5 C 690.905 436.767 691.539 438.035 692.192 439.341 C 685.734 439.066 680.468 436.258 675.869 431.659 C 675.552 433.56 675.235 435.462 674.908 437.42 C 666.647 438.101 659.986 432.457 653.855 427.44 C 651.539 425.371 649.28 423.27 647.063 421.097 C 645.98 420.08 645.98 420.08 644.876 419.042 C 643.222 417.256 643.222 417.256 643.222 415.336 C 642.357 414.937 642.357 414.937 641.474 414.529 C 639.381 413.415 639.381 413.415 636.62 410.955 C 633.28 408.025 629.713 405.575 625.998 403.153 C 625.448 402.788 624.898 402.423 624.331 402.046 C 617.226 397.489 610.982 395.629 602.533 395.772 C 601.736 395.777 600.938 395.783 600.116 395.789 C 594.305 395.911 589.069 396.689 583.689 399.012 C 584.521 398.854 585.353 398.695 586.21 398.532 C 596.662 397.12 606.586 397.587 616.336 401.893 C 617.323 402.825 618.289 403.782 619.217 404.774 C 618.609 404.772 618.001 404.771 617.375 404.77 C 593.764 404.868 576.936 412.026 555.843 422.057 C 554.126 422.869 552.408 423.68 550.69 424.491 C 547.631 425.938 544.575 427.387 541.519 428.839 C 514.189 441.815 514.189 441.815 500.152 441.261 C 500.152 439.994 500.152 438.726 500.152 437.42 C 499.557 437.341 498.963 437.262 498.351 437.18 C 496.311 436.46 496.311 436.46 495.111 434.48 C 494.754 433.559 494.754 433.559 494.39 432.619 C 495.46 431.669 495.46 431.669 496.551 430.699 C 500.706 426.544 503.264 421.167 503.992 415.336 C 505.577 416.603 507.161 417.871 508.793 419.177 C 513.288 411.731 514.684 404.734 515.515 396.132 C 516.941 397.082 516.941 397.082 518.395 398.052 C 518.395 398.686 518.395 399.32 518.395 399.973 C 519.029 399.973 519.663 399.973 520.316 399.973 C 520.316 396.487 520.316 393.001 520.316 389.41 C 525.781 388.468 531.247 387.529 536.714 386.591 C 538.571 386.273 540.428 385.953 542.285 385.633 C 544.964 385.171 547.643 384.712 550.322 384.253 C 551.144 384.111 551.965 383.969 552.812 383.822 C 560.766 382.464 568.589 381.57 576.653 381.215 C 577.53 381.175 578.407 381.136 579.311 381.096 C 588.85 380.686 598.386 380.414 607.934 380.348 C 609.324 380.338 609.324 380.338 610.741 380.328 C 628.197 380.261 645.228 381.971 662.489 384.48 C 679.271 386.889 695.855 388.382 712.356 383.649 C 713.238 383.419 714.119 383.189 715.027 382.951 C 719.251 381.925 719.251 381.925 722.157 378.961 C 723.325 375.841 723.324 373.505 722.918 370.206 C 717.577 363.028 708.335 360.299 699.874 358.684 C 694.606 358.253 689.372 358.222 684.09 358.264 C 682.996 358.266 682.996 358.266 681.879 358.269 C 667.468 358.324 653.573 360.006 639.381 362.525 C 612.351 367.152 581.572 371.571 557.344 355.443 C 552.404 351.751 547.336 347.741 546.241 341.4 C 546.133 339.923 546.074 338.441 546.061 336.959 C 546.048 336.214 546.034 335.469 546.02 334.701 C 546.241 332.758 546.241 332.758 548.162 330.838 Z " fill="rgb(214,213,201)"/><path d=" M 477.047 323.937 C 477.997 323.925 478.947 323.913 479.925 323.901 C 481.306 323.898 481.306 323.898 482.714 323.895 C 483.55 323.891 484.385 323.887 485.246 323.883 C 487.943 324.143 490.012 324.924 492.47 326.037 C 490.382 328.438 488.888 329.337 485.749 329.878 C 485.749 330.828 485.749 331.779 485.749 332.758 C 486.25 332.481 486.751 332.204 487.268 331.918 C 495.743 327.644 503.715 328.03 512.634 330.838 C 513.594 331.798 513.594 331.798 513.895 334.379 C 513.51 338.45 512.392 340.209 509.754 343.321 C 506.686 345.579 504.056 347.161 500.152 347.161 C 500.152 347.795 500.152 348.429 500.152 349.082 C 501.181 348.923 502.211 348.765 503.272 348.602 C 506.873 348.122 506.873 348.122 510.714 348.122 C 515.331 353.147 517.559 359.645 517.435 366.365 C 516.776 366.019 516.116 365.672 515.436 365.315 C 514.138 364.647 514.138 364.647 512.814 363.965 C 511.957 363.519 511.099 363.074 510.215 362.615 C 507.828 361.371 507.828 361.371 504.953 361.564 C 505.646 361.881 506.339 362.198 507.053 362.525 C 512.107 366.119 514.503 370.934 515.815 376.928 C 516.512 381.135 516.633 385.154 516.475 389.41 C 515.822 388.737 515.168 388.064 514.495 387.37 C 509.458 381.633 509.458 381.633 503.032 378.848 C 503.415 379.255 503.797 379.663 504.191 380.082 C 509.85 386.346 512.041 391.553 511.775 400.029 C 511.725 400.952 511.725 400.952 511.674 401.893 C 509.549 399.107 507.68 396.28 505.913 393.251 C 506.121 394.023 506.121 394.023 506.333 394.811 C 507.742 400.763 507.942 406.367 507.833 412.455 C 506.031 410.237 504.252 408.018 502.59 405.693 C 502.102 405.013 501.614 404.333 501.112 403.633 C 500.656 402.986 500.201 402.339 499.732 401.672 C 498.095 399.819 496.652 399.003 494.39 398.052 C 494.985 398.904 495.579 399.755 496.191 400.633 C 500.102 406.729 501.146 411.995 500.152 419.177 C 498.324 423.626 495.701 427.255 491.51 429.739 C 491.961 426.76 492.653 424.558 493.97 421.817 C 496.168 416.928 496.068 411.725 494.39 406.694 C 493.44 407.169 493.44 407.169 492.47 407.654 C 492.787 408.288 493.104 408.922 493.43 409.575 C 494.008 416.042 492.639 421.117 489.589 426.858 C 488.018 428.58 488.018 428.58 486.709 429.739 C 486.655 428.783 486.655 428.783 486.6 427.807 C 486.154 421.089 486.154 421.089 482.868 415.336 C 481.442 414.86 481.442 414.86 479.987 414.376 C 480.463 415.069 480.938 415.762 481.428 416.476 C 483.043 419.504 483.585 420.63 482.868 423.978 C 479.489 429.461 475.234 432.036 469.425 434.54 C 469.108 433.906 468.791 433.272 468.465 432.619 C 468.762 432.105 469.059 431.59 469.365 431.059 C 470.851 427.738 471.181 424.62 470.385 421.097 C 467.465 417.76 465.831 416.408 461.383 415.996 C 460.552 416.095 459.72 416.194 458.863 416.296 C 461.081 417.247 463.299 418.197 465.584 419.177 C 465.584 419.81 465.584 420.444 465.584 421.097 C 465.025 421.122 464.465 421.146 463.889 421.172 C 455.406 421.759 447.956 424.543 440.079 427.578 C 436.778 428.779 436.778 428.779 433.898 428.779 C 435.284 425.669 437.026 423.383 439.299 420.857 C 439.905 420.179 440.512 419.5 441.137 418.802 C 441.831 418.037 441.831 418.037 442.539 417.256 C 435.916 420.745 432.859 423.911 430.177 430.999 C 428.488 433.532 426.178 433.798 423.335 434.54 C 420.737 430.643 420.782 427.597 421.415 423.017 C 422.469 420.242 423.754 417.917 425.256 415.336 C 420.028 416.286 420.028 416.286 414.694 417.256 C 413.898 412.087 415.643 409.119 418.591 405.077 C 424.18 398.408 429.202 394.743 437.859 393.731 C 440.056 393.54 442.257 393.369 444.46 393.251 C 442.406 391.197 437.397 391.907 434.507 391.794 C 430.986 391.612 428.264 391.32 425.256 389.41 C 428.75 384.964 433.318 383.01 438.699 381.729 C 443.814 381.295 448.941 381.5 454.062 381.729 C 454.062 381.095 454.062 380.461 454.062 379.808 C 453.468 379.511 452.874 379.214 452.262 378.908 C 450.941 378.248 449.621 377.588 448.301 376.928 C 448.301 376.294 448.301 375.66 448.301 375.007 C 449.274 375.11 450.246 375.213 451.249 375.319 C 452.547 375.436 453.844 375.552 455.142 375.667 C 456.1 375.772 456.1 375.772 457.078 375.879 C 461.709 376.265 464.603 375.676 468.465 373.087 C 469.927 371.192 469.927 371.192 470.745 369.066 C 471.202 368.036 471.202 368.036 471.668 366.984 C 471.984 366.203 471.984 366.203 472.306 365.405 C 470.645 365.542 468.985 365.683 467.325 365.825 C 466.4 365.903 465.475 365.981 464.523 366.062 C 461.756 366.303 461.756 366.303 459.163 366.996 C 456.943 367.326 456.943 367.326 454.242 365.465 C 453.549 364.812 452.856 364.158 452.142 363.485 C 454.846 360.781 457.574 361.164 461.203 361.024 C 466.347 360.821 466.347 360.821 471.346 359.644 C 472.394 356.58 472.54 354.511 471.402 351.464 C 468.737 345.901 468.737 345.901 464.624 341.4 C 461.678 340.864 459.76 340.787 457.231 342.514 C 456.681 342.959 456.13 343.403 455.562 343.861 C 452.749 346.074 452.334 346.204 448.481 346.141 C 445.42 345.241 445.42 345.241 443.5 343.321 C 443.8 341.1 443.8 341.1 444.46 338.52 C 444.599 337.668 444.737 336.816 444.88 335.939 C 445.42 333.719 445.42 333.719 447.341 331.798 C 450.495 330.747 452.849 330.742 456.162 330.778 C 457.728 330.791 457.728 330.791 459.324 330.804 C 460.123 330.815 460.921 330.827 461.744 330.838 C 462.694 332.739 463.645 334.64 464.624 336.599 C 467.159 336.599 469.694 336.599 472.306 336.599 C 472.504 335.847 472.702 335.094 472.906 334.319 C 474.226 331.798 474.226 331.798 477.227 330.538 C 478.138 330.32 479.049 330.102 479.987 329.878 C 475.737 328.88 471.548 328.614 467.205 328.377 C 466.494 328.336 465.782 328.295 465.05 328.252 C 463.308 328.151 461.565 328.054 459.823 327.957 C 464.31 322.797 470.712 323.941 477.047 323.937 Z " fill="rgb(214,213,201)"/><path d=" M 302.35 173.365 C 309.955 173.365 317.56 173.365 325.395 173.365 C 329.705 184.14 329.705 184.14 331.456 189.508 C 331.856 190.731 332.256 191.954 332.656 193.177 C 332.872 193.835 333.087 194.494 333.309 195.173 C 334.136 197.669 334.985 200.156 335.837 202.644 C 336.145 203.549 336.453 204.454 336.77 205.386 C 337.38 207.178 337.993 208.969 338.612 210.758 C 338.891 211.582 339.169 212.406 339.457 213.255 C 339.708 213.988 339.959 214.72 340.217 215.476 C 340.758 217.534 340.758 217.534 340.758 221.375 C 341.392 221.375 342.026 221.375 342.678 221.375 C 342.786 220.246 342.894 219.117 343.005 217.954 C 343.501 214.02 344.614 210.663 346.099 206.972 C 349.218 199.035 351.899 190.971 354.557 182.869 C 354.872 181.914 355.186 180.958 355.51 179.974 C 355.79 179.116 356.07 178.259 356.359 177.375 C 357.082 175.285 357.082 175.285 358.042 173.365 C 365.647 173.365 373.251 173.365 381.087 173.365 C 381.205 175.88 381.324 178.395 381.447 180.986 C 381.754 186.943 382.245 192.835 383.007 198.75 C 383.833 205.208 384.263 211.624 384.546 218.127 C 384.82 224.015 385.345 229.855 385.948 235.718 C 386.673 242.819 387.038 249.755 386.848 256.902 C 380.194 256.902 373.539 256.902 366.684 256.902 C 366.105 253.432 365.591 250.249 365.35 246.785 C 365.292 245.978 365.235 245.171 365.175 244.34 C 365.117 243.487 365.059 242.635 364.999 241.757 C 364.937 240.87 364.874 239.983 364.81 239.069 C 364.612 236.252 364.417 233.434 364.223 230.617 C 364.089 228.7 363.954 226.784 363.82 224.867 C 363.491 220.182 363.166 215.498 362.843 210.813 C 362.643 211.384 362.444 211.955 362.238 212.544 C 358.634 222.862 355.01 233.172 351.32 243.46 C 344.983 243.46 338.646 243.46 332.116 243.46 C 330.735 239.639 329.355 235.818 327.975 231.997 C 327.587 230.925 327.199 229.852 326.8 228.747 C 324.652 222.793 322.565 216.828 320.594 210.813 C 320.546 211.629 320.498 212.445 320.448 213.286 C 319.577 227.879 318.686 242.404 316.753 256.902 C 310.099 256.902 303.445 256.902 296.589 256.902 C 296.456 246.499 296.94 236.329 297.849 225.97 C 297.979 224.44 298.108 222.911 298.237 221.381 C 298.572 217.408 298.915 213.435 299.259 209.462 C 299.611 205.387 299.956 201.312 300.302 197.237 C 300.978 189.279 301.662 181.322 302.35 173.365 Z " fill="rgb(214,213,201)"/><path d=" M 455.982 173.365 C 462.637 173.365 469.291 173.365 476.147 173.365 C 476.161 175.017 476.175 176.669 476.189 178.371 C 476.239 183.847 476.301 189.324 476.373 194.801 C 476.416 198.119 476.453 201.437 476.479 204.755 C 476.509 208.576 476.562 212.397 476.615 216.218 C 476.622 217.401 476.628 218.585 476.634 219.804 C 476.737 225.82 476.94 230.518 479.987 235.778 C 483.415 238.615 486.163 239.052 490.55 239.019 C 491.52 239.026 492.49 239.034 493.49 239.041 C 497.48 238.5 499.928 237.044 502.665 234.117 C 504.376 231.307 504.374 229.406 504.408 226.124 C 504.427 224.952 504.446 223.78 504.465 222.572 C 504.471 221.31 504.477 220.049 504.484 218.749 C 504.5 217.442 504.517 216.134 504.536 214.826 C 504.582 211.391 504.61 207.957 504.635 204.522 C 504.664 201.014 504.709 197.506 504.752 193.998 C 504.835 187.12 504.898 180.243 504.953 173.365 C 511.924 173.365 518.895 173.365 526.077 173.365 C 526.121 180.744 526.156 188.123 526.177 195.502 C 526.187 198.929 526.2 202.356 526.222 205.783 C 526.243 209.095 526.254 212.407 526.259 215.719 C 526.265 217.587 526.279 219.455 526.295 221.323 C 526.296 232.657 524.496 241.578 516.689 250.215 C 511.11 255.146 503.774 258.566 496.311 258.823 C 495.313 258.881 494.316 258.939 493.288 258.999 C 482.945 259.369 474.456 257.485 466.335 250.845 C 460.142 244.965 456.437 238.429 455.73 229.823 C 455.65 226.222 455.658 222.632 455.701 219.031 C 455.706 217.708 455.71 216.386 455.713 215.064 C 455.724 211.611 455.752 208.159 455.785 204.707 C 455.814 201.173 455.827 197.639 455.842 194.105 C 455.872 187.191 455.923 180.278 455.982 173.365 Z " fill="rgb(214,213,201)"/><path d=" M 465.584 424.938 C 466.06 425.413 466.06 425.413 466.545 425.898 C 466.251 430.981 465.231 433.708 461.744 437.42 C 469.85 437.39 474.579 435.626 480.948 430.699 C 481.581 430.382 482.215 430.065 482.868 429.739 C 482.868 432.907 482.868 436.076 482.868 439.341 C 484.135 438.707 485.403 438.073 486.709 437.42 C 489.507 436.94 489.507 436.94 492.47 437.42 C 494.488 439.331 495.997 440.99 497.631 443.182 C 498.063 443.731 498.495 444.281 498.94 444.847 C 500 446.2 501.038 447.57 502.072 448.943 C 501.755 449.577 501.438 450.21 501.112 450.863 C 497.928 451.924 495.155 452.132 491.81 452.364 C 490.111 452.484 490.111 452.484 488.378 452.607 C 487.51 452.666 486.643 452.724 485.749 452.784 C 487.333 454.368 488.917 455.952 490.55 457.585 C 487.969 457.611 485.389 457.63 482.808 457.645 C 482.086 457.653 481.364 457.661 480.619 457.669 C 476.14 457.688 471.922 457.37 467.505 456.624 C 467.802 457.219 468.099 457.813 468.405 458.425 C 469.065 459.745 469.725 461.065 470.385 462.386 C 467.559 463.799 465.008 463.472 461.864 463.466 C 460.678 463.468 459.492 463.471 458.27 463.473 C 455.652 463.371 453.667 463.075 451.181 462.386 C 448.941 462.348 446.7 462.343 444.46 462.386 C 445.411 463.039 445.411 463.039 446.38 463.706 C 447.014 464.221 447.648 464.736 448.301 465.266 C 448.301 465.9 448.301 466.534 448.301 467.187 C 442.163 467.489 437.258 466.744 431.385 464.936 C 429.029 464.179 429.029 464.179 426.216 464.306 C 425.899 465.574 425.582 466.841 425.256 468.147 C 424.111 468.113 422.966 468.08 421.786 468.046 C 420.282 468.019 418.778 467.992 417.274 467.967 C 416.52 467.943 415.765 467.919 414.988 467.894 C 414.261 467.884 413.534 467.875 412.784 467.866 C 412.116 467.85 411.447 467.835 410.758 467.82 C 408.398 468.243 407.701 469.348 406.052 471.027 C 403.424 471.289 401.05 471.386 398.43 471.328 C 397.743 471.331 397.055 471.334 396.347 471.337 C 392.725 471.3 389.919 471.12 386.848 469.107 C 387.105 469.642 387.363 470.177 387.628 470.727 C 387.808 472.948 387.808 472.948 385.828 475.528 C 382.707 477.985 381.214 478.874 377.246 478.709 C 373.901 476.107 372.304 474.181 371.485 470.067 C 372.722 469.422 373.963 468.783 375.205 468.147 C 375.896 467.79 376.587 467.434 377.298 467.067 C 379.166 466.226 379.166 466.226 381.087 466.226 C 380.77 465.593 380.453 464.959 380.126 464.306 C 376.156 464.63 373.459 465.059 370.104 467.247 C 366.26 469.624 363.471 469.628 359.002 469.107 C 357.082 467.967 357.082 467.967 356.121 466.226 C 355.881 463.706 355.881 463.706 356.121 461.425 C 357.597 459.95 359.115 460.155 361.166 459.951 C 362.396 459.826 362.396 459.826 363.651 459.698 C 364.944 459.573 364.944 459.573 366.263 459.445 C 367.129 459.358 367.995 459.271 368.887 459.181 C 371.033 458.965 373.179 458.753 375.325 458.545 C 375.325 457.594 375.325 456.644 375.325 455.664 C 373.543 455.902 373.543 455.902 371.725 456.144 C 366.203 456.77 360.71 456.709 355.161 456.624 C 354.57 449.652 354.57 449.652 357.562 446.062 C 358.354 445.429 359.146 444.795 359.962 444.142 C 362.314 445.227 364.291 446.411 366.41 447.923 C 369.682 449.977 372.514 451.03 376.226 452.064 C 377.902 452.546 377.902 452.546 379.613 453.039 C 392.763 455.771 404.895 448.259 416.132 442.191 C 450.916 423.5 450.916 423.5 465.584 424.938 Z " fill="rgb(214,213,201)"/><path d=" M 751.484 172.105 C 752.773 172.113 752.773 172.113 754.087 172.121 C 764.327 172.31 773.04 175.046 781.491 181.046 C 783.014 182.686 783.014 182.686 783.411 184.887 C 782.325 187.569 780.79 189.914 779.21 192.329 C 778.789 192.998 778.369 193.668 777.935 194.358 C 776.894 196.011 775.833 197.652 774.769 199.29 C 774.245 199.024 773.72 198.758 773.179 198.484 C 770.687 197.25 768.174 196.072 765.647 194.909 C 764.746 194.492 763.845 194.075 762.917 193.645 C 757.283 191.268 751.507 190.528 745.569 192.299 C 738.989 195.023 734.318 199.003 731.305 205.535 C 729.19 212.726 729.573 220.15 732.941 226.836 C 733.756 228.219 734.576 229.6 735.401 230.977 C 735.718 231.928 736.035 232.878 736.361 233.858 C 738.04 234.899 738.04 234.899 740.202 235.778 C 740.974 236.293 741.747 236.808 742.543 237.338 C 749.498 240.023 757.338 239.506 764.207 236.738 C 766.747 235.303 769.176 233.746 771.63 232.17 C 773.809 230.977 773.809 230.977 776.69 230.977 C 778.478 233.185 780.084 235.353 781.671 237.698 C 782.116 238.34 782.561 238.981 783.019 239.641 C 784.119 241.228 785.206 242.823 786.292 244.42 C 777.373 253.7 766.198 258.744 753.294 259.277 C 739.909 259.443 729.338 255.158 719.378 246.22 C 709.937 236.341 707.936 223.607 708.219 210.569 C 708.79 198.601 714.198 190.269 722.738 182.247 C 731.177 175.185 740.62 172.034 751.484 172.105 Z " fill="rgb(214,213,201)"/><path d=" M 597.132 173.365 C 613.926 173.365 630.72 173.365 648.023 173.365 C 648.023 179.068 648.023 184.772 648.023 190.649 C 637.883 190.649 627.743 190.649 617.296 190.649 C 617.296 196.669 617.296 202.689 617.296 208.892 C 625.852 208.892 634.407 208.892 643.222 208.892 C 643.222 214.596 643.222 220.3 643.222 226.176 C 634.666 226.176 626.111 226.176 617.296 226.176 C 617.296 236.316 617.296 246.455 617.296 256.902 C 610.642 256.902 603.988 256.902 597.132 256.902 C 597.132 229.335 597.132 201.768 597.132 173.365 Z " fill="rgb(214,213,201)"/><path d=" M 629.779 409.575 C 632.052 410.917 632.052 410.917 633.62 412.455 C 633.62 413.089 633.62 413.723 633.62 414.376 C 633.052 414.494 632.483 414.613 631.898 414.736 C 627.402 415.909 624.634 417 622.037 420.977 C 620.42 423.979 619.636 426.28 620.177 429.739 C 620.672 428.59 621.167 427.442 621.677 426.258 C 623.872 421.915 626.49 418.745 630.739 416.296 C 634.22 415.636 634.22 415.636 637.461 416.296 C 640.281 418.576 640.281 418.576 642.262 421.097 C 642.262 421.731 642.262 422.364 642.262 423.017 C 640.354 424.316 638.433 425.596 636.5 426.858 C 636.183 427.492 635.867 428.126 635.54 428.779 C 634.906 428.779 634.273 428.779 633.62 428.779 C 632.104 432.757 631.065 436.045 631.699 440.301 C 634.945 444.53 638.369 446.175 643.222 447.983 C 643.222 448.616 643.222 449.25 643.222 449.903 C 638.786 451.171 634.349 452.438 629.779 453.744 C 631.68 455.011 633.581 456.279 635.54 457.585 C 635.54 458.218 635.54 458.852 635.54 459.505 C 628.973 462.209 622.311 463.776 615.376 465.266 C 617.594 466.217 619.812 467.167 622.097 468.147 C 616.903 473.341 606.886 472.55 600.013 472.948 C 600.329 474.215 600.646 475.483 600.973 476.789 C 590.501 478.742 590.501 478.742 585.793 476.417 C 584.187 475.222 582.604 473.995 581.045 472.738 C 576.099 468.815 570.514 467.997 564.425 466.827 C 557.654 465.442 554 463.518 549.182 458.545 C 547.872 456.08 547.738 454.576 548.162 451.823 C 549.253 450.248 549.253 450.248 551.042 448.943 C 553.844 448.662 553.844 448.662 556.984 448.763 C 558.027 448.789 559.07 448.815 560.145 448.842 C 561.343 448.892 561.343 448.892 562.565 448.943 C 562.882 449.577 563.198 450.21 563.525 450.863 C 562.891 451.814 562.257 452.764 561.605 453.744 C 561.529 455.983 561.52 458.226 561.605 460.465 C 567.044 464.092 572.501 463.989 578.888 463.346 C 580.893 462.782 582.688 462.071 584.586 461.219 C 587.027 460.292 589.391 459.951 591.971 459.565 C 597.601 458.636 600.763 456.834 604.814 452.784 C 605.181 449.199 604.957 448.197 602.893 445.102 C 602.208 439.278 603.887 435.593 606.734 430.699 C 606.202 431.173 605.67 431.647 605.121 432.136 C 604.426 432.751 603.73 433.366 603.013 434 C 602.323 434.612 601.632 435.225 600.92 435.856 C 599.052 437.42 599.052 437.42 597.132 438.381 C 597.527 433.608 597.896 429.311 600.013 424.938 C 599.062 425.572 598.111 426.205 597.132 426.858 C 596.181 426.541 595.231 426.224 594.251 425.898 C 599.877 420.595 605.875 416.427 612.495 412.455 C 613.426 411.841 614.357 411.227 615.316 410.595 C 619.999 408.97 624.882 408.879 629.779 409.575 Z " fill="rgb(214,213,201)"/><path d=" M 366.684 348.122 C 369.026 349.594 371.225 351.22 373.405 352.923 C 372.123 356.77 370.018 357.491 366.684 359.644 C 365.527 361.957 365.648 363.203 365.843 365.765 C 365.885 366.506 365.928 367.246 365.971 368.008 C 367.813 373.691 375.901 376.873 380.787 379.808 C 381.6 380.308 382.414 380.808 383.253 381.324 C 393.091 387.249 401.995 390.023 413.373 391.571 C 414.521 391.737 415.668 391.903 416.85 392.073 C 419.651 392.477 422.452 392.869 425.256 393.251 C 422.858 395.657 420.456 398.051 417.994 400.393 C 411.355 407.372 409.65 413.433 409.825 422.83 C 409.847 423.525 409.87 424.221 409.893 424.938 C 412.111 423.037 414.329 421.135 416.614 419.177 C 417.873 421.695 417.475 423.239 417.154 426.018 C 417.056 426.892 416.959 427.766 416.858 428.666 C 416.777 429.337 416.697 430.008 416.614 430.699 C 408.325 430.354 403.606 425.649 398.13 419.777 C 392.796 413.521 390.314 408.168 389.728 399.973 C 388.268 402.894 388.409 406.003 388.228 409.214 C 388.166 410.232 388.166 410.232 388.102 411.27 C 388.001 412.945 387.904 414.62 387.808 416.296 C 382.003 414.295 378.861 410.655 375.985 405.314 C 375.082 401.945 374.718 398.642 374.365 395.172 C 374.179 395.693 373.994 396.214 373.803 396.751 C 373.553 397.438 373.302 398.125 373.045 398.832 C 372.677 399.852 372.677 399.852 372.302 400.891 C 371.485 402.853 371.485 402.853 369.564 405.734 C 364.395 399.495 364.395 399.495 362.843 396.132 C 363.572 393.727 364.714 392.35 366.323 390.431 C 368.004 387.91 367.926 386.643 367.644 383.649 C 366.609 381.488 366.609 381.488 365.123 379.388 C 360.274 371.664 354.412 362.323 356.121 352.923 C 359.177 348.135 361.148 346.4 366.684 348.122 Z " fill="rgb(214,213,201)"/><path d=" M 622.097 584.331 C 622.731 584.331 623.365 584.331 624.018 584.331 C 625.199 585.867 626.309 587.457 627.378 589.072 C 629.5 592.558 629.5 592.558 632.659 594.894 C 632.659 595.527 632.659 596.161 632.659 596.814 C 633.187 597.071 633.714 597.329 634.257 597.594 C 637.671 599.329 640.989 601.236 644.324 603.115 C 649.458 605.703 653.561 606.557 659.234 606.535 C 668.97 606.54 668.97 606.54 672.234 608.94 C 673.498 610.965 674.247 612.769 674.908 615.058 C 675.324 616.048 675.74 617.038 676.169 618.058 C 676.871 620.994 676.972 623.572 676.829 626.58 C 662.85 630.104 647.423 627.961 635.06 620.819 C 627.836 616.267 620.162 610.05 617.664 601.51 C 617.462 596.073 619.408 590.389 621.137 585.292 C 621.454 584.975 621.771 584.658 622.097 584.331 Z " fill="rgb(214,213,201)"/><path d=" M 491.51 795.576 C 494.772 796.663 495.076 797.216 496.911 799.957 C 503.574 809.092 511.598 814.114 522.236 817.66 C 523.533 817.714 524.832 817.72 526.13 817.694 C 538.222 817.695 538.222 817.695 541.624 820.121 C 542.894 822.159 543.627 824.007 544.321 826.302 C 544.627 826.989 544.932 827.676 545.247 828.384 C 546.797 831.929 547.426 834.158 546.241 837.825 C 533.885 839.809 522.427 839.708 510.714 834.944 C 509.845 834.596 508.976 834.248 508.081 833.89 C 502.009 831.168 497.712 827.519 493.43 822.461 C 492.84 821.776 492.249 821.09 491.641 820.383 C 488.727 816.592 487.249 813.866 487.609 809.019 C 488.408 804.384 489.826 799.96 491.51 795.576 Z " fill="rgb(214,213,201)"/><path d=" M 687.335 587.193 C 694.995 590.987 699.103 603.602 701.794 611.217 C 702.03 611.874 702.267 612.531 702.51 613.209 C 705.303 622.396 704.285 632.171 700.834 640.983 C 700.574 641.827 700.314 642.672 700.046 643.541 C 698.406 647.919 697.083 650.032 692.867 652.254 C 688.185 654.095 683.81 655.386 678.749 655.386 C 679.323 651.325 680.317 647.722 681.69 643.864 C 685.66 631.232 683.942 620.07 677.999 608.528 C 676.772 606.246 676.772 606.246 674.908 603.535 C 675.179 599.575 676.64 597.325 679.109 594.293 C 679.691 593.568 680.273 592.843 680.872 592.095 C 681.722 591.104 681.722 591.104 682.59 590.093 C 683.058 589.511 683.526 588.929 684.008 588.33 C 685.471 587.212 685.471 587.212 687.335 587.193 Z " fill="rgb(214,213,201)"/><path d=" M 432.761 557.922 C 437.669 557.417 440.967 557.667 444.876 560.765 C 447.797 563.337 450.475 566.099 453.102 568.968 C 452.785 569.919 452.468 570.869 452.142 571.849 C 451.41 571.954 450.678 572.059 449.925 572.168 C 437.352 574.098 425.176 577.648 416.948 588.131 C 414.302 592.141 412.073 596.378 409.893 600.655 C 402.472 600.96 396.508 600.965 389.728 597.774 C 393.682 583.415 402.831 570.713 415.62 563.034 C 421.183 560.016 426.604 559.024 432.761 557.922 Z " fill="rgb(214,213,201)"/><path d=" M 692.35 557.986 C 695.777 557.551 698.431 557.486 701.434 559.4 C 705.104 562.254 708.403 565.414 711.396 568.968 C 711.396 569.919 711.396 570.869 711.396 571.849 C 710.398 572.001 709.401 572.153 708.373 572.31 C 695.108 574.469 683.191 578.756 674.766 589.954 C 672.503 593.45 670.467 596.696 669.147 600.655 C 666.686 600.707 664.227 600.745 661.766 600.775 C 661.073 600.791 660.381 600.807 659.667 600.824 C 655.658 600.86 652.584 600.539 648.983 598.734 C 650.364 587.291 658.587 575.416 667.456 568.173 C 675.418 562.278 682.834 559.909 692.35 557.986 Z " fill="rgb(214,213,201)"/><path d=" M 556.71 798.591 C 563.159 801.234 566.648 811.139 569.245 817.139 C 569.575 817.945 569.906 818.751 570.246 819.581 C 570.594 820.414 570.942 821.247 571.3 822.105 C 574.918 831.612 573.983 843.587 570.145 852.877 C 567.532 858.433 565.626 861.561 559.77 863.911 C 558.772 864.234 557.773 864.558 556.744 864.89 C 555.242 865.386 555.242 865.386 553.709 865.892 C 551.042 866.631 551.042 866.631 548.162 866.631 C 548.727 863.258 549.68 860.543 551.102 857.449 C 554.719 847.636 554.715 835.164 550.802 825.462 C 549.36 822.536 547.758 819.844 545.881 817.18 C 544.321 814.78 544.321 814.78 544.535 812.979 C 546.151 808.561 551.429 798.201 556.71 798.591 Z " fill="rgb(214,213,201)"/><path d=" M 561.098 769.185 C 565.716 768.712 568.827 769.053 572.534 771.905 C 575.534 774.493 578.278 777.16 580.809 780.213 C 580.809 781.163 580.809 782.114 580.809 783.093 C 579.833 783.234 578.858 783.375 577.853 783.521 C 565.944 785.398 556.006 788.887 547.202 797.496 C 546.885 798.13 546.568 798.764 546.241 799.417 C 545.608 799.417 544.974 799.417 544.321 799.417 C 544.083 800.05 543.846 800.684 543.601 801.337 C 542.095 804.951 540.341 808.415 538.56 811.899 C 524.367 812.254 524.367 812.254 518.395 809.979 C 519.144 800.501 525.053 793.057 530.878 785.974 C 531.452 785.142 532.027 784.31 532.618 783.453 C 540.324 775.087 550.22 771.316 561.098 769.185 Z " fill="rgb(214,213,201)"/><path d=" M 427.176 586.252 C 433.996 588.854 437.806 598.092 440.769 604.439 C 445.483 615.939 446.644 628.581 442.179 640.323 C 441.375 642.16 440.539 643.983 439.659 645.784 C 439.414 646.476 439.169 647.168 438.916 647.881 C 437.087 650.59 434.756 651.149 431.737 652.266 C 430.663 652.677 429.588 653.087 428.482 653.511 C 425.306 654.412 422.774 654.605 419.495 654.426 C 419.998 651.91 420.771 649.884 421.835 647.525 C 426.567 636.575 426.418 625.457 422.653 614.229 C 420.796 609.711 418.388 605.653 415.654 601.615 C 418.679 595.468 422.071 590.828 427.176 586.252 Z " fill="rgb(214,213,201)"/><path d=" M 362.843 584.331 C 363.793 584.331 364.744 584.331 365.723 584.331 C 366.927 585.708 366.927 585.708 368.184 587.632 C 375.076 597.237 383.586 603.318 395.062 606.082 C 399.513 606.715 404.066 606.653 408.557 606.671 C 411.813 607.376 411.813 607.376 414.064 609.99 C 415.44 612.715 416.516 615.187 417.334 618.118 C 417.567 618.924 417.8 619.73 418.039 620.56 C 418.534 622.739 418.534 622.739 418.534 625.62 C 405.806 629.24 389.266 627.501 377.628 621.438 C 372.711 618.37 368.61 614.569 364.763 610.257 C 364.193 609.653 363.622 609.049 363.034 608.426 C 360.855 605.902 359.156 603.881 358.758 600.505 C 359.236 594.967 361.099 589.584 362.843 584.331 Z " fill="rgb(214,213,201)"/><path d=" M 673.888 550.544 C 675.148 550.564 675.148 550.564 676.433 550.584 C 678.486 550.617 680.538 550.669 682.59 550.724 C 682.59 551.992 682.59 553.259 682.59 554.565 C 681.847 554.845 681.105 555.125 680.34 555.413 C 674.594 557.674 669.697 559.975 664.943 563.942 C 663.386 565.127 663.386 565.127 660.505 566.087 C 660.505 566.721 660.505 567.355 660.505 568.008 C 658.912 569.615 657.31 571.214 655.704 572.809 C 650.76 579.429 646.672 586.435 643.222 593.933 C 639.019 593.096 636.719 591.137 633.62 588.172 C 632.22 585.569 631.518 584.157 632.191 581.241 C 638.707 568.597 649.042 556.772 662.427 551.264 C 666.192 550.205 670.01 550.429 673.888 550.544 Z " fill="rgb(214,213,201)"/><path d=" M 489.589 829.183 C 492.971 829.758 494.752 831.047 497.331 833.264 C 508.768 842.395 521.123 843.806 535.319 844.186 C 537.04 844.242 537.04 844.242 538.796 844.299 C 541.598 844.388 544.399 844.471 547.202 844.546 C 546.725 849.982 545.718 854.03 543.361 858.949 C 523.635 859.501 523.635 859.501 514.555 856.069 C 513.719 855.779 512.884 855.489 512.023 855.191 C 501.923 851.477 496.394 846.455 491.472 836.834 C 490.248 834.134 489.589 832.173 489.589 829.183 Z " fill="rgb(214,213,201)"/><path d=" M 576.968 789.815 C 584.333 796.985 589.327 810.476 589.773 820.537 C 589.796 822.279 589.808 824.02 589.81 825.762 C 589.834 826.629 589.858 827.496 589.882 828.39 C 589.908 834.403 588.756 838.484 585.61 843.586 C 584.659 845.22 584.659 845.22 583.689 846.887 C 581.614 849.545 581.064 849.739 577.928 850.307 C 577.943 849.728 577.958 849.148 577.974 848.551 C 578.4 829.682 576.123 814.144 564.718 798.595 C 562.565 795.576 562.565 795.576 562.565 793.655 C 564.061 793.005 565.562 792.367 567.066 791.735 C 567.901 791.378 568.737 791.022 569.597 790.655 C 572.316 789.766 574.138 789.378 576.968 789.815 Z " fill="rgb(214,213,201)"/><path d=" M 361.883 617.938 C 365.261 618.512 367.004 619.788 369.564 622.019 C 383.86 633.395 401.216 632.661 418.534 632.341 C 418.687 638.053 417.965 641.589 415.654 646.744 C 406.827 651.158 392.766 646.744 383.967 643.864 C 374.058 639.916 367.451 634.39 362.843 624.66 C 362.207 622.315 361.989 620.38 361.883 617.938 Z " fill="rgb(214,213,201)"/><path d=" M 424.296 550.724 C 424.296 551.675 424.296 552.625 424.296 553.605 C 423.609 553.84 422.922 554.075 422.214 554.318 C 402.786 561.606 392.955 576.006 383.967 593.933 C 381.039 592.609 378.813 591.087 376.466 588.892 C 375.865 588.353 375.265 587.813 374.646 587.257 C 373.405 585.292 373.405 585.292 373.506 582.508 C 376.984 570.45 387.926 559.457 398.607 553.327 C 406.905 549.094 415.195 548.702 424.296 550.724 Z " fill="rgb(214,213,201)"/><path d=" M 707.555 578.57 C 717.955 591.347 721.16 606.625 720.038 622.739 C 718.55 629.236 715.104 635.248 710.436 640.023 C 709.802 640.023 709.168 640.023 708.515 640.023 C 708.531 639.414 708.546 638.806 708.561 638.179 C 708.952 620.027 707.866 602.261 695.305 587.895 C 693.152 585.292 693.152 585.292 693.152 582.411 C 694.83 581.763 696.511 581.125 698.193 580.491 C 699.129 580.134 700.065 579.778 701.029 579.41 C 703.714 578.57 703.714 578.57 707.555 578.57 Z " fill="rgb(214,213,201)"/><path d=" M 449.261 578.57 C 454.623 584.578 457.496 592.095 459.823 599.695 C 460.04 600.321 460.256 600.947 460.48 601.592 C 463.526 611.467 462.594 622.243 457.903 631.381 C 456.214 634.155 454.528 636.842 452.142 639.063 C 451.191 639.063 450.24 639.063 449.261 639.063 C 449.419 638.092 449.578 637.122 449.741 636.122 C 451.951 617.103 447.149 601.71 435.949 586.165 C 434.858 584.331 434.858 584.331 434.858 581.451 C 444.548 577.371 444.548 577.371 449.261 578.57 Z " fill="rgb(214,213,201)"/><path d=" M 541.62 761.729 C 542.782 761.736 542.782 761.736 543.966 761.744 C 547.272 761.788 549.797 761.874 552.963 762.929 C 552.646 763.88 552.329 764.83 552.003 765.81 C 550.146 766.695 550.146 766.695 547.742 767.49 C 542.089 769.6 537.545 772.689 532.798 776.372 C 531.843 777.103 530.887 777.835 529.903 778.588 C 526.867 781.146 524.772 784.164 522.716 787.534 C 522.351 788.117 521.986 788.699 521.61 789.299 C 518.402 794.473 515.444 799.778 512.634 805.178 C 509.013 803.939 506.796 802.554 504.172 799.777 C 503.592 799.17 503.011 798.564 502.413 797.939 C 501.984 797.476 501.554 797.013 501.112 796.536 C 502.35 792.361 503.949 789.013 506.333 785.374 C 506.906 784.49 507.479 783.606 508.07 782.696 C 511.222 778.047 511.222 778.047 512.634 776.372 C 513.268 776.372 513.902 776.372 514.555 776.372 C 514.768 775.818 514.98 775.265 515.2 774.695 C 516.863 771.872 518.849 770.521 521.516 768.63 C 522.412 767.985 523.308 767.34 524.232 766.676 C 530.351 762.692 534.437 761.542 541.62 761.729 Z " fill="rgb(214,213,201)"/><path d=" M 620.177 617.938 C 621.127 617.938 622.078 617.938 623.057 617.938 C 623.057 618.572 623.057 619.206 623.057 619.859 C 623.611 620.119 624.164 620.379 624.734 620.646 C 626.917 621.789 628.803 623.099 630.799 624.54 C 638.756 629.919 647.518 632.329 657.043 632.645 C 658.198 632.685 659.352 632.726 660.541 632.767 C 662.335 632.824 662.335 632.824 664.166 632.882 C 665.381 632.923 666.596 632.964 667.848 633.007 C 670.841 633.109 673.835 633.207 676.829 633.302 C 676.995 639.002 676.128 642.528 673.948 647.705 C 657.461 648.053 642.061 647.206 628.729 636.145 C 625.707 633.036 623.856 629.551 622.097 625.62 C 621.681 624.709 621.265 623.798 620.837 622.859 C 620.177 620.819 620.177 620.819 620.177 617.938 Z " fill="rgb(214,213,201)"/><path d=" M 348.44 358.684 C 349.707 358.684 350.975 358.684 352.281 358.684 C 352.7 359.956 352.7 359.956 353.128 361.253 C 355.117 367.074 357.116 372.476 360.202 377.828 C 362.496 381.842 363.803 384.765 363.803 389.41 C 363.169 390.361 362.535 391.312 361.883 392.291 C 355.806 391.36 350.75 388.409 346.849 383.615 C 343.691 378.703 342.541 374.864 342.618 369.006 C 342.627 368.15 342.636 367.293 342.645 366.41 C 342.656 365.762 342.667 365.113 342.678 364.445 C 343.312 364.128 343.946 363.811 344.599 363.485 C 345.866 366.02 347.134 368.555 348.44 371.166 C 348.44 368.379 348.302 366.022 347.9 363.305 C 347.761 362.097 347.622 360.889 347.479 359.644 C 347.796 359.327 348.113 359.01 348.44 358.684 Z " fill="rgb(214,213,201)"/><path d=" M 547.202 461.425 C 548.113 462.158 549.023 462.891 549.962 463.646 C 554.964 467.204 560.46 468.455 566.398 469.718 C 573.018 471.176 578.581 473.118 583.689 477.749 C 583.689 478.383 583.689 479.016 583.689 479.669 C 575.473 481.86 568.369 480.665 560.404 478.169 C 559.666 477.951 558.928 477.733 558.168 477.509 C 552.792 475.707 549.2 473.061 546.241 468.147 C 545.821 464.906 545.821 464.906 546.241 462.386 C 546.558 462.069 546.875 461.752 547.202 461.425 Z " fill="rgb(214,213,201)"/><path d=" M 551.042 419.177 C 551.518 421.078 551.518 421.078 552.003 423.017 C 548.523 425.92 544.677 427.72 540.6 429.619 C 539.518 430.123 539.518 430.123 538.413 430.637 C 518.802 439.63 518.802 439.63 508.793 439.341 C 508.16 439.024 507.526 438.707 506.873 438.381 C 505.277 438.039 503.677 437.716 502.072 437.42 C 508.017 432.427 515.308 430.84 522.656 428.959 C 532.293 426.419 542.091 423.652 551.042 419.177 Z " fill="rgb(214,213,201)"/><path d=" M 457.903 415.336 C 462.26 414.802 464.931 415.113 468.405 417.736 C 470.298 419.519 471.222 420.582 471.833 423.122 C 471.886 425.178 471.886 425.178 471.346 428.779 C 470.712 429.412 470.078 430.046 469.425 430.699 C 468.475 430.382 467.524 430.065 466.545 429.739 C 465.884 427.758 465.884 427.758 465.584 425.898 C 460.203 425.699 455.708 426.263 450.506 427.68 C 448.301 427.818 448.301 427.818 446.095 426.427 C 445.556 425.935 445.016 425.444 444.46 424.938 C 451.674 422.161 457.83 420.479 465.584 421.097 C 465.584 420.463 465.584 419.83 465.584 419.177 C 464.495 418.899 463.406 418.622 462.284 418.336 C 461.155 417.98 460.026 417.623 458.863 417.256 C 458.546 416.622 458.229 415.989 457.903 415.336 Z " fill="rgb(214,213,201)"/><path d=" M 713.316 576.65 C 716.017 576.41 716.017 576.41 719.078 576.65 C 721.907 579.571 722.9 582.831 724.059 586.672 C 724.389 587.74 724.72 588.808 725.06 589.909 C 725.729 592.682 725.953 594.941 725.799 597.774 C 724.532 598.091 723.264 598.408 721.958 598.734 C 721.736 598.25 721.513 597.766 721.284 597.266 C 720.273 595.073 719.255 592.883 718.237 590.693 C 717.887 589.93 717.537 589.168 717.176 588.382 C 716.836 587.652 716.495 586.922 716.145 586.169 C 715.833 585.495 715.521 584.822 715.2 584.127 C 714.292 582.242 714.292 582.242 712.356 580.491 C 712.716 578.45 712.716 578.45 713.316 576.65 Z " fill="rgb(214,213,201)"/><path d=" M 521.492 861.809 C 522.412 861.854 523.332 861.899 524.28 861.946 C 525.274 861.992 526.267 862.039 527.29 862.087 C 528.336 862.14 529.381 862.194 530.458 862.25 C 531.507 862.3 532.556 862.35 533.637 862.402 C 536.238 862.527 538.839 862.656 541.44 862.79 C 542.04 864.53 542.04 864.53 542.401 866.631 C 541.45 868.057 541.45 868.057 540.48 869.511 C 533.258 870.811 526.19 868.852 519.356 866.631 C 518.816 864.77 518.816 864.77 518.395 862.79 C 519.356 861.83 519.356 861.83 521.492 861.809 Z " fill="rgb(214,213,201)"/><path d=" M 649.943 650.585 C 653.444 650.718 656.945 650.861 660.445 651.005 C 661.445 651.043 662.444 651.081 663.474 651.12 C 664.424 651.16 665.374 651.2 666.353 651.242 C 667.673 651.294 667.673 651.294 669.019 651.348 C 671.068 651.545 671.068 651.545 672.028 652.506 C 672.148 654.906 672.148 654.906 672.028 657.307 C 670.284 659.051 667.719 658.515 665.366 658.567 C 659.169 658.546 654.478 657.205 648.983 654.426 C 649.3 653.159 649.617 651.891 649.943 650.585 Z " fill="rgb(214,213,201)"/><path d=" M 637.461 559.366 C 638.411 559.683 639.362 560 640.341 560.326 C 640.06 564.83 637.874 567.36 635.176 570.757 C 633.176 573.394 631.562 576.196 629.948 579.08 C 629.575 579.546 629.203 580.011 628.819 580.491 C 627.868 580.491 626.917 580.491 625.938 580.491 C 624.018 577.61 624.018 577.61 624.186 575.299 C 626.241 568.833 631.938 563.132 637.461 559.366 Z " fill="rgb(214,213,201)"/><path d=" M 380.486 559.546 C 381.001 559.804 381.516 560.061 382.047 560.326 C 380.711 564.224 378.844 566.73 376.286 569.928 C 374.832 572.468 373.41 575.02 372.025 577.599 C 371.282 578.555 371.282 578.555 370.524 579.53 C 369.257 579.53 367.989 579.53 366.684 579.53 C 365.853 576.927 365.45 575.478 365.723 572.809 C 368.355 568.098 374.503 559.074 380.486 559.546 Z " fill="rgb(214,213,201)"/><path d=" M 411.813 347.161 C 413.253 348.482 413.253 348.482 414.694 350.042 C 414.694 350.676 414.694 351.31 414.694 351.962 C 417.494 352.759 420.03 353.063 422.937 353.12 C 424.234 353.149 424.234 353.149 425.558 353.178 C 426.483 353.194 427.408 353.21 428.362 353.226 C 429.315 353.246 430.269 353.266 431.251 353.287 C 434.294 353.35 437.336 353.406 440.379 353.463 C 442.443 353.504 444.507 353.546 446.572 353.588 C 451.629 353.691 456.686 353.789 461.744 353.883 C 458.629 355.959 457.604 356.067 453.987 356.167 C 453.03 356.2 452.073 356.233 451.088 356.266 C 450.089 356.292 449.09 356.317 448.061 356.343 C 441.982 356.523 436.063 356.75 430.057 357.724 C 422.729 358.189 416.528 356.928 410.853 351.962 C 411.17 350.378 411.487 348.794 411.813 347.161 Z " fill="rgb(214,213,201)"/><path d=" M 461.744 327.957 C 463.864 327.931 465.984 327.913 468.105 327.897 C 469.286 327.886 470.467 327.875 471.683 327.864 C 474.876 327.949 477.818 328.306 480.948 328.918 C 479.997 330.343 479.997 330.343 479.027 331.798 C 476.507 331.978 476.507 331.978 474.226 331.798 C 474.088 332.571 473.949 333.343 473.806 334.139 C 473.266 336.599 473.266 336.599 472.306 337.559 C 469.562 337.781 467.31 337.958 464.624 337.559 C 462.704 335.819 462.704 335.819 461.744 333.719 C 461.744 332.768 461.744 331.817 461.744 330.838 C 459.525 330.838 457.307 330.838 455.022 330.838 C 455.022 330.521 455.022 330.204 455.022 329.878 C 457.24 329.878 459.458 329.878 461.744 329.878 C 461.744 329.244 461.744 328.61 461.744 327.957 Z " fill="rgb(214,213,201)"/><path d=" M 506.873 770.611 C 507.824 770.927 508.774 771.244 509.754 771.571 C 509.258 775.908 507.69 777.844 504.953 781.173 C 502.964 784.334 501.071 787.548 499.191 790.775 C 497.607 790.458 496.023 790.141 494.39 789.815 C 493.697 787.714 493.697 787.714 493.43 785.014 C 496.651 779.427 501.522 774.219 506.873 770.611 Z " fill="rgb(214,213,201)"/><path d=" M 390.689 650.585 C 397.977 650.902 405.264 651.219 412.773 651.545 C 413.09 652.813 413.407 654.08 413.733 655.386 C 411.813 658.267 411.813 658.267 409.93 658.683 C 402.971 658.694 397.154 656.914 390.689 654.426 C 390.689 653.159 390.689 651.891 390.689 650.585 Z " fill="rgb(214,213,201)"/><path d=" M 455.022 575.69 C 457.243 575.449 457.243 575.449 459.823 575.69 C 464.309 580.633 466.796 587.965 466.785 594.593 C 466.705 595.643 466.626 596.693 466.545 597.774 C 465.277 597.774 464.01 597.774 462.704 597.774 C 462.251 596.643 462.251 596.643 461.789 595.49 C 459.082 588.764 459.082 588.764 455.622 582.411 C 454.062 579.53 454.062 579.53 454.302 577.19 C 454.54 576.695 454.777 576.2 455.022 575.69 Z " fill="rgb(214,213,201)"/><path d=" M 582.729 787.894 C 584.947 787.894 587.165 787.894 589.45 787.894 C 592.739 794.958 595.021 801.183 595.212 809.019 C 592.969 808.887 592.969 808.887 590.411 808.058 C 588.993 805.579 588.993 805.579 587.89 802.477 C 586.52 798.701 585.156 795.874 582.729 792.695 C 582.549 790.055 582.549 790.055 582.729 787.894 Z " fill="rgb(214,213,201)"/><path d=" M 649.943 389.41 C 653.289 389.977 656.089 390.841 659.151 392.295 C 659.977 392.686 660.803 393.077 661.653 393.479 C 662.522 393.899 663.391 394.319 664.286 394.751 C 665.635 395.396 665.635 395.396 667.011 396.053 C 672.196 398.561 677.228 401.217 682.17 404.173 C 687.21 407.164 692.098 409.145 697.732 410.737 C 699.874 411.495 699.874 411.495 700.834 413.415 C 689.533 412.674 680.61 408.375 671.068 402.493 C 669.308 401.424 667.548 400.356 665.786 399.29 C 664.929 398.77 664.071 398.251 663.187 397.716 C 658.838 395.147 654.397 392.751 649.943 390.371 C 649.943 390.054 649.943 389.737 649.943 389.41 Z " fill="rgb(214,213,201)"/><path d=" M 579.848 383.649 C 579.848 383.966 579.848 384.283 579.848 384.609 C 579.226 384.706 578.603 384.802 577.962 384.901 C 566.901 386.628 555.973 388.376 545.21 391.492 C 540.356 392.872 536.119 393.362 531.058 393.311 C 529.943 393.302 528.828 393.294 527.679 393.285 C 526.833 393.274 525.988 393.263 525.117 393.251 C 528.641 391.216 532.393 390.369 536.32 389.463 C 537.044 389.295 537.767 389.127 538.512 388.954 C 540.047 388.601 541.583 388.251 543.119 387.904 C 545.414 387.381 547.702 386.834 549.99 386.286 C 560.085 383.953 569.501 383.188 579.848 383.649 Z " fill="rgb(214,213,201)"/><path d=" M 549.122 420.137 C 549.756 420.454 550.389 420.771 551.042 421.097 C 540.127 428.444 528.39 431.883 515.738 434.965 C 514.309 435.322 512.884 435.7 511.466 436.099 C 507.924 437.078 505.579 437.549 502.072 436.46 C 509.622 432.378 517.396 430.263 525.658 428.123 C 532.143 426.417 538.361 424.354 544.564 421.808 C 546.064 421.202 547.591 420.663 549.122 420.137 Z " fill="rgb(214,213,201)"/><path d=" M 563.525 382.689 C 563.525 383.323 563.525 383.956 563.525 384.609 C 552.118 387.144 540.711 389.679 528.958 392.291 C 530.542 392.608 532.126 392.925 533.759 393.251 C 533.759 393.568 533.759 393.885 533.759 394.211 C 530.273 394.211 526.788 394.211 523.196 394.211 C 523.196 392.944 523.196 391.676 523.196 390.371 C 522.246 390.054 521.295 389.737 520.316 389.41 C 525.851 388.449 531.388 387.492 536.925 386.539 C 538.808 386.214 540.691 385.888 542.574 385.561 C 545.282 385.09 547.989 384.624 550.697 384.159 C 551.539 384.012 552.38 383.865 553.247 383.714 C 554.035 383.579 554.822 383.445 555.634 383.306 C 556.325 383.187 557.016 383.067 557.728 382.944 C 559.684 382.689 559.684 382.689 563.525 382.689 Z " fill="rgb(214,213,201)"/><path d=" M 720.638 466.046 C 724.585 466.082 727.828 466.903 731.56 468.147 C 730.59 470.705 729.698 471.942 727.539 473.668 C 724.13 475.183 721.81 475.347 718.117 474.868 C 716.197 473.188 716.197 473.188 715.237 471.027 C 715.719 466.812 716.326 466.27 720.638 466.046 Z " fill="rgb(214,213,201)"/><path d=" M 536.999 450.503 C 540.318 450.977 541.327 452.09 543.361 454.704 C 544.261 456.684 544.261 456.684 544.321 458.545 C 543.301 460.225 543.301 460.225 541.44 461.425 C 538.5 461.726 538.5 461.726 535.679 461.425 C 532.991 458.738 533.064 456.499 532.798 452.784 C 534.719 450.863 534.719 450.863 536.999 450.503 Z " fill="rgb(214,213,201)"/><path d=" M 354.201 344.281 C 354.921 345.841 354.921 345.841 355.161 348.122 C 353.601 351.182 353.601 351.182 351.32 353.883 C 348.68 354.723 348.68 354.723 346.519 354.843 C 344.311 351.53 344.185 350.094 344.599 346.201 C 348.098 343.868 350.084 344.125 354.201 344.281 Z " fill="rgb(214,213,201)"/><path d=" M 724.839 451.823 C 728.029 454.406 729.105 457.688 730.6 461.425 C 730.917 462.059 731.234 462.693 731.56 463.346 C 723.793 463.943 723.793 463.943 720.458 461.666 C 719.078 459.505 719.078 459.505 719.078 455.664 C 721.958 453.504 721.958 453.504 724.839 451.823 Z " fill="rgb(214,213,201)"/><path d=" M 336.917 350.042 C 340.638 351.842 340.638 351.842 341.718 352.923 C 341.971 356.794 342.001 358.26 339.798 361.564 C 336.129 361.055 333.977 360.127 331.156 357.724 C 332.375 353.965 333.568 352.163 336.917 350.042 Z " fill="rgb(214,213,201)"/><path d=" M 556.804 345.241 C 565.993 348.41 575.182 351.578 584.649 354.843 C 584.649 355.16 584.649 355.477 584.649 355.803 C 574.312 355.327 564.219 352.567 554.883 348.122 C 555.517 347.805 556.151 347.488 556.804 347.161 C 556.804 346.528 556.804 345.894 556.804 345.241 Z " fill="rgb(214,213,201)"/><path d=" M 602.893 395.052 C 603.729 395.06 604.564 395.069 605.425 395.078 C 607.462 395.1 609.498 395.135 611.535 395.172 C 609.926 397.367 608.661 398.85 605.896 399.314 C 603.705 399.356 601.542 399.296 599.352 399.192 C 597.801 399.153 596.249 399.116 594.698 399.084 C 593.957 399.066 593.217 399.047 592.454 399.029 C 588.832 399 585.345 399.443 581.769 399.973 C 587.592 394.634 595.468 394.903 602.893 395.052 Z " fill="rgb(214,213,201)"/><path d=" M 334.517 365.105 C 335.705 365.254 335.705 365.254 336.917 365.405 C 339.382 369.102 338.677 370.769 337.877 375.007 C 331.396 374.287 331.396 374.287 329.236 372.127 C 329.631 368.169 330.183 365.647 334.517 365.105 Z " fill="rgb(214,213,201)"/><path d=" M 373.405 440.301 C 373.722 442.519 374.039 444.737 374.365 447.022 C 372.805 447.743 372.805 447.743 370.524 447.983 C 367.056 446.04 365.058 444.585 362.843 441.261 C 366.463 438.8 369.251 439.502 373.405 440.301 Z " fill="rgb(214,213,201)"/><path d=" M 462.749 343.437 C 465.239 344.558 465.689 345.717 466.785 348.182 C 467.106 348.886 467.428 349.59 467.76 350.316 C 467.993 350.859 468.225 351.403 468.465 351.962 C 464.595 351.431 460.764 350.853 456.943 350.042 C 457.243 347.762 457.243 347.762 457.903 345.241 C 460.783 343.321 460.783 343.321 462.749 343.437 Z " fill="rgb(214,213,201)"/><path d=" M 538.2 464.186 C 538.952 464.226 539.705 464.265 540.48 464.306 C 542.489 468.561 542.489 468.561 542.04 471.328 C 541.842 471.862 541.644 472.397 541.44 472.948 C 534.839 472.108 534.839 472.108 533.759 471.027 C 533.579 468.687 533.579 468.687 533.759 466.226 C 535.679 464.306 535.679 464.306 538.2 464.186 Z " fill="rgb(214,213,201)"/><path d=" M 636.5 415.336 C 636.5 415.653 636.5 415.97 636.5 416.296 C 635.352 416.474 634.203 416.652 633.02 416.836 C 628.106 418.062 625.793 420.821 623.057 424.938 C 621.295 428.058 621.295 428.058 620.177 430.699 C 619.86 430.699 619.543 430.699 619.217 430.699 C 618.598 425.75 619.937 422.929 622.66 418.959 C 626.842 413.714 630.4 414.198 636.5 415.336 Z " fill="rgb(214,213,201)"/><path d=" M 526.077 429.739 C 525.126 430.056 524.176 430.373 523.196 430.699 C 523.83 431.333 524.464 431.966 525.117 432.619 C 522.357 433.241 519.596 433.861 516.835 434.48 C 516.059 434.655 515.283 434.83 514.483 435.011 C 510.36 435.933 506.251 436.778 502.072 437.42 C 507.672 432.717 518.772 427.253 526.077 429.739 Z " fill="rgb(214,213,201)"/><path d=" M 646.102 411.495 C 649.847 413.138 652.965 415.558 656.184 418.036 C 656.73 418.445 657.276 418.855 657.839 419.276 C 661.16 421.823 663.772 424.412 666.267 427.818 C 659.843 427.818 654.211 420.689 649.883 416.416 C 646.102 412.603 646.102 412.603 646.102 411.495 Z " fill="rgb(214,213,201)"/><path d=" M 416.614 419.177 C 417.873 421.695 417.475 423.239 417.154 426.018 C 417.056 426.892 416.959 427.766 416.858 428.666 C 416.777 429.337 416.697 430.008 416.614 430.699 C 410.133 429.979 410.133 429.979 407.972 427.818 C 408.606 427.185 409.24 426.551 409.893 425.898 C 410.814 424.71 410.814 424.71 411.753 423.497 C 413.733 421.097 413.733 421.097 416.614 419.177 Z " fill="rgb(214,213,201)"/><path d=" M 464.624 340.44 C 467.948 343.688 469.903 346.544 471.346 351.002 C 469.125 350.882 469.125 350.882 466.545 350.042 C 464.804 347.101 464.804 347.101 463.664 344.281 C 461.763 344.598 459.862 344.915 457.903 345.241 C 457.903 344.607 457.903 343.974 457.903 343.321 C 457.269 343.004 456.635 342.687 455.982 342.36 C 459.368 340.103 460.639 339.802 464.624 340.44 Z " fill="rgb(214,213,201)"/><path d=" M 461.744 327.957 C 466.18 327.957 470.616 327.957 475.186 327.957 C 475.186 328.274 475.186 328.591 475.186 328.918 C 472.968 329.234 470.75 329.551 468.465 329.878 C 469.099 331.462 469.732 333.046 470.385 334.679 C 469.435 334.996 468.484 335.313 467.505 335.639 C 466.871 335.322 466.237 335.005 465.584 334.679 C 465.584 334.045 465.584 333.411 465.584 332.758 C 464.317 333.075 463.049 333.392 461.744 333.719 C 461.744 332.768 461.744 331.817 461.744 330.838 C 459.525 330.838 457.307 330.838 455.022 330.838 C 455.022 330.521 455.022 330.204 455.022 329.878 C 457.24 329.878 459.458 329.878 461.744 329.878 C 461.744 329.244 461.744 328.61 461.744 327.957 Z " fill="rgb(214,213,201)"/><path d=" M 544.321 474.868 C 548.161 475.459 550.854 477.367 553.923 479.669 C 553.923 480.303 553.923 480.937 553.923 481.59 C 551.236 482.933 549.213 482.793 546.241 482.55 C 544.381 481.41 544.381 481.41 543.361 479.669 C 543.661 477.089 543.661 477.089 544.321 474.868 Z " fill="rgb(214,213,201)"/><path d=" M 551.042 419.177 C 551.359 420.444 551.676 421.712 552.003 423.017 C 548.954 425.47 545.779 427.218 542.28 428.959 C 541.268 429.467 540.256 429.976 539.212 430.5 C 536.639 431.659 536.639 431.659 534.719 431.659 C 534.402 430.709 534.085 429.758 533.759 428.779 C 534.685 428.407 535.61 428.036 536.564 427.653 C 537.79 427.149 539.015 426.644 540.24 426.138 C 540.849 425.895 541.458 425.653 542.085 425.403 C 545.81 423.851 548.406 422.239 551.042 419.177 Z " fill="rgb(214,213,201)"/><path d=" M 522.236 857.989 C 527.306 858.306 532.376 858.623 537.599 858.949 C 537.599 859.266 537.599 859.583 537.599 859.909 C 535.698 859.909 533.797 859.909 531.838 859.909 C 531.838 860.543 531.838 861.177 531.838 861.83 C 528.836 863.331 525.52 863.174 522.236 862.79 C 521.286 862.156 520.335 861.522 519.356 860.87 C 519.989 860.87 520.623 860.87 521.276 860.87 C 521.593 859.919 521.91 858.968 522.236 857.989 Z " fill="rgb(214,213,201)"/><path d=" M 565.445 342.36 C 568.47 343.269 571.489 344.193 574.507 345.121 C 575.8 345.509 575.8 345.509 577.12 345.905 C 577.94 346.159 578.76 346.412 579.605 346.674 C 580.744 347.021 580.744 347.021 581.905 347.375 C 583.689 348.122 583.689 348.122 584.649 350.042 C 577.678 348.775 570.707 347.507 563.525 346.201 C 564.159 345.884 564.792 345.568 565.445 345.241 C 565.445 344.29 565.445 343.34 565.445 342.36 Z " fill="rgb(214,213,201)"/><path d=" M 381.087 464.306 C 381.087 464.94 381.087 465.574 381.087 466.226 C 377.918 467.494 374.749 468.761 371.485 470.067 C 371.485 468.483 371.485 466.899 371.485 465.266 C 375.116 463.502 377.194 463.194 381.087 464.306 Z " fill="rgb(214,213,201)"/><path d=" M 734.441 464.306 C 733.49 465.732 733.49 465.732 732.521 467.187 C 733.154 467.504 733.788 467.82 734.441 468.147 C 730.661 469.407 728.56 468.38 724.839 467.187 C 724.839 465.906 724.839 464.626 724.839 463.346 C 731.2 462.146 731.2 462.146 734.441 464.306 Z " fill="rgb(214,213,201)"/><path d=" M 464.875 324.795 C 465.644 324.829 466.413 324.862 467.205 324.897 C 468.369 324.936 468.369 324.936 469.556 324.976 C 470.147 325.009 470.737 325.042 471.346 325.077 C 471.346 325.394 471.346 325.711 471.346 326.037 C 473.88 326.354 476.415 326.671 479.027 326.997 C 479.027 327.314 479.027 327.631 479.027 327.957 C 472.69 327.957 466.353 327.957 459.823 327.957 C 462.704 325.077 462.704 325.077 464.875 324.795 Z " fill="rgb(214,213,201)"/><path d=" M 371.184 455.604 C 372.349 455.617 372.349 455.617 373.536 455.631 C 374.422 455.647 374.422 455.647 375.325 455.664 C 375.325 456.615 375.325 457.565 375.325 458.545 C 370.855 459.349 367.288 459.521 362.843 458.545 C 364.575 455.08 367.726 455.554 371.184 455.604 Z " fill="rgb(214,213,201)"/><path d=" M 541.44 390.371 C 541.757 391.004 542.074 391.638 542.401 392.291 C 538.562 393.209 534.999 393.351 531.058 393.311 C 529.943 393.302 528.828 393.294 527.679 393.285 C 526.833 393.274 525.988 393.263 525.117 393.251 C 527.803 391.804 530.305 390.868 533.279 390.19 C 534.001 390.018 534.724 389.846 535.469 389.669 C 537.78 389.388 539.269 389.547 541.44 390.371 Z " fill="rgb(214,213,201)"/><path d=" M 569.286 350.042 C 570.947 350.478 572.608 350.919 574.267 351.362 C 575.192 351.607 576.116 351.852 577.069 352.105 C 579.678 352.872 582.145 353.79 584.649 354.843 C 584.649 355.16 584.649 355.477 584.649 355.803 C 578.97 355.369 573.749 354.691 568.326 352.923 C 568.643 351.972 568.96 351.021 569.286 350.042 Z " fill="rgb(214,213,201)"/><path d=" M 552.003 341.4 C 552.537 341.586 553.072 341.772 553.623 341.963 C 558.485 343.622 563.326 345.02 568.326 346.201 C 567.375 346.677 567.375 346.677 566.406 347.161 C 566.406 347.795 566.406 348.429 566.406 349.082 C 561.381 347.508 556.658 345.827 552.003 343.321 C 552.003 342.687 552.003 342.053 552.003 341.4 Z " fill="rgb(214,213,201)"/><path d=" M 548.162 330.838 C 548.795 331.155 549.429 331.472 550.082 331.798 C 549.132 333.224 549.132 333.224 548.162 334.679 C 547.676 338.402 547.823 339.943 549.962 343.081 C 551.264 344.459 552.582 345.821 553.923 347.161 C 552.972 347.161 552.022 347.161 551.042 347.161 C 550.725 347.795 550.409 348.429 550.082 349.082 C 546.839 345.133 546.104 342.015 546.061 336.959 C 546.048 336.214 546.034 335.469 546.02 334.701 C 546.241 332.758 546.241 332.758 548.162 330.838 Z " fill="rgb(214,213,201)"/><path d=" M 637.461 559.366 C 638.411 559.683 639.362 560 640.341 560.326 C 639.707 560.802 639.074 561.277 638.421 561.767 C 634.661 564.899 631.278 568.353 627.858 571.849 C 627.858 567.435 630.668 565.322 633.62 562.247 C 635.72 560.326 635.72 560.326 637.461 559.366 Z " fill="rgb(214,213,201)"/><path d=" M 378.206 559.366 C 378.206 562.247 378.206 562.247 376.106 564.628 C 375.214 565.486 374.323 566.344 373.405 567.228 C 372.514 568.093 371.623 568.958 370.704 569.85 C 370.011 570.509 369.318 571.169 368.604 571.849 C 367.97 571.532 367.336 571.215 366.684 570.889 C 368.24 569.145 369.801 567.405 371.365 565.667 C 371.806 565.172 372.248 564.676 372.704 564.165 C 376.068 560.435 376.068 560.435 378.206 559.366 Z " fill="rgb(214,213,201)"/><path d=" M 636.5 415.336 C 636.5 415.653 636.5 415.97 636.5 416.296 C 635.292 416.573 634.084 416.85 632.84 417.136 C 629.919 417.806 628.524 418.413 625.938 420.137 C 623.838 419.777 623.838 419.777 622.097 419.177 C 627.755 414.561 629.427 414.309 636.5 415.336 Z " fill="rgb(214,213,201)"/><path d=" M 712.356 467.187 C 712.056 469.467 712.056 469.467 711.396 471.988 C 708.515 473.908 708.515 473.908 705.635 473.908 C 707.934 467.187 707.934 467.187 712.356 467.187 Z " fill="rgb(214,213,201)"/><path d=" M 673.948 393.251 C 679.652 393.251 685.355 393.251 691.232 393.251 C 691.232 393.568 691.232 393.885 691.232 394.211 C 687.746 394.211 684.261 394.211 680.67 394.211 C 680.67 394.845 680.67 395.479 680.67 396.132 C 679.719 396.449 678.768 396.765 677.789 397.092 C 676.522 395.824 675.254 394.557 673.948 393.251 Z " fill="rgb(214,213,201)"/><path d=" M 664.586 647.465 C 665.799 647.499 667.012 647.534 668.262 647.57 C 669.651 647.636 669.651 647.636 671.068 647.705 C 671.068 648.022 671.068 648.338 671.068 648.665 C 667.582 648.665 664.097 648.665 660.505 648.665 C 660.188 649.615 659.872 650.566 659.545 651.545 C 657.644 651.545 655.743 651.545 653.784 651.545 C 657.048 647.359 659.416 647.273 664.586 647.465 Z " fill="rgb(214,213,201)"/><path d=" M 687.391 408.614 C 692.035 409.565 696.49 410.493 700.834 412.455 C 697.767 413.438 695.628 413.379 692.492 412.695 C 691.358 412.465 691.358 412.465 690.2 412.23 C 689.285 411.866 689.285 411.866 688.351 411.495 C 688.034 410.544 687.717 409.594 687.391 408.614 Z " fill="rgb(214,213,201)"/><path d=" M 422.375 581.451 C 423.326 581.768 424.276 582.084 425.256 582.411 C 422.087 585.58 418.919 588.748 415.654 592.013 C 415.654 588.384 416.611 587.729 419.015 585.111 C 419.638 584.425 420.262 583.738 420.905 583.03 C 421.39 582.509 421.875 581.988 422.375 581.451 Z " fill="rgb(214,213,201)"/><path d=" M 557.764 441.261 C 560.14 441.737 560.14 441.737 562.565 442.221 C 562.882 443.489 563.198 444.756 563.525 446.062 C 561.725 446.662 561.725 446.662 559.684 447.022 C 559.05 446.389 558.417 445.755 557.764 445.102 C 557.764 443.835 557.764 442.567 557.764 441.261 Z " fill="rgb(214,213,201)"/><path d=" M 751.725 430.699 C 752.992 430.699 754.259 430.699 755.565 430.699 C 754.098 434 752.203 436.642 749.804 439.341 C 749.17 439.341 748.537 439.341 747.884 439.341 C 749.035 436.38 750.262 433.519 751.725 430.699 Z " fill="rgb(214,213,201)"/><path d=" M 567.366 467.187 C 570.218 467.662 570.218 467.662 573.127 468.147 C 573.127 469.414 573.127 470.682 573.127 471.988 C 570.275 471.512 570.275 471.512 567.366 471.027 C 567.366 469.76 567.366 468.493 567.366 467.187 Z " fill="rgb(214,213,201)"/><path d=" M 365.723 447.022 C 368.575 447.022 371.427 447.022 374.365 447.022 C 374.365 448.607 374.365 450.191 374.365 451.823 C 371.513 450.873 368.662 449.922 365.723 448.943 C 365.723 448.309 365.723 447.675 365.723 447.022 Z " fill="rgb(214,213,201)"/><path d=" M 563.525 382.689 C 563.525 383.323 563.525 383.956 563.525 384.609 C 558.429 385.98 554.366 386.914 549.122 385.57 C 549.122 385.253 549.122 384.936 549.122 384.609 C 550.801 384.285 552.482 383.966 554.163 383.649 C 555.099 383.471 556.034 383.293 556.999 383.109 C 559.684 382.689 559.684 382.689 563.525 382.689 Z " fill="rgb(214,213,201)"/><path d=" M 566.406 347.161 C 569.257 347.161 572.109 347.161 575.047 347.161 C 574.097 347.637 574.097 347.637 573.127 348.122 C 573.761 349.389 574.394 350.657 575.047 351.962 C 572.196 351.012 569.344 350.061 566.406 349.082 C 566.406 348.448 566.406 347.814 566.406 347.161 Z " fill="rgb(214,213,201)"/><path d=" M 496.311 416.296 C 495.36 419.148 494.41 422 493.43 424.938 C 492.48 424.621 491.529 424.304 490.55 423.978 C 491.124 421.719 491.768 419.478 492.47 417.256 C 494.39 416.296 494.39 416.296 496.311 416.296 Z " fill="rgb(214,213,201)"/><path d=" M 553.75 448.755 C 554.798 448.778 555.845 448.8 556.924 448.823 C 557.976 448.84 559.028 448.857 560.112 448.875 C 560.921 448.898 561.731 448.92 562.565 448.943 C 562.565 449.26 562.565 449.577 562.565 449.903 C 561.609 449.923 561.609 449.923 560.633 449.944 C 554.717 450.163 554.717 450.163 549.962 453.324 C 549.368 454.096 548.774 454.868 548.162 455.664 C 549.203 449.07 549.203 449.07 553.75 448.755 Z " fill="rgb(214,213,201)"/><path d=" M 457.19 361.377 C 458.415 361.399 459.641 361.421 460.903 361.444 C 462.749 361.47 462.749 361.47 464.632 361.497 C 466.054 361.53 466.054 361.53 467.505 361.564 C 467.505 361.881 467.505 362.198 467.505 362.525 C 466.394 362.579 466.394 362.579 465.262 362.633 C 463.817 362.728 463.817 362.728 462.344 362.825 C 460.907 362.908 460.907 362.908 459.441 362.994 C 458.616 363.156 457.792 363.318 456.943 363.485 C 455.992 364.911 455.992 364.911 455.022 366.365 C 454.072 365.415 453.121 364.464 452.142 363.485 C 454.062 361.564 454.062 361.564 457.19 361.377 Z " fill="rgb(214,213,201)"/><path d=" M 504.953 785.974 C 504.636 787.558 504.319 789.142 503.992 790.775 C 499.715 791.25 499.715 791.25 495.351 791.735 C 496.618 791.418 497.886 791.101 499.191 790.775 C 500.296 788.886 500.296 788.886 501.112 786.934 C 503.032 785.974 503.032 785.974 504.953 785.974 Z " fill="rgb(214,213,201)"/><path d=" M 649.943 389.41 C 654.811 390.038 658.988 392.151 663.386 394.211 C 662.435 394.845 661.485 395.479 660.505 396.132 C 657.02 394.231 653.534 392.329 649.943 390.371 C 649.943 390.054 649.943 389.737 649.943 389.41 Z " fill="rgb(214,213,201)"/><path d=" M 520.316 389.41 C 521.9 389.41 523.485 389.41 525.117 389.41 C 525.117 390.044 525.117 390.678 525.117 391.331 C 529.395 392.281 529.395 392.281 533.759 393.251 C 533.759 393.568 533.759 393.885 533.759 394.211 C 530.273 394.211 526.788 394.211 523.196 394.211 C 523.196 392.944 523.196 391.676 523.196 390.371 C 522.246 390.054 521.295 389.737 520.316 389.41 Z " fill="rgb(214,213,201)"/><path d=" M 336.917 350.042 C 337.868 350.359 338.818 350.676 339.798 351.002 C 339.026 351.537 338.253 352.072 337.457 352.623 C 334.764 355.053 334.331 356.116 334.037 359.644 C 333.086 359.01 332.135 358.377 331.156 357.724 C 332.354 354.03 333.448 351.934 336.917 350.042 Z " fill="rgb(214,213,201)"/><path d=" M 326.355 346.201 C 327.939 346.201 329.524 346.201 331.156 346.201 C 331.79 347.469 332.424 348.736 333.076 350.042 C 330.858 349.725 328.64 349.408 326.355 349.082 C 326.355 348.131 326.355 347.181 326.355 346.201 Z " fill="rgb(214,213,201)"/><path d=" M 527.997 464.306 C 529.265 464.306 530.532 464.306 531.838 464.306 C 531.838 465.257 531.838 466.207 531.838 467.187 C 529.296 468.589 528.099 469.107 525.117 469.107 C 526.917 465.386 526.917 465.386 527.997 464.306 Z " fill="rgb(214,213,201)"/><path d=" M 551.042 385.57 C 550.725 386.203 550.409 386.837 550.082 387.49 C 547.888 388.098 547.888 388.098 545.221 388.57 C 544.339 388.731 543.456 388.892 542.547 389.058 C 541.524 389.232 541.524 389.232 540.48 389.41 C 543.69 385.301 545.962 385.179 551.042 385.57 Z " fill="rgb(214,213,201)"/><path d=" M 566.406 342.36 C 569.891 342.36 573.377 342.36 576.968 342.36 C 576.017 343.786 576.017 343.786 575.047 345.241 C 570.77 344.29 570.77 344.29 566.406 343.321 C 566.406 343.004 566.406 342.687 566.406 342.36 Z " fill="rgb(214,213,201)"/><path d=" M 353.241 461.425 C 352.924 462.693 352.607 463.96 352.281 465.266 C 350.696 465.583 349.112 465.9 347.479 466.226 C 347.84 464.366 347.84 464.366 348.44 462.386 C 350.36 461.425 350.36 461.425 353.241 461.425 Z " fill="rgb(214,213,201)"/><path d=" M 457.903 415.336 C 461.143 415.216 461.143 415.216 464.624 415.336 C 465.258 415.97 465.892 416.603 466.545 417.256 C 466.228 417.89 465.911 418.524 465.584 419.177 C 463.326 418.602 461.085 417.958 458.863 417.256 C 458.546 416.622 458.229 415.989 457.903 415.336 Z " fill="rgb(214,213,201)"/><path d=" M 503.992 392.291 C 506.867 393.345 507.685 393.901 509.033 396.732 C 509.271 397.484 509.509 398.237 509.754 399.012 C 509.12 399.012 508.486 399.012 507.833 399.012 C 507.516 400.28 507.199 401.547 506.873 402.853 C 506.404 400.947 505.935 399.04 505.466 397.133 C 505.039 395.501 504.526 393.892 503.992 392.291 Z " fill="rgb(214,213,201)"/><path d=" M 556.804 386.53 C 556.804 387.163 556.804 387.797 556.804 388.45 C 552.526 388.925 552.526 388.925 548.162 389.41 C 550.082 386.53 550.082 386.53 552.483 385.81 C 554.883 385.57 554.883 385.57 556.804 386.53 Z " fill="rgb(214,213,201)"/><path d=" M 506.873 344.281 C 506.873 345.881 506.873 347.482 506.873 349.082 C 504.655 349.082 502.437 349.082 500.152 349.082 C 500.152 348.448 500.152 347.814 500.152 347.161 C 502.37 346.211 504.588 345.26 506.873 344.281 Z " fill="rgb(214,213,201)"/><path d=" M 720.998 449.903 C 720.681 450.854 720.364 451.804 720.038 452.784 C 718.454 452.784 716.869 452.784 715.237 452.784 C 715.237 451.833 715.237 450.882 715.237 449.903 C 717.629 448.707 718.512 449.157 720.998 449.903 Z " fill="rgb(214,213,201)"/><path d=" M 353.241 443.182 C 352.924 444.449 352.607 445.717 352.281 447.022 C 350.696 446.706 349.112 446.389 347.479 446.062 C 347.479 445.429 347.479 444.795 347.479 444.142 C 349.4 443.182 349.4 443.182 353.241 443.182 Z " fill="rgb(214,213,201)"/><path d=" M 525.117 432.619 C 525.117 433.57 525.117 434.521 525.117 435.5 C 523.533 435.817 521.948 436.134 520.316 436.46 C 519.999 435.51 519.682 434.559 519.356 433.58 C 521.276 432.619 521.276 432.619 525.117 432.619 Z " fill="rgb(214,213,201)"/><path d=" M 500.152 376.928 C 503.392 377.453 505.032 377.941 507.833 379.808 C 507.516 380.759 507.199 381.71 506.873 382.689 C 505.75 381.913 504.63 381.132 503.512 380.348 C 502.888 379.914 502.265 379.48 501.622 379.032 C 501.137 378.654 500.652 378.277 500.152 377.888 C 500.152 377.571 500.152 377.254 500.152 376.928 Z " fill="rgb(214,213,201)"/><path d=" M 494.39 322.196 C 497.151 322.496 497.151 322.496 500.152 323.156 C 500.785 324.107 501.419 325.058 502.072 326.037 C 499.852 326.277 499.852 326.277 497.271 326.037 C 495.531 324.117 495.531 324.117 494.39 322.196 Z " fill="rgb(214,213,201)"/><path d=" M 536.639 474.868 C 537.59 474.868 538.54 474.868 539.52 474.868 C 539.203 476.136 538.886 477.403 538.56 478.709 C 537.292 478.709 536.025 478.709 534.719 478.709 C 535.353 477.442 535.986 476.174 536.639 474.868 Z " fill="rgb(214,213,201)"/><path d=" M 478.067 412.455 C 481.575 413.655 482.657 414.06 484.788 417.256 C 483.838 417.89 482.887 418.524 481.908 419.177 C 480.007 415.849 480.007 415.849 478.067 412.455 Z " fill="rgb(214,213,201)"/><path d=" M 396.45 646.744 C 397.4 647.061 398.351 647.378 399.33 647.705 C 398.38 649.131 398.38 649.131 397.41 650.585 C 393.929 650.765 393.929 650.765 390.689 650.585 C 391.283 650.308 391.877 650.031 392.489 649.745 C 394.657 648.725 394.657 648.725 396.45 646.744 Z " fill="rgb(214,213,201)"/><path d=" M 621.137 463.346 C 621.137 463.98 621.137 464.613 621.137 465.266 C 620.503 465.266 619.87 465.266 619.217 465.266 C 619.217 465.9 619.217 466.534 619.217 467.187 C 616.84 466.236 616.84 466.236 614.416 465.266 C 617.296 463.346 617.296 463.346 621.137 463.346 Z " fill="rgb(214,213,201)"/><path d=" M 636.5 425.898 C 637.134 425.898 637.768 425.898 638.421 425.898 C 636.989 429.542 634.813 431.285 631.699 433.58 C 632.333 431.995 632.967 430.411 633.62 428.779 C 634.253 428.779 634.887 428.779 635.54 428.779 C 635.857 427.828 636.174 426.877 636.5 425.898 Z " fill="rgb(214,213,201)"/><path d=" M 552.003 341.4 C 554.854 342.351 557.706 343.301 560.644 344.281 C 559.694 344.915 558.743 345.548 557.764 346.201 C 555.863 345.251 553.961 344.3 552.003 343.321 C 552.003 342.687 552.003 342.053 552.003 341.4 Z " fill="rgb(214,213,201)"/></g></g></svg>