<?xml version="1.0" encoding="UTF-8" standalone="no"?><!-- Generator: Gravit.io --><svg xmlns="http://www.w3.org/2000/svg" xmlns:xlink="http://www.w3.org/1999/xlink" style="isolation:isolate" viewBox="0 0 1080 1080" width="1080pt" height="1080pt"><defs><clipPath id="_clipPath_fvZCw4mmzx1xfavDyjRglsVxS6vSyrR3"><rect width="1080" height="1080"/></clipPath></defs><g clip-path="url(#_clipPath_fvZCw4mmzx1xfavDyjRglsVxS6vSyrR3)"><g><path d=" M 543.463 131 C 549.557 143.382 554.371 155.805 559.471 168.135 C 564.166 179.485 573.575 174.818 581.262 172.232 C 613.699 161.316 645.516 163.308 676.921 175.086 C 682.176 177.057 686.722 180.513 695.174 185.316 C 669.221 188.522 647.632 191.189 626.043 193.856 C 625.956 195.544 625.869 197.232 625.782 198.919 C 689.287 196.355 742.587 213.635 781.092 260.457 C 744.633 245.505 706.607 237.912 665.557 239.196 C 732.028 262.538 779.798 300.855 796.949 364.415 C 765.684 337.245 735.069 309.593 691.555 296.907 C 740.795 336.165 772.934 382.803 775.54 442.984 C 751.111 411.231 727.513 379.13 689.899 356.856 C 721.497 410.934 733.997 467.013 720.294 526.721 C 710.122 503.275 701.509 479.169 689.339 456.567 C 677.095 433.827 661.312 412.581 643.641 391.318 C 655.706 450.906 652.535 507.98 621.432 562.614 C 619.981 503.854 611.326 447.039 574.094 392.315 C 569.583 413.398 564.398 430.706 571.296 448.895 C 572.537 452.169 573.054 455.903 572.759 459.348 C 571.287 476.53 568.731 493.664 568.044 510.861 C 567.754 518.147 572.365 525.528 572.505 532.899 C 572.702 543.273 570.123 553.672 569.98 564.074 C 569.772 579.129 566.824 593.632 571.216 609.464 C 575.521 624.982 571.106 642.857 568.13 659.359 C 565.613 673.314 566.501 684.457 581.724 692.107 C 584.276 693.39 585.396 696.909 588.899 701.794 C 555.638 701.794 525.11 701.794 494.574 701.794 C 494.574 700.027 494.169 698.67 494.632 698.373 C 517.664 683.586 512.131 662.853 509.682 642.664 C 508.265 630.975 502.804 617.558 507.312 607.903 C 514.488 592.534 509.361 578.669 509.047 564.161 C 508.959 560.092 507.618 556.014 507.812 551.977 C 508.598 535.651 510.365 519.344 510.561 503.019 C 510.685 492.643 507.726 482.239 507.847 471.863 C 508.038 455.539 510.289 439.232 510.422 422.91 C 510.494 414.029 507.997 405.131 506.218 393.314 C 467.614 446.754 458.564 503.579 458.606 562.909 C 425.519 508.204 425.477 450.765 436.803 391.786 C 397.465 431.115 376.22 478.393 358.283 527.518 C 346.279 465.526 356.681 407.45 395.813 353.897 C 393.867 352.855 391.922 351.814 389.976 350.773 C 374.606 365.344 358.395 379.3 344.106 394.66 C 329.995 409.828 317.829 426.415 302.546 445.157 C 302.546 437.699 301.853 433.333 302.652 429.193 C 311.199 384.94 332.229 346.354 369.108 314.967 C 374.621 310.275 379.353 304.863 385.515 298.767 C 388.165 296.973 389.747 296.196 391.328 295.418 C 390.98 294.951 390.631 294.483 390.283 294.016 C 388.316 295.055 386.349 296.094 384.382 297.133 C 343.452 311.509 311.484 336.418 282.765 367.062 C 281.781 346.554 304.234 310.974 329.308 287.294 C 353.038 264.881 383.352 252.312 413.827 239.179 C 373.437 237.703 335.494 245.487 298.998 260.45 C 336.238 212.015 390.79 197.734 453.28 198.857 C 453.437 197.738 453.595 196.619 453.752 195.5 C 443.516 193.319 433.39 190.464 423.015 189.141 C 412.1 187.75 400.947 187.823 388.459 184.052 C 393.01 181.183 397.194 177.62 402.171 175.559 C 433.95 162.404 466.558 161.388 499.023 172.868 C 511.805 177.389 517.902 174.585 521.846 163.507 C 525.534 153.147 530.493 143.142 535.137 131.99 C 537.691 131 540 131 543.463 131 Z  M 681.911 348.985" fill="rgb(214,213,201)"/><path d=" M 468.886 949 C 468.444 934.177 466.933 920.23 454.664 908.344 C 448.222 902.103 443.454 902.035 436.639 907.057 C 425.628 915.171 414.817 923.66 402.898 930.615 C 376.897 945.787 349.537 947.995 321.451 934.627 C 305.3 926.94 294.036 908.841 295.792 892.758 C 297.155 880.267 303.568 871.004 318.416 868.611 C 333.026 866.256 339.497 874.648 344.613 884.959 C 353.039 901.939 360.638 904.381 379.488 896.563 C 384.575 894.453 389.639 892.126 394.238 889.292 C 416.544 875.543 416.218 875.577 405.149 853.796 C 399.247 842.182 393.141 829.92 401.293 817.376 C 404.682 812.161 410.878 808.376 418.925 801.121 C 420.523 809.127 420.925 812.479 421.888 815.7 C 424.217 823.495 425.263 832.001 429.612 838.827 C 438.66 853.028 443.762 853.145 457.372 842.32 C 469.93 832.332 482.278 822.111 495.284 812.598 C 502.471 807.342 504.086 803.487 496.098 797.651 C 414.784 738.249 328.298 686.793 224.166 664.432 C 193 657.74 160.506 655.898 127.279 651.814 C 125.937 650.581 125.937 649.37 125.937 647.249 C 154.098 641.807 182.102 634.543 210.449 633.274 C 283.825 629.987 349.925 652.084 409.961 687.419 C 446.959 709.195 481.615 734.255 516.083 759.186 C 538.945 775.722 539.7 775.989 563.172 759.525 C 600.865 733.084 637.943 705.496 678.362 682.674 C 735.312 650.517 798.003 629.819 867.044 633.256 C 895.411 634.668 923.421 641.698 952.828 646.256 C 954.063 647.552 954.063 648.764 954.063 650.884 C 861.693 655.132 776.714 679.933 699.239 723.736 C 660.45 745.668 624.387 771.36 586.721 794.887 C 575.114 802.137 576.69 807.894 586.233 815.089 C 599.475 825.073 612.399 835.393 625.281 845.744 C 634.017 852.765 641.768 850.965 646.513 842.681 C 651.287 834.346 653.784 824.996 657.422 816.138 C 658.835 812.696 660.639 809.379 662.264 806.006 C 666.506 808.085 673.936 809.69 674.435 812.324 C 676.558 823.536 676.803 835.047 677.289 846.464 C 677.375 848.497 674.778 850.522 674.398 852.685 C 672.966 860.839 656.349 866.767 667.633 876.202 C 682.301 888.466 697.155 903.035 720.598 898.525 C 725.691 897.546 730.758 891.427 733.449 886.625 C 741.934 871.486 750.88 865.749 763.395 869.199 C 777.508 873.091 785.992 886.332 783.567 900.687 C 777.819 934.729 733.207 953.836 693.315 937.766 C 677.271 931.303 662.811 921.22 648.809 911.457 C 632.448 900.05 628.215 899.547 619.367 916.514 C 614.648 925.562 614.541 936.497 612.349 947.79 C 609.062 949 605.778 949 600.541 948.293 C 585.142 932.586 583.039 914.123 596.429 897.433 C 606.626 884.722 604.266 877.126 591.063 868.478 C 577.122 859.345 564.089 849.051 551.275 838.668 C 543.201 832.126 536.538 832.357 528.592 838.59 C 514.437 849.695 500.532 861.217 485.197 870.921 C 473.682 878.206 473.107 884.2 480.49 894.263 C 493.649 912.198 498.929 930.912 479.969 949 C 476.685 949 473.401 949 468.886 949 Z " fill="rgb(214,213,201)"/><path d=" M 384.611 297.381 C 386.349 296.094 388.316 295.055 390.283 294.016 C 390.631 294.483 390.98 294.951 391.328 295.418 C 389.747 296.196 388.165 296.973 385.941 297.94 C 385.298 298.13 384.841 297.63 384.611 297.381 Z " fill="rgb(71,112,76)"/></g></g></svg>