<svg version="1.1" id="Layer_1" xmlns="http://www.w3.org/2000/svg" xmlns:xlink="http://www.w3.org/1999/xlink" x="0px" y="0px"
	 width="100%" viewBox="0 0 269 300" enable-background="new 0 0 269 300" xml:space="preserve">
<path fill="#47704C" opacity="1.000000" stroke="none" 
	d="
M1.000000,190.000000 
	C1.000000,127.085670 1.000000,64.171349 1.000000,1.000000 
	C45.020561,1.000000 89.041618,1.000000 133.451752,1.363233 
	C132.411758,5.453121 130.801071,9.122508 129.603043,12.922016 
	C128.321991,16.984831 126.341438,18.012991 122.189339,16.355171 
	C111.643791,12.144629 101.051720,12.517417 90.729141,17.342073 
	C89.112366,18.097733 87.753212,19.404602 86.274940,20.456596 
	C90.331337,21.839869 93.954193,21.812813 97.499680,22.323175 
	C100.869888,22.808300 104.159225,23.855268 107.484116,24.655197 
	C107.432938,25.065565 107.381752,25.475935 107.330566,25.886303 
	C87.031998,25.474428 69.312027,30.712109 57.215172,48.475620 
	C69.070412,42.987873 81.395439,40.133068 94.515106,40.674603 
	C84.616013,45.490952 74.769196,50.100594 67.060730,58.320366 
	C58.916046,67.005287 51.622673,80.053932 51.942261,87.575401 
	C61.271252,76.336807 71.655205,67.201401 85.025124,62.020004 
	C85.099792,62.111176 85.247971,62.294468 85.109802,62.597828 
	C83.317101,64.763947 81.779968,66.748878 79.989082,68.469727 
	C68.009552,79.980789 61.178635,94.132103 58.402245,110.361816 
	C58.142506,111.880142 58.367622,113.481407 58.367622,116.216415 
	C63.332275,109.342941 67.284180,103.259727 71.867653,97.696899 
	C76.509071,92.063736 81.775146,86.945244 86.767616,81.601326 
	C87.399643,81.983200 88.031670,82.365067 88.663704,82.746941 
	C75.952400,102.387505 72.573532,123.686775 76.472702,146.422256 
	C82.299408,128.405807 89.200233,111.066528 101.978355,96.642677 
	C98.299477,118.273224 98.312973,139.338821 109.060699,159.401749 
	C109.047241,137.642761 111.986877,116.802063 124.526520,97.203064 
	C125.104362,101.537140 125.915512,104.800385 125.892044,108.057632 
	C125.848923,114.043648 125.117729,120.024109 125.055893,126.010826 
	C125.016586,129.816223 125.977577,133.632004 125.937248,137.437271 
	C125.873810,143.424530 125.299675,149.404922 125.044495,155.392609 
	C124.981400,156.873276 125.416931,158.368820 125.445526,159.860931 
	C125.547462,165.181625 127.212814,170.266663 124.881981,175.903229 
	C123.417747,179.444122 125.191498,184.364914 125.651917,188.651672 
	C126.447182,196.056015 128.244629,203.659927 120.763069,209.083160 
	C120.612816,209.192078 120.744209,209.689529 120.744209,210.337769 
	C130.663391,210.337769 140.579819,210.337769 151.383850,210.337769 
	C150.246094,208.545959 149.882278,207.255539 149.053238,206.785126 
	C144.108200,203.979431 143.820007,199.892563 144.637466,194.774872 
	C145.604218,188.722534 147.038208,182.166946 145.639847,176.475647 
	C144.213272,170.669434 145.170944,165.350494 145.238342,159.829117 
	C145.284897,156.014206 146.122726,152.200546 146.058655,148.395554 
	C146.013138,145.692261 144.515259,142.985321 144.609680,140.313370 
	C144.832535,134.006256 145.662979,127.722397 146.141068,121.421043 
	C146.236923,120.157692 146.069046,118.788101 145.665741,117.587425 
	C143.425049,110.916679 145.109482,104.568863 146.574707,96.836693 
	C158.668945,116.906563 161.480331,137.743622 161.951675,159.293533 
	C172.054688,139.256546 173.084732,118.324966 169.165802,96.471008 
	C174.905670,104.269478 180.032486,112.061104 184.009781,120.400940 
	C187.963043,128.690430 190.760666,137.531067 194.065063,146.130020 
	C198.516159,124.232002 194.455566,103.665184 184.191635,83.832352 
	C196.410004,92.001244 204.075211,103.774170 212.010590,115.419441 
	C211.164093,93.348213 200.724411,76.243820 184.729523,61.846100 
	C198.864334,66.498505 208.808838,76.640015 218.964691,86.604393 
	C213.393570,63.293835 197.876495,49.241333 176.284668,40.680836 
	C189.618973,40.209911 201.971100,42.994617 213.813858,48.478264 
	C201.306488,31.306107 183.992966,24.968796 163.364487,25.909258 
	C163.392776,25.290337 163.421082,24.671415 163.449387,24.052494 
	C170.462082,23.074373 177.474792,22.096254 185.905273,20.920385 
	C183.159653,19.158768 181.683075,17.891479 179.975967,17.168585 
	C169.774628,12.848738 159.439789,12.118181 148.903107,16.121582 
	C146.406082,17.070314 143.349747,18.781961 141.824722,14.619169 
	C140.168106,10.097172 138.604279,5.541173 137.000000,1.000000 
	C181.273026,1.000000 225.546066,1.000000 270.000000,1.000000 
	C270.000000,63.687447 270.000000,126.375061 269.599060,189.500580 
	C260.046814,188.297516 250.948151,185.719452 241.733688,185.201508 
	C219.307083,183.940887 198.943283,191.532074 180.444244,203.325363 
	C167.314865,211.695465 155.270782,221.813309 143.026840,231.510345 
	C135.402603,237.548645 135.157364,237.450729 127.731003,231.386032 
	C116.534866,222.242767 105.277596,213.051956 93.259331,205.065643 
	C73.757973,192.106705 52.286594,184.002518 28.451929,185.207947 
	C19.244055,185.673630 10.147352,188.337570 1.000000,190.000000 
z"/>
<path fill="#14693C" opacity="1.000000" stroke="none" 
	d="
M136.625000,1.000000 
	C138.604279,5.541173 140.168106,10.097172 141.824722,14.619169 
	C143.349747,18.781961 146.406082,17.070314 148.903107,16.121582 
	C159.439789,12.118181 169.774628,12.848738 179.975967,17.168585 
	C181.683075,17.891479 183.159653,19.158768 185.905273,20.920385 
	C177.474792,22.096254 170.462082,23.074373 163.449387,24.052494 
	C163.421082,24.671415 163.392776,25.290337 163.364487,25.909258 
	C183.992966,24.968796 201.306488,31.306107 213.813858,48.478264 
	C201.971100,42.994617 189.618973,40.209911 176.284668,40.680836 
	C197.876495,49.241333 213.393570,63.293835 218.964691,86.604393 
	C208.808838,76.640015 198.864334,66.498505 184.729523,61.846100 
	C200.724411,76.243820 211.164093,93.348213 212.010590,115.419441 
	C204.075211,103.774170 196.410004,92.001244 184.191635,83.832352 
	C194.455566,103.665184 198.516159,124.232002 194.065063,146.130020 
	C190.760666,137.531067 187.963043,128.690430 184.009781,120.400940 
	C180.032486,112.061104 174.905670,104.269478 169.165802,96.471008 
	C173.084732,118.324966 172.054688,139.256546 161.951675,159.293533 
	C161.480331,137.743622 158.668945,116.906563 146.574707,96.836693 
	C145.109482,104.568863 143.425049,110.916679 145.665741,117.587425 
	C146.069046,118.788101 146.236923,120.157692 146.141068,121.421043 
	C145.662979,127.722397 144.832535,134.006256 144.609680,140.313370 
	C144.515259,142.985321 146.013138,145.692261 146.058655,148.395554 
	C146.122726,152.200546 145.284897,156.014206 145.238342,159.829117 
	C145.170944,165.350494 144.213272,170.669434 145.639847,176.475647 
	C147.038208,182.166946 145.604218,188.722534 144.637466,194.774872 
	C143.820007,199.892563 144.108200,203.979431 149.053238,206.785126 
	C149.882278,207.255539 150.246094,208.545959 151.383850,210.337769 
	C140.579819,210.337769 130.663391,210.337769 120.744209,210.337769 
	C120.744209,209.689529 120.612816,209.192078 120.763069,209.083160 
	C128.244629,203.659927 126.447182,196.056015 125.651917,188.651672 
	C125.191498,184.364914 123.417747,179.444122 124.881981,175.903229 
	C127.212814,170.266663 125.547462,165.181625 125.445526,159.860931 
	C125.416931,158.368820 124.981400,156.873276 125.044495,155.392609 
	C125.299675,149.404922 125.873810,143.424530 125.937248,137.437271 
	C125.977577,133.632004 125.016586,129.816223 125.055893,126.010826 
	C125.117729,120.024109 125.848923,114.043648 125.892044,108.057632 
	C125.915512,104.800385 125.104362,101.537140 124.526520,97.203064 
	C111.986877,116.802063 109.047241,137.642761 109.060699,159.401749 
	C98.312973,139.338821 98.299477,118.273224 101.978355,96.642677 
	C89.200233,111.066528 82.299408,128.405807 76.472702,146.422256 
	C72.573532,123.686775 75.952400,102.387505 88.663704,82.746941 
	C88.031670,82.365067 87.399643,81.983200 86.767616,81.601326 
	C81.775146,86.945244 76.509071,92.063736 71.867653,97.696899 
	C67.284180,103.259727 63.332275,109.342941 58.367622,116.216415 
	C58.367622,113.481407 58.142506,111.880142 58.402245,110.361816 
	C61.178635,94.132103 68.009552,79.980789 79.989082,68.469727 
	C81.779968,66.748878 83.317101,64.763947 85.318726,62.528282 
	C86.179504,61.870270 86.693192,61.585155 87.206879,61.300045 
	C87.093742,61.128590 86.980598,60.957134 86.867455,60.785683 
	C86.228455,61.166733 85.589455,61.547783 84.950455,61.928833 
	C71.655205,67.201401 61.271252,76.336807 51.942261,87.575401 
	C51.622673,80.053932 58.916046,67.005287 67.060730,58.320366 
	C74.769196,50.100594 84.616013,45.490952 94.515106,40.674603 
	C81.395439,40.133068 69.070412,42.987873 57.215172,48.475620 
	C69.312027,30.712109 87.031998,25.474428 107.330566,25.886303 
	C107.381752,25.475935 107.432938,25.065565 107.484116,24.655197 
	C104.159225,23.855268 100.869888,22.808300 97.499680,22.323175 
	C93.954193,21.812813 90.331337,21.839869 86.274940,20.456596 
	C87.753212,19.404602 89.112366,18.097733 90.729141,17.342073 
	C101.051720,12.517417 111.643791,12.144629 122.189339,16.355171 
	C126.341438,18.012991 128.321991,16.984831 129.603043,12.922016 
	C130.801071,9.122508 132.411758,5.453121 133.920410,1.363233 
	C134.750000,1.000000 135.500000,1.000000 136.625000,1.000000 
M181.597076,80.945549 
	C181.597076,80.945549 181.593567,81.034981 181.597076,80.945549 
z"/>
<path fill="#47704C" opacity="1.000000" stroke="none" 
	d="
M270.000000,192.000000 
	C270.000000,228.260941 270.000000,264.521881 270.000000,301.000000 
	C233.312729,301.000000 196.625015,301.000000 159.469696,300.556366 
	C159.713028,296.414642 159.747864,292.404236 161.280716,289.085785 
	C164.155029,282.863190 165.529846,283.047699 170.844360,287.231293 
	C175.392563,290.811676 180.089706,294.509796 185.301224,296.880066 
	C198.259628,302.773743 212.750687,295.765961 214.618057,283.281250 
	C215.405518,278.016541 212.649918,273.160339 208.065353,271.733276 
	C204.000168,270.467896 201.094421,272.571838 198.338028,278.124207 
	C197.463837,279.885162 195.817917,282.129303 194.163834,282.488556 
	C186.548615,284.142365 181.723648,278.799377 176.959015,274.301422 
	C173.293823,270.841370 178.691528,268.667084 179.156647,265.676636 
	C179.280045,264.883270 180.123520,264.140686 180.095459,263.395142 
	C179.937881,259.208069 179.858292,254.986404 179.168457,250.874435 
	C179.006363,249.908142 176.592896,249.319519 175.215164,248.557159 
	C174.687073,249.794388 174.101227,251.010620 173.642181,252.272934 
	C172.460617,255.521912 171.649475,258.950745 170.098709,262.007568 
	C168.557419,265.045715 166.039597,265.705902 163.201691,263.131104 
	C159.017502,259.334808 154.819168,255.550018 150.517807,251.888382 
	C147.418167,249.249756 146.906097,247.138168 150.676346,244.479279 
	C162.911331,235.850769 174.625656,226.428223 187.225754,218.384964 
	C212.391785,202.320206 239.995728,193.224319 270.000000,192.000000 
z"/>
<path fill="#47704C" opacity="1.000000" stroke="none" 
	d="
M112.000000,301.000000 
	C75.073715,301.000000 38.147430,301.000000 1.000000,301.000000 
	C1.000000,264.979401 1.000000,228.958359 1.435792,192.476212 
	C12.228945,193.505539 22.783922,194.180878 32.907558,196.635315 
	C66.732658,204.836151 94.825920,223.707413 121.239410,245.493179 
	C123.834099,247.633270 123.309387,249.047241 120.974838,250.974991 
	C116.750084,254.463562 112.739182,258.212219 108.659813,261.875488 
	C104.238861,265.845490 102.581802,265.802399 99.642792,260.594269 
	C98.229973,258.090698 97.890038,254.971436 97.133568,252.112640 
	C96.820969,250.931274 96.690224,249.701813 96.171249,246.765823 
	C93.557434,249.426315 91.544624,250.814377 90.443657,252.727234 
	C87.795845,257.327667 89.779274,261.824646 91.696404,266.084015 
	C95.291893,274.072235 95.397812,274.059784 88.151978,279.102020 
	C86.658287,280.141418 85.013344,280.994995 83.360695,281.768890 
	C77.237778,284.635925 74.769516,283.740570 72.032471,277.512909 
	C70.370605,273.731567 68.268738,270.653687 63.522812,271.517365 
	C58.699821,272.395050 56.616608,275.792419 56.173775,280.373260 
	C55.603554,286.271851 59.262375,292.909546 64.508781,295.728760 
	C73.632027,300.631256 82.519142,299.821472 90.965210,294.257172 
	C94.836823,291.706543 98.348419,288.593231 101.925301,285.617340 
	C104.138878,283.775665 105.687599,283.800446 107.780205,286.089386 
	C111.765793,290.448822 112.256325,295.563812 112.000000,301.000000 
z"/>
<path fill="#146A3C" opacity="1.000000" stroke="none" 
	d="
M112.399994,301.000000 
	C112.256325,295.563812 111.765793,290.448822 107.780205,286.089386 
	C105.687599,283.800446 104.138878,283.775665 101.925301,285.617340 
	C98.348419,288.593231 94.836823,291.706543 90.965210,294.257172 
	C82.519142,299.821472 73.632027,300.631256 64.508781,295.728760 
	C59.262375,292.909546 55.603554,286.271851 56.173775,280.373260 
	C56.616608,275.792419 58.699821,272.395050 63.522812,271.517365 
	C68.268738,270.653687 70.370605,273.731567 72.032471,277.512909 
	C74.769516,283.740570 77.237778,284.635925 83.360695,281.768890 
	C85.013344,280.994995 86.658287,280.141418 88.151978,279.102020 
	C95.397812,274.059784 95.291893,274.072235 91.696404,266.084015 
	C89.779274,261.824646 87.795845,257.327667 90.443657,252.727234 
	C91.544624,250.814377 93.557434,249.426315 96.171249,246.765823 
	C96.690224,249.701813 96.820969,250.931274 97.133568,252.112640 
	C97.890038,254.971436 98.229973,258.090698 99.642792,260.594269 
	C102.581802,265.802399 104.238861,265.845490 108.659813,261.875488 
	C112.739182,258.212219 116.750084,254.463562 120.974838,250.974991 
	C123.309387,249.047241 123.834099,247.633270 121.239410,245.493179 
	C94.825920,223.707413 66.732658,204.836151 32.907558,196.635315 
	C22.783922,194.180878 12.228945,193.505539 1.435792,192.007553 
	C1.000000,191.555557 1.000000,191.111099 1.000000,190.333328 
	C10.147352,188.337570 19.244055,185.673630 28.451929,185.207947 
	C52.286594,184.002518 73.757973,192.106705 93.259331,205.065643 
	C105.277596,213.051956 116.534866,222.242767 127.731003,231.386032 
	C135.157364,237.450729 135.402603,237.548645 143.026840,231.510345 
	C155.270782,221.813309 167.314865,211.695465 180.444244,203.325363 
	C198.943283,191.532074 219.307083,183.940887 241.733688,185.201508 
	C250.948151,185.719452 260.046814,188.297516 269.599060,189.969238 
	C270.000000,190.444443 270.000000,190.888901 270.000000,191.666672 
	C239.995728,193.224319 212.391785,202.320206 187.225754,218.384964 
	C174.625656,226.428223 162.911331,235.850769 150.676346,244.479279 
	C146.906097,247.138168 147.418167,249.249756 150.517807,251.888382 
	C154.819168,255.550018 159.017502,259.334808 163.201691,263.131104 
	C166.039597,265.705902 168.557419,265.045715 170.098709,262.007568 
	C171.649475,258.950745 172.460617,255.521912 173.642181,252.272934 
	C174.101227,251.010620 174.687073,249.794388 175.215164,248.557159 
	C176.592896,249.319519 179.006363,249.908142 179.168457,250.874435 
	C179.858292,254.986404 179.937881,259.208069 180.095459,263.395142 
	C180.123520,264.140686 179.280045,264.883270 179.156647,265.676636 
	C178.691528,268.667084 173.293823,270.841370 176.959015,274.301422 
	C181.723648,278.799377 186.548615,284.142365 194.163834,282.488556 
	C195.817917,282.129303 197.463837,279.885162 198.338028,278.124207 
	C201.094421,272.571838 204.000168,270.467896 208.065353,271.733276 
	C212.649918,273.160339 215.405518,278.016541 214.618057,283.281250 
	C212.750687,295.765961 198.259628,302.773743 185.301224,296.880066 
	C180.089706,294.509796 175.392563,290.811676 170.844360,287.231293 
	C165.529846,283.047699 164.155029,282.863190 161.280716,289.085785 
	C159.747864,292.404236 159.713028,296.414642 159.001038,300.556366 
	C157.933334,301.000000 156.866653,301.000000 155.165405,300.740845 
	C150.163422,294.980164 149.480331,288.208954 153.829865,282.087769 
	C157.142166,277.426300 156.375381,274.640503 152.086868,271.468658 
	C147.558319,268.119232 143.324799,264.343994 139.162506,260.536041 
	C136.539780,258.136566 134.375412,258.221466 131.794418,260.507477 
	C127.196289,264.580078 122.679604,268.805725 117.698181,272.364532 
	C113.958054,275.036560 113.771042,277.234619 116.169357,280.925293 
	C120.443802,287.503113 122.159035,294.366241 116.000000,301.000000 
	C114.933327,301.000000 113.866661,301.000000 112.399994,301.000000 
z"/>
<path fill="#47704C" opacity="1.000000" stroke="none" 
	d="
M116.468658,301.000000 
	C122.159035,294.366241 120.443802,287.503113 116.169357,280.925293 
	C113.771042,277.234619 113.958054,275.036560 117.698181,272.364532 
	C122.679604,268.805725 127.196289,264.580078 131.794418,260.507477 
	C134.375412,258.221466 136.539780,258.136566 139.162506,260.536041 
	C143.324799,264.343994 147.558319,268.119232 152.086868,271.468658 
	C156.375381,274.640503 157.142166,277.426300 153.829865,282.087769 
	C149.480331,288.208954 150.163422,294.980164 154.765411,300.740845 
	C142.312439,301.000000 129.624878,301.000000 116.468658,301.000000 
z"/>
<path fill="#47704C" opacity="1.000000" stroke="none" 
	d="
M85.025124,62.020004 
	C85.589455,61.547783 86.228455,61.166733 86.867455,60.785683 
	C86.980598,60.957134 87.093742,61.128590 87.206879,61.300045 
	C86.693192,61.585155 86.179504,61.870270 85.456894,62.224922 
	C85.247971,62.294468 85.099792,62.111176 85.025124,62.020004 
z"/>
<path fill="#47704C" opacity="1.000000" stroke="none" 
	d="
M181.595322,80.990265 
	C181.593567,81.034981 181.597076,80.945549 181.595322,80.990265 
z"/>
</svg>