<?xml version="1.0" encoding="UTF-8" standalone="no"?><!-- Generator: Gravit.io --><svg xmlns="http://www.w3.org/2000/svg" xmlns:xlink="http://www.w3.org/1999/xlink" style="isolation:isolate" viewBox="0 0 1080 1080" width="1080pt" height="1080pt"><defs><clipPath id="_clipPath_S882WWtuFUVwzNBScr7eZTPNhdLRdt0G"><rect width="1080" height="1080"/></clipPath></defs><g clip-path="url(#_clipPath_S882WWtuFUVwzNBScr7eZTPNhdLRdt0G)"><g><path d=" M 1006.184 515.021 C 1003.198 527.129 1000.367 538.818 997.493 550.688 C 988.6 550.688 979.932 550.688 969.951 550.688 C 965.918 530.14 961.824 509.279 957.647 487.993 C 953.554 509.179 949.533 529.996 945.487 550.935 C 936.465 550.935 928.499 551.033 920.54 550.825 C 919.412 550.796 917.577 549.465 917.323 548.43 C 910.421 520.209 903.682 491.948 896.929 463.69 C 896.897 463.555 897.067 463.372 897.251 462.983 C 904.193 462.983 911.248 462.983 919.425 462.983 C 923.579 481.673 927.819 500.756 931.556 517.574 C 935.243 500.953 939.457 481.954 943.678 462.923 C 953.132 462.923 961.992 462.923 971.615 462.923 C 975.832 481.923 980.08 501.067 983.8 517.832 C 987.512 501.114 991.76 481.983 996.003 462.872 C 1003.728 462.872 1010.827 462.872 1018.634 462.872 C 1014.5 480.268 1010.42 497.436 1006.184 515.021 Z " fill="rgb(185,186,163)"/><path d=" M 502.112 524.983 C 502.112 514.762 502.112 505.074 502.112 495.386 C 501.791 495.282 501.469 495.177 501.147 495.073 C 495.562 503.553 489.975 512.033 484.393 520.515 C 479.204 528.4 479.225 528.389 474.183 520.705 C 468.483 512.02 462.745 503.359 456.277 493.555 C 456.277 513.422 456.277 531.956 456.277 550.71 C 448.964 550.71 442.087 550.71 435.003 550.71 C 435.003 521.321 435.003 492.094 435.003 462.342 C 442.454 462.342 449.698 462.161 456.919 462.49 C 458.404 462.558 460.196 464.258 461.175 465.67 C 467.206 474.372 473.044 483.206 479.222 492.407 C 485.265 483.364 491.144 474.728 496.826 465.965 C 498.538 463.325 500.431 462.111 503.712 462.256 C 510.087 462.538 516.484 462.339 523.278 462.339 C 523.278 491.772 523.278 520.983 523.278 550.564 C 516.497 550.564 509.504 550.564 502.112 550.564 C 502.112 542.148 502.112 533.832 502.112 524.983 Z " fill="rgb(185,186,163)"/><path d=" M 331.291 462.752 C 338.398 462.753 344.974 462.651 351.546 462.775 C 366.13 463.049 376.416 470.875 379.269 483.721 C 382.849 499.837 377.632 511.368 363.036 518.469 C 370.483 529.049 377.872 539.546 385.883 550.927 C 376.932 550.927 368.71 551.073 360.504 550.775 C 359.221 550.729 357.747 548.845 356.811 547.498 C 351.547 539.924 346.254 532.359 341.325 524.568 C 339.138 521.112 336.778 519.342 332.321 520.981 C 332.321 530.632 332.321 540.533 332.321 550.682 C 324.891 550.682 317.851 550.682 310.532 550.682 C 310.532 521.42 310.532 492.377 310.532 462.752 C 317.336 462.752 324.047 462.752 331.291 462.752 Z  M 357.197 496.625 C 359.201 489.169 357.166 484.467 350.689 483.735 C 344.636 483.051 338.445 483.589 332.634 483.589 C 332.634 489.721 332.634 495.311 332.634 501.175 C 338.336 501.175 343.692 501.586 348.938 501.006 C 351.664 500.705 354.197 498.656 357.197 496.625 Z " fill="rgb(185,186,163)"/><path d=" M 803 523.686 C 794.73 499.343 804.81 474.576 826.567 465.138 C 849.697 455.104 876.1 463.708 887.239 484.91 C 899.273 507.815 890.583 536.207 868.063 547.564 C 844.346 559.524 815.958 550.347 804.437 526.991 C 803.966 526.036 803.543 525.058 803 523.686 Z  M 836.246 483.774 C 823.49 490.743 818.614 504.635 824.313 517.77 C 829.164 528.951 841.666 534.509 853.622 530.801 C 866.729 526.735 873.525 512.642 869.182 498.533 C 865.028 485.041 851.799 478.833 836.246 483.774 Z " fill="rgb(185,186,163)"/><path d=" M 782.146 532.992 C 772.688 545.217 760.361 550.778 745.471 550.911 C 734.484 551.01 723.496 550.931 712.352 550.931 C 712.352 521.403 712.352 492.305 712.352 463.507 C 726.643 463.507 741.147 461.534 754.904 463.903 C 786.864 469.407 800.212 504.311 782.146 532.992 Z  M 758.17 486.837 C 750.574 482.231 742.337 483.321 734.207 483.598 C 734.207 499.459 734.207 514.781 734.207 530.073 C 753.179 531.362 762.383 527.382 766.812 516.147 C 771.077 505.332 768.077 494.562 758.17 486.837 Z " fill="rgb(185,186,163)"/><path d=" M 63.791 491.622 C 63.857 474.266 74.602 462.626 92.783 461.405 C 100.189 460.908 108.115 461.96 115.197 464.214 C 127.341 468.079 132.554 477.966 133.966 490.733 C 127.326 490.733 120.962 490.854 114.611 490.621 C 113.471 490.579 111.741 489.293 111.375 488.211 C 108.546 479.86 92.774 479.977 87.888 484.137 C 84.324 487.173 85.116 491.64 89.727 492.991 C 95.505 494.684 101.445 495.818 107.294 497.276 C 109.868 497.918 112.418 498.683 114.933 499.53 C 129.26 504.353 134.85 511.571 134.665 524.919 C 134.49 537.527 127.212 546.588 113.922 550.649 C 103.74 553.76 93.526 553.468 83.546 550.039 C 70.31 545.491 63.525 535.655 61.473 521.73 C 68.825 521.73 75.86 521.73 82.967 521.73 C 88.046 531.05 97.021 534.809 107.285 531.177 C 109.49 530.397 112.22 527.544 112.341 525.505 C 112.446 523.72 109.549 520.675 107.421 520.032 C 99.641 517.684 91.526 516.454 83.727 514.157 C 72.741 510.923 64.749 504.575 63.791 491.622 Z " fill="rgb(185,186,163)"/><path d=" M 568.154 550.935 C 558.779 550.935 549.938 550.935 540.914 550.935 C 540.914 521.434 540.914 492.515 540.914 463.176 C 561.233 463.176 581.535 463.176 602.014 463.176 C 602.014 469.762 602.014 476.272 602.014 483.259 C 588.979 483.259 576.107 483.259 562.977 483.259 C 562.977 487.547 562.977 491.367 562.977 495.718 C 574.649 495.718 586.253 495.718 598.11 495.718 C 598.11 502.743 598.11 509.246 598.11 516.245 C 586.525 516.245 574.921 516.245 563.018 516.245 C 563.018 521.061 563.018 525.397 563.018 530.2 C 575.859 530.2 588.738 530.2 601.901 530.2 C 601.901 537.155 601.901 543.654 601.901 550.935 C 590.894 550.935 579.791 550.935 568.154 550.935 Z " fill="rgb(185,186,163)"/><path d=" M 216.16 527.121 C 224.067 505.294 231.893 483.877 239.71 462.482 C 248.905 462.482 257.773 462.482 266.948 462.482 C 277.563 491.713 288.167 520.914 299.068 550.932 C 291.545 550.932 284.678 551.006 277.816 550.844 C 276.909 550.823 275.925 549.702 275.178 548.902 C 274.739 548.432 274.724 547.58 274.472 546.918 C 272.657 542.156 272.11 535.521 268.65 533.161 C 265.108 530.745 258.707 532.421 253.56 532.484 C 248.101 532.551 241.358 530.953 237.563 533.558 C 234.021 535.99 233.628 542.991 231.813 547.967 C 231.455 548.95 230.934 549.874 230.445 550.917 C 223.41 550.917 216.484 550.926 209.558 550.899 C 209.069 550.897 208.581 550.634 207.729 550.386 C 210.542 542.686 213.31 535.108 216.16 527.121 Z  M 244.776 510.754 C 250.435 511.256 256.094 511.758 262.559 512.332 C 259.277 502.95 256.491 494.984 253.252 485.724 C 250.097 494.86 247.507 502.359 244.776 510.754 Z " fill="rgb(185,186,163)"/><path d=" M 689.976 521.453 C 693.564 531.293 697.021 540.735 700.756 550.932 C 693.367 550.932 686.516 551.054 679.677 550.806 C 678.603 550.767 677.144 549.246 676.631 548.074 C 675.215 544.837 673.746 541.502 673.145 538.058 C 672.282 533.105 669.652 532.142 665.059 532.346 C 656.373 532.731 647.657 532.457 638.786 532.457 C 637.067 537.457 635.249 542.253 633.798 547.158 C 632.969 549.962 631.739 551.167 628.603 551.021 C 622.434 550.733 616.241 550.936 609.185 550.936 C 612.652 541.434 615.908 532.554 619.132 523.662 C 626.008 504.693 632.966 485.753 639.642 466.714 C 640.859 463.244 642.458 462.039 646.103 462.248 C 651.952 462.582 657.845 462.558 663.697 462.256 C 667.244 462.073 668.976 463.071 670.214 466.61 C 676.583 484.82 683.27 502.918 689.976 521.453 Z  M 656.677 490.446 C 656.193 489.224 655.708 488.003 654.858 485.86 C 651.726 494.989 648.89 503.257 646.029 511.594 C 652.175 511.594 657.753 511.594 663.382 511.594 C 663.382 510.966 663.473 510.592 663.369 510.285 C 661.215 503.935 659.038 497.592 656.677 490.446 Z " fill="rgb(185,186,163)"/><path d=" M 204.156 462.755 C 206.951 462.755 209.234 462.755 211.652 462.755 C 211.652 469.736 211.652 476.269 211.652 483.33 C 203.81 483.33 196.094 483.33 188.048 483.33 C 188.048 506.005 188.048 528.156 188.048 550.62 C 180.67 550.62 173.634 550.62 166.258 550.62 C 166.258 528.415 166.258 506.276 166.258 483.648 C 158.221 483.648 150.49 483.648 142.429 483.648 C 142.429 476.538 142.429 469.911 142.429 462.755 C 162.884 462.755 183.265 462.755 204.156 462.755 Z " fill="rgb(185,186,163)"/><path d=" M 744.275 581.628 C 744.275 593.849 744.275 605.55 744.275 617.539 C 741.707 617.539 739.48 617.539 736.443 617.539 C 736.443 606.542 736.443 595.72 736.443 584.897 C 735.917 584.721 735.391 584.546 734.865 584.37 C 730.683 590.518 726.502 596.666 721.897 603.438 C 717.248 596.462 712.887 589.921 708.526 583.379 C 708.178 583.432 707.83 583.486 707.483 583.539 C 707.483 594.828 707.483 606.116 707.483 617.537 C 704.503 617.537 702.276 617.537 699.785 617.537 C 699.785 602.045 699.785 586.844 699.785 571.296 C 704.664 570.237 708.786 569.926 711.72 575.497 C 714.49 580.756 718.244 585.498 721.962 591.061 C 725.44 585.845 728.971 581.394 731.555 576.449 C 734.356 571.088 738.261 569.757 744.275 571.335 C 744.275 574.485 744.275 577.796 744.275 581.628 Z " fill="rgb(185,186,163)"/><path d=" M 291.458 617.823 C 289.636 617.835 288.237 617.835 286.492 617.835 C 286.492 602.166 286.492 586.81 286.492 571.114 C 293.796 571.114 301.235 570.561 308.552 571.266 C 316.167 572 320.297 576.857 321.19 584.173 C 322.077 591.433 318.767 596.361 309.955 600.226 C 314.296 605.866 318.549 611.392 323.1 617.304 C 317.763 618.507 313.581 618.411 310.678 613.225 C 309.05 610.315 306.387 607.996 304.644 605.135 C 302.219 601.156 299.16 599.284 293.843 600.981 C 293.843 605.013 293.999 609.382 293.753 613.729 C 293.675 615.121 292.536 616.452 291.458 617.823 Z  M 293.906 592.62 C 298.908 592.719 304.061 593.554 308.837 592.564 C 310.828 592.151 312.941 587.993 313.344 585.291 C 313.906 581.521 311.093 578.873 307.288 578.534 C 302.953 578.149 298.558 578.445 293.824 578.445 C 293.824 583.1 293.824 587.336 293.906 592.62 Z " fill="rgb(185,186,163)"/><path d=" M 617.227 601.849 C 613.509 585.576 622.054 572.506 637.532 570.209 C 650.596 568.27 663.109 578.617 664.328 592.365 C 665.447 604.972 657.364 615.435 644.181 618.445 C 633.87 620.799 621.98 613.623 617.227 601.849 Z  M 653.687 604.44 C 659.762 593.808 656.232 582.022 645.892 578.412 C 638.119 575.698 629.592 578.909 625.779 585.985 C 621.737 593.485 623.735 603.214 630.302 608.01 C 637.497 613.264 646.3 612.145 653.687 604.44 Z " fill="rgb(185,186,163)"/><path d=" M 240.781 574.897 C 249.605 582.018 252.224 590.917 249.428 601.286 C 246.603 611.765 238.844 616.947 228.674 618.642 C 219.975 620.091 209.552 614.267 205.128 606.106 C 200.393 597.371 201.467 586.281 207.787 578.656 C 213.558 571.691 224.49 568.279 232.814 571.069 C 235.469 571.96 237.923 573.452 240.781 574.897 Z  M 220.352 610.17 C 229.115 612.553 236.387 610.153 240.376 603.562 C 244.314 597.055 243.6 588.173 238.548 582.794 C 233.695 577.626 227.702 576.198 221.044 578.371 C 214.291 580.576 210.515 585.559 209.895 592.532 C 209.2 600.343 212.282 606.354 220.352 610.17 Z " fill="rgb(185,186,163)"/><path d=" M 68.758 615.846 C 64.281 612.679 60.844 609.31 61.432 603.459 C 65.179 602.732 67.771 602.801 69.87 606.763 C 72.565 611.85 83.429 613.113 88.069 609.54 C 91.887 606.6 91.232 601.655 86.517 600.034 C 82.18 598.542 77.586 597.818 73.167 596.542 C 65.107 594.213 61.687 590.567 61.612 584.546 C 61.533 578.193 65.66 573.353 72.982 570.855 C 82.542 567.593 96.389 572.975 97.241 583.524 C 93.606 583.965 90.504 584.544 87.715 580.579 C 84.917 576.6 75.769 576.141 72.053 579.37 C 70.657 580.583 69.487 583.005 69.639 584.751 C 69.76 586.131 71.851 587.927 73.435 588.477 C 77.604 589.925 82.002 590.694 86.258 591.914 C 95.206 594.479 99.008 598.954 98.184 605.722 C 97.32 612.817 90.97 618.735 82.945 618.705 C 78.332 618.687 73.724 616.972 68.758 615.846 Z " fill="rgb(185,186,163)"/><path d=" M 448.172 581.881 C 443.764 577.478 437.696 575.957 432.926 578.507 C 431.026 579.523 428.825 582.048 428.812 583.901 C 428.8 585.534 431.357 587.901 433.289 588.68 C 437.031 590.188 441.152 590.729 445.078 591.81 C 454.012 594.269 457.315 597.655 457.369 604.23 C 457.427 611.127 453.243 616.266 445.209 618.335 C 433.18 621.432 420.235 613.928 420.2 603.552 C 423.978 602.649 426.853 602.605 429.208 606.983 C 431.918 612.023 443.058 613.058 447.458 609.373 C 450.983 606.422 450.396 601.713 445.979 600.172 C 441.484 598.604 436.72 597.827 432.14 596.481 C 424.372 594.198 421.116 590.691 420.941 584.786 C 420.748 578.288 424.627 573.569 432.005 570.919 C 441.063 567.667 455.325 572.439 456.556 584.336 C 453.583 583.563 450.994 582.89 448.172 581.881 Z " fill="rgb(185,186,163)"/><path d=" M 544.874 597.825 C 546.631 605.087 550.787 609.612 557.765 610.914 C 564.451 612.162 569.665 609.665 574.186 604.445 C 575.823 602.554 579.508 602.436 582.905 601.291 C 580.523 612.145 569.748 619.634 559.394 618.796 C 547.199 617.809 537.884 608.442 537.026 596.302 C 536.125 583.557 543.528 573.586 556.117 570.588 C 567.171 567.955 578.448 574.234 583.548 587.302 C 579.634 586.118 575.964 586.102 574.149 584.259 C 568.015 578.028 561.756 575.838 554.662 578.645 C 548.066 581.255 544.469 587.409 544.647 595.806 C 544.658 596.336 544.765 596.864 544.874 597.825 Z " fill="rgb(185,186,163)"/><path d=" M 915.822 608.105 C 915.822 595.536 915.822 583.486 915.822 571.113 C 926 571.113 935.846 571.113 946.058 571.113 C 946.058 573.291 946.058 575.478 946.058 578.118 C 938.59 578.118 931.382 578.118 923.85 578.118 C 923.85 582.19 923.85 585.825 923.85 590.094 C 930.544 590.094 937.34 590.094 944.557 590.094 C 944.674 592.747 944.764 594.796 944.877 597.358 C 937.858 597.358 931.016 597.358 923.848 597.358 C 923.848 601.835 923.848 605.82 923.848 610.394 C 931.162 610.394 938.503 610.394 946.123 610.394 C 946.123 613.018 946.123 615.062 946.123 617.468 C 936.163 617.468 926.326 617.468 915.822 617.468 C 915.822 614.519 915.822 611.572 915.822 608.105 Z " fill="rgb(185,186,163)"/><path d=" M 168.201 581.586 C 170.313 594.615 164.263 601.821 151.522 601.968 C 148.198 602.006 144.874 601.973 141.124 601.973 C 141.124 607.366 141.124 612.276 141.124 617.518 C 138.479 617.518 136.259 617.518 133.625 617.518 C 133.625 602.205 133.625 586.873 133.625 571.494 C 141.384 571.494 149.285 571.04 157.104 571.649 C 162.584 572.076 166.414 575.699 168.201 581.586 Z  M 152.21 594.626 C 158.425 594.015 161.617 590.993 161.33 585.994 C 161.05 581.112 157.776 578.382 151.836 578.225 C 148.36 578.133 144.879 578.208 141.373 578.208 C 141.373 584.017 141.373 589.191 141.373 594.627 C 144.891 594.627 148.054 594.627 152.21 594.626 Z " fill="rgb(185,186,163)"/><path d=" M 807.969 572.055 C 815.782 576.064 818.819 581.974 817.295 589.578 C 815.78 597.132 810.504 601.512 802.128 601.919 C 798.24 602.108 794.335 601.952 789.801 601.952 C 789.801 607.257 789.801 612.289 789.801 617.58 C 786.942 617.58 784.72 617.58 782.185 617.58 C 782.185 602.034 782.185 586.68 782.185 570.293 C 790.736 570.841 799.158 571.382 807.969 572.055 Z  M 809.441 583.729 C 806.286 577.974 799.833 576.414 789.911 578.99 C 789.911 584.063 789.911 589.124 789.911 594.625 C 793.662 594.625 797.168 594.684 800.671 594.613 C 807.476 594.475 809.898 591.76 809.441 583.729 Z " fill="rgb(185,186,163)"/><path d=" M 988.739 586.899 C 985.367 581.633 982.211 576.701 978.818 571.397 C 984.028 570.062 988.084 570.053 990.695 575.651 C 992.528 579.581 995.211 583.115 997.952 587.531 C 1000.572 583.282 1003.144 579.87 1004.902 576.08 C 1007.413 570.669 1011.321 569.756 1016.939 571.381 C 1012.984 577.654 1009.314 583.884 1005.21 589.814 C 1003.107 592.852 1002.9 595.09 1005.127 598.223 C 1009.435 604.282 1013.246 610.695 1017.442 617.24 C 1011.968 618.697 1007.997 618.194 1005.425 612.639 C 1003.507 608.496 1000.653 604.787 997.746 600.133 C 994.986 604.57 992.126 608.328 990.174 612.511 C 987.627 617.972 983.746 618.827 978.141 617.259 C 981.847 611.364 984.998 605.364 989.105 600.11 C 992.799 595.383 993.076 591.485 988.739 586.899 Z " fill="rgb(185,186,163)"/><path d=" M 366.633 593.28 C 366.633 588.163 366.633 583.577 366.633 578.471 C 362.016 578.471 357.681 578.471 352.961 578.471 C 352.961 575.788 352.961 573.612 352.961 571.097 C 364.539 571.097 376.155 571.097 388.121 571.097 C 388.121 573.279 388.121 575.461 388.121 578.159 C 383.612 578.159 379.266 578.159 374.463 578.159 C 374.463 591.508 374.463 604.36 374.463 617.521 C 371.773 617.521 369.56 617.521 366.633 617.521 C 366.633 609.595 366.633 601.703 366.633 593.28 Z " fill="rgb(185,186,163)"/><path d=" M 880.325 617.731 C 871.162 617.813 862.487 617.813 853.382 617.813 C 853.382 602.251 853.382 586.937 853.382 571.206 C 855.418 571.206 857.619 571.206 860.463 571.206 C 860.463 583.959 860.463 596.966 860.463 610.399 C 867.752 610.399 874.42 610.399 882.117 610.399 C 881.616 613.185 881.215 615.417 880.325 617.731 Z " fill="rgb(185,186,163)"/></g></g></svg>