<?xml version="1.0" standalone="no"?>
<!DOCTYPE svg PUBLIC "-//W3C//DTD SVG 20010904//EN"
 "http://www.w3.org/TR/2001/REC-SVG-20010904/DTD/svg10.dtd">
<svg version="1.0" xmlns="http://www.w3.org/2000/svg"
 width="1000.000000pt" height="1000.000000pt" viewBox="0 0 1000.000000 1000.000000"
 preserveAspectRatio="xMidYMid meet">

<g transform="translate(0.000000,1000.000000) scale(0.100000,-0.100000)"
fill="#d6d5c9" stroke="none">
<path d="M4755 9889 c-2018 -96 -3775 -1437 -4409 -3366 -321 -977 -321 -2069
0 -3046 488 -1485 1646 -2643 3131 -3131 977 -321 2069 -321 3046 0 236 78
407 148 642 264 1184 582 2076 1610 2489 2867 321 977 321 2069 0 3046 -181
549 -462 1073 -818 1520 -677 852 -1620 1457 -2668 1712 -326 79 -599 118
-948 135 -223 11 -230 11 -465 -1z m740 -244 c1004 -115 1882 -506 2626 -1172
294 -262 549 -558 774 -898 419 -632 660 -1303 752 -2090 24 -212 24 -758 0
-970 -92 -787 -333 -1458 -752 -2090 -350 -529 -777 -958 -1305 -1310 -643
-429 -1304 -668 -2105 -762 -233 -27 -768 -24 -1012 5 -990 120 -1857 511
-2595 1169 -444 396 -838 921 -1095 1460 -225 473 -365 971 -430 1528 -27 233
-24 768 5 1012 128 1055 564 1974 1297 2731 370 383 852 730 1332 959 533 253
1118 404 1733 447 128 9 642 -4 775 -19z"/>
<path d="M4770 9444 c-222 -12 -573 -61 -780 -110 -978 -230 -1847 -781 -2475
-1569 -451 -566 -761 -1249 -889 -1954 -57 -313 -70 -468 -70 -811 0 -317 10
-450 55 -730 167 -1035 722 -2003 1539 -2686 551 -460 1228 -791 1910 -932
365 -76 561 -96 945 -96 347 0 564 20 865 80 1315 262 2445 1108 3070 2297
272 518 426 1036 492 1657 15 149 15 671 0 820 -36 334 -85 586 -173 878 -347
1158 -1180 2147 -2268 2692 -392 196 -842 342 -1261 409 -36 5 -83 13 -105 16
-180 29 -648 50 -855 39z m265 -362 l31 -97 112 -3 c62 -1 112 -6 112 -10 -1
-4 -39 -34 -85 -67 -47 -32 -85 -64 -85 -70 0 -6 13 -53 30 -105 16 -52 28
-95 26 -97 -1 -1 -39 24 -84 57 -45 33 -86 60 -92 60 -6 0 -47 -27 -92 -60
-45 -33 -83 -58 -84 -57 -2 2 10 45 26 97 17 52 30 99 30 105 0 6 -38 38 -85
70 -46 33 -84 63 -85 67 0 4 50 9 112 10 l112 3 31 97 c16 54 32 98 35 98 3 0
19 -44 35 -98z m-1686 -324 c27 -29 59 -66 72 -81 l24 -28 99 46 c54 25 100
44 102 42 2 -1 -21 -45 -51 -97 l-54 -95 27 -30 c14 -16 47 -51 71 -77 25 -26
42 -50 39 -53 -3 -3 -46 3 -97 15 -50 11 -96 20 -103 20 -7 0 -35 -41 -63 -90
-27 -50 -53 -90 -57 -90 -3 0 -9 39 -13 88 -11 130 -8 126 -117 147 -51 10
-97 21 -101 25 -4 3 37 26 92 50 99 42 99 43 95 74 -9 64 -20 186 -16 186 2 0
25 -24 51 -52z m3349 -25 c-4 -43 -9 -92 -12 -109 -4 -31 -4 -32 95 -74 55
-24 96 -47 92 -50 -4 -4 -50 -15 -101 -25 -109 -21 -106 -17 -117 -147 -4 -49
-10 -88 -13 -88 -4 0 -30 40 -57 90 -28 49 -56 90 -63 90 -7 0 -53 -9 -103
-20 -51 -12 -94 -18 -97 -15 -3 3 14 27 39 53 24 26 57 61 71 77 l27 30 -54
95 c-30 52 -53 96 -51 97 2 2 47 -17 102 -42 l98 -46 60 67 c34 37 65 73 69
80 18 31 23 10 15 -63z m-1328 -383 c779 -92 1463 -422 2010 -969 555 -556
879 -1231 972 -2026 16 -142 16 -568 0 -710 -93 -795 -418 -1472 -972 -2025
-553 -554 -1230 -879 -2025 -972 -142 -16 -568 -16 -710 0 -795 93 -1472 418
-2025 972 -822 821 -1157 1970 -908 3114 133 615 450 1189 907 1646 556 554
1270 896 2026 970 61 5 128 12 150 14 72 7 478 -3 575 -14z m-3125 -581 c-4
-51 -9 -98 -12 -105 -5 -14 14 -24 156 -85 24 -11 42 -21 39 -24 -2 -2 -50
-14 -105 -26 -116 -24 -107 -14 -118 -151 -4 -48 -11 -85 -16 -83 -4 3 -31 45
-58 94 l-51 89 -108 -23 c-59 -13 -108 -22 -109 -21 -1 1 31 39 72 83 l75 81
-54 94 c-30 51 -53 94 -51 96 2 2 47 -16 101 -39 l98 -43 70 77 c38 42 72 77
74 77 3 0 1 -41 -3 -91z m5749 -20 c54 23 99 41 101 39 2 -2 -21 -45 -51 -96
l-54 -94 75 -81 c41 -44 73 -82 72 -83 -1 -1 -50 8 -109 21 l-108 23 -51 -89
c-27 -49 -54 -91 -58 -94 -5 -2 -12 35 -16 83 -11 137 -2 127 -118 151 -55 12
-103 24 -105 26 -3 3 15 13 39 24 142 61 161 71 156 85 -3 7 -8 55 -12 107
l-7 94 75 -80 74 -79 97 43z m-7092 -2509 c50 -14 98 -70 98 -116 0 -45 -19
-81 -85 -159 l-55 -64 73 -3 72 -3 3 -42 3 -43 -155 0 -156 0 0 26 c0 18 29
61 95 141 52 64 95 123 95 133 0 43 -67 53 -85 13 -8 -20 -17 -23 -62 -23 -59
0 -63 7 -39 63 30 72 107 102 198 77z m443 -1 c50 -14 107 -72 123 -126 15
-49 15 -125 2 -175 -42 -149 -256 -186 -343 -60 -86 125 -40 311 90 357 47 17
76 18 128 4z m7420 -8 c121 -55 161 -230 81 -352 -63 -95 -224 -104 -303 -18
-48 53 -67 166 -41 253 32 107 160 164 263 117z m465 1 c0 -4 -16 -31 -36 -60
-20 -30 -34 -55 -32 -56 2 -1 25 -11 53 -22 71 -28 98 -71 93 -147 -4 -46 -10
-63 -34 -88 -57 -61 -143 -76 -220 -38 -55 26 -86 75 -86 133 0 50 3 55 85
189 l60 97 59 0 c32 0 58 -3 58 -8z m-6837 -2878 c61 -44 89 -96 84 -162 -2
-32 -10 -60 -20 -70 -16 -15 -19 -14 -51 17 -27 26 -34 40 -33 68 1 27 -6 41
-27 59 -30 27 -64 31 -72 10 -3 -8 16 -51 42 -95 63 -109 66 -157 12 -207 -36
-33 -55 -39 -108 -34 -91 8 -191 136 -177 226 3 20 13 47 22 61 l17 25 38 -37
c33 -33 37 -41 33 -74 -7 -49 35 -104 76 -99 38 4 36 26 -8 99 -50 83 -65 135
-50 178 27 76 138 93 222 35z m5473 -61 l213 -88 -41 -42 c-40 -40 -41 -41
-73 -27 l-33 14 -76 -71 -76 -71 16 -36 15 -36 -40 -40 c-22 -22 -42 -38 -44
-36 -7 8 -167 425 -167 435 0 12 72 85 84 85 5 0 105 -39 222 -87z m-420 -150
c11 -16 23 -33 27 -39 4 -7 -29 -39 -83 -80 -96 -73 -93 -68 -47 -121 l20 -22
69 54 c39 30 74 55 78 55 7 0 60 -64 60 -72 0 -2 -31 -28 -70 -57 -38 -30 -70
-58 -70 -63 0 -6 18 -33 40 -61 22 -27 39 -51 38 -52 -2 0 -21 -15 -44 -33
l-41 -31 -132 170 c-73 93 -131 174 -129 179 4 10 248 200 257 200 4 0 16 -12
27 -27z m-4688 -105 c158 -76 158 -318 0 -399 -228 -117 -443 167 -269 354 70
76 171 93 269 45z m4173 -279 c17 -34 18 -43 7 -50 -7 -5 -52 -29 -100 -55
l-87 -46 15 -29 c8 -16 17 -29 20 -29 3 0 42 19 86 42 86 44 81 45 114 -14
l14 -28 -62 -31 c-97 -49 -109 -58 -98 -78 25 -43 24 -43 119 9 50 27 96 50
101 50 9 0 54 -79 48 -85 -16 -13 -291 -156 -294 -153 -16 16 -204 381 -199
386 9 9 279 152 287 152 4 0 17 -19 29 -41z m-3745 -4 c87 -26 173 -121 174
-192 0 -18 -6 -22 -49 -25 -49 -3 -49 -3 -60 34 -23 74 -121 115 -189 79 -57
-31 -78 -119 -42 -178 32 -54 110 -80 160 -53 16 9 23 4 45 -33 14 -24 25 -46
25 -49 0 -12 -66 -28 -117 -28 -165 0 -276 145 -232 305 14 52 92 129 145 143
56 14 84 14 140 -3z m3357 -200 l16 -45 -32 -14 c-18 -7 -49 -18 -69 -25 -21
-7 -38 -16 -38 -21 0 -5 25 -72 55 -150 30 -78 55 -147 55 -154 0 -10 -89 -51
-96 -44 -1 2 -28 71 -59 153 -32 83 -59 152 -61 154 -2 2 -35 -8 -74 -22 l-70
-27 -15 36 c-8 20 -15 42 -15 49 0 10 346 152 377 154 6 1 18 -19 26 -44z
m-2843 -31 c47 -20 117 -90 131 -132 6 -18 9 -35 7 -38 -3 -2 -26 -8 -52 -13
-45 -8 -48 -8 -57 18 -50 132 -249 101 -249 -38 0 -95 115 -166 188 -115 21
14 24 14 50 -17 15 -18 27 -40 27 -48 0 -23 -52 -44 -118 -49 -207 -16 -334
216 -205 373 66 79 174 102 278 59z m2340 -98 c0 -3 25 -94 55 -203 30 -109
55 -203 55 -208 0 -12 -89 -39 -98 -30 -4 3 -31 98 -62 211 l-57 204 46 14
c51 16 61 18 61 12z m-1902 -43 c83 -20 152 -41 152 -47 0 -16 -20 -86 -25
-86 -2 0 -50 11 -107 24 -56 14 -106 22 -109 18 -4 -4 -9 -19 -13 -33 -6 -26
-4 -27 85 -49 l91 -23 -6 -41 c-4 -22 -9 -42 -12 -45 -4 -4 -141 25 -171 36
-16 6 -34 -60 -19 -68 6 -3 55 -16 109 -28 l98 -23 -6 -41 c-4 -23 -10 -45
-14 -50 -9 -10 -326 67 -325 79 11 70 101 414 108 414 6 0 80 -16 164 -37z
m377 -68 c166 -15 225 -60 225 -170 0 -60 -21 -108 -59 -136 l-31 -23 36 -64
c19 -35 33 -66 31 -69 -3 -2 -33 -1 -67 3 l-62 7 -25 58 c-25 57 -27 59 -64
59 -36 0 -39 -2 -39 -27 0 -16 -3 -39 -7 -52 -6 -22 -9 -23 -57 -16 -28 3 -51
7 -52 8 -1 1 9 90 22 197 13 107 23 205 24 218 0 20 4 23 28 18 15 -3 59 -8
97 -11z m1095 13 c2 -22 59 -320 62 -323 2 -2 53 5 113 15 59 11 109 19 110
17 4 -4 16 -97 13 -97 -2 0 -75 -13 -163 -29 -88 -16 -161 -28 -163 -26 -4 3
-68 357 -74 402 -3 24 1 29 27 34 32 7 75 11 75 7z m-210 -77 l0 -48 -46 -7
c-26 -3 -78 -6 -117 -6 -67 0 -69 -1 -63 -22 3 -13 6 -29 6 -36 0 -10 22 -13
93 -11 l92 2 3 -46 3 -45 -96 -7 c-92 -7 -96 -9 -91 -29 3 -11 6 -27 6 -34 0
-11 23 -12 115 -6 l115 7 0 -52 c0 -42 -3 -51 -17 -51 -10 0 -83 -5 -162 -10
-80 -6 -148 -7 -152 -3 -8 9 -33 422 -26 429 5 5 196 20 290 23 l47 1 0 -49z"/>
<path d="M4710 8145 c-548 -52 -1066 -241 -1515 -553 -293 -204 -591 -504
-798 -803 -590 -853 -719 -1962 -342 -2929 164 -422 388 -764 714 -1091 199
-198 372 -336 601 -474 830 -504 1869 -593 2770 -240 245 96 394 174 615 320
307 203 624 514 837 820 755 1085 755 2525 0 3610 -199 286 -501 588 -787 787
-611 425 -1358 622 -2095 553z m551 -225 c311 -31 599 -103 872 -217 l107 -45
0 -257 0 -257 -142 70 c-171 85 -307 136 -483 181 -227 58 -329 70 -615 70
-286 0 -388 -12 -616 -70 -314 -81 -613 -225 -880 -426 -120 -90 -303 -265
-406 -389 -298 -357 -508 -843 -553 -1282 l-7 -68 501 0 501 0 0 -1386 0
-1386 -47 27 c-27 16 -91 57 -143 93 -626 427 -1069 1090 -1220 1826 -11 54
-20 109 -20 122 l0 24 228 0 227 0 36 -148 c47 -188 92 -310 184 -498 71 -143
198 -347 264 -424 l30 -35 1 663 0 662 -499 0 -499 0 -6 23 c-11 42 -6 372 9
507 81 766 448 1457 1034 1947 448 374 987 603 1566 668 148 16 438 18 576 5z
m1389 -498 c802 -547 1280 -1451 1280 -2422 0 -890 -402 -1728 -1096 -2286
-842 -676 -1998 -834 -2991 -407 l-83 35 0 257 0 257 143 -70 c234 -117 470
-192 727 -233 163 -26 577 -26 740 0 409 65 793 228 1126 478 120 90 303 265
406 389 298 357 508 843 553 1283 l7 67 -271 0 -271 0 0 -473 0 -473 -46 -70
c-99 -147 -241 -314 -351 -410 l-63 -56 0 2127 0 2127 48 -27 c26 -16 90 -57
142 -93z m-1760 -402 c0 -177 -3 -230 -12 -230 -7 0 -60 -7 -118 -14 -175 -24
-305 -61 -527 -153 -10 -4 -13 -153 -13 -699 l0 -694 335 0 335 0 0 -230 0
-230 -335 0 -335 0 0 -694 c0 -546 3 -695 13 -699 222 -92 352 -129 527 -153
58 -7 111 -14 118 -14 9 0 12 -53 12 -230 l0 -231 -62 6 c-371 36 -718 149
-995 321 l-73 45 0 1879 0 1878 67 43 c279 176 697 307 1041 328 l22 1 0 -230z
m420 209 c284 -38 622 -158 858 -305 l72 -45 0 -290 0 -290 -72 61 c-150 126
-331 236 -502 304 -49 20 -90 36 -92 36 -2 0 -4 -331 -4 -735 l0 -735 335 0
335 0 0 -230 0 -230 -335 0 -335 0 0 -974 0 -974 -68 -16 c-82 -19 -233 -42
-324 -50 l-68 -7 0 2251 0 2251 63 -6 c34 -4 96 -11 137 -16z"/>
<path d="M6920 5893 l0 -663 271 0 271 0 -7 68 c-18 178 -81 426 -155 612 -78
198 -245 489 -349 610 l-30 35 -1 -662z"/>
<path d="M1234 5135 c-51 -35 -59 -162 -14 -210 33 -35 92 -35 125 1 45 48 41
159 -7 204 -26 24 -75 26 -104 5z"/>
<path d="M8638 5140 c-28 -17 -51 -93 -43 -146 9 -62 41 -94 93 -94 57 0 85
34 90 109 5 63 -13 112 -47 131 -24 13 -71 13 -93 0z"/>
<path d="M9086 4998 c-22 -31 -20 -64 4 -88 41 -41 120 -12 120 45 0 59 -91
90 -124 43z"/>
<path d="M7694 2234 c33 -90 52 -134 56 -134 3 0 25 20 48 43 l43 44 -63 27
c-97 43 -92 42 -84 20z"/>
<path d="M2564 1926 c-30 -30 -34 -40 -34 -84 0 -116 128 -172 209 -92 54 54
49 134 -10 185 -24 19 -42 25 -81 25 -44 0 -54 -4 -84 -34z"/>
<path d="M4486 1179 c-17 -85 -7 -99 68 -99 49 0 76 22 76 61 0 45 -35 69 -98
69 -36 0 -40 -3 -46 -31z"/>
</g>
</svg>
