<?xml version="1.0" encoding="UTF-8" standalone="no"?><!-- Generator: Gravit.io --><svg xmlns="http://www.w3.org/2000/svg" xmlns:xlink="http://www.w3.org/1999/xlink" style="isolation:isolate" viewBox="0 0 1080 919" width="1080pt" height="919pt"><defs><clipPath id="_clipPath_q1SHqpwVs3QOnGyBdwe3rfyUccHoc2nt"><rect width="1080" height="919"/></clipPath></defs><g clip-path="url(#_clipPath_q1SHqpwVs3QOnGyBdwe3rfyUccHoc2nt)"><path d=" M 773.634 384.129 C 766.334 378.81 757.674 372.376 753.716 368.541 C 755.819 364.954 759.53 359.386 762.87 354.685 C 782.17 326.602 818.542 273.653 818.542 197.816 C 818.542 154.269 802.706 107.134 764.355 70.886 C 726.004 34.638 665.508 9.4 576.681 9.4 C 492.432 9.4 397.667 37.112 315.645 85.484 C 279.026 107.381 248.716 130.763 227.561 153.403 C 206.406 175.919 194.158 197.569 194.158 216.126 C 194.158 225.157 197.622 233.446 204.179 239.879 C 216.179 251.632 237.334 257.075 264.427 260.044 C 291.521 262.89 324.552 263.013 360.182 263.013 L 366.491 263.013 C 421.297 263.013 460.019 264.498 484.762 268.086 C 497.133 269.941 506.041 272.292 511.484 275.014 C 517.051 277.859 518.783 280.704 518.907 283.797 C 519.031 285.034 517.546 288.004 514.082 291.344 C 502.205 303.22 471.153 320.788 443.194 340.211 C 429.214 349.86 415.977 360.129 406.08 370.521 C 396.306 380.913 389.626 391.552 389.502 402.563 L 389.502 403.057 C 389.626 417.037 397.049 428.171 408.307 436.831 C 442.328 462.935 512.721 469.739 549.588 476.42 C 572.351 480.502 584.351 488.667 590.908 497.451 C 597.465 506.235 598.579 516.132 598.579 524.544 C 598.579 556.091 586.826 583.927 565.794 603.103 C 547.114 620.299 524.598 631.433 491.813 631.433 L 487.855 631.433 C 488.597 625.124 488.968 618.938 488.968 613 C 488.968 575.886 474.37 544.833 449.503 523.307 C 424.761 501.781 389.873 489.657 349.419 489.657 C 299.562 489.657 259.479 510.317 232.014 541.122 C 204.55 571.927 189.704 612.505 189.581 652.588 C 189.581 715.682 218.653 779.024 275.314 826.406 C 331.975 873.912 416.224 905.459 526.577 905.459 C 614.043 905.459 702.251 876.634 769.056 826.406 C 824.356 784.715 890.419 708.878 890.419 584.298 C 890.419 470.11 813.964 413.697 773.634 384.129 Z  M 425.503 392.171 C 437.751 379.923 462.988 362.727 481.793 350.726 C 500.226 338.85 516.804 328.211 529.051 317.695 C 541.175 307.055 549.093 296.292 549.093 283.797 C 549.093 274.024 545.258 264.993 538.082 257.817 C 525.216 245.199 502.453 239.26 473.999 236.044 C 445.544 232.951 411.399 232.827 376.017 232.827 L 366.244 232.827 C 337.047 232.827 313.789 232.456 295.232 231.714 C 320.965 221.693 350.903 205.734 383.44 188.414 C 436.266 160.207 494.659 128.908 549.712 114.928 C 536.969 129.402 528.804 145.733 528.68 159.836 C 528.68 163.3 529.794 167.011 532.392 169.857 C 535.113 172.702 539.32 174.682 545.01 174.682 C 554.784 174.682 565.794 170.847 578.537 166.888 C 595.733 161.197 615.651 154.764 637.548 154.764 C 656.6 154.764 677.261 159.589 699.282 174.311 C 684.683 175.3 672.683 179.507 665.26 185.445 C 657.095 191.754 655.116 198.806 655.239 203.754 C 655.363 211.796 660.93 217.982 667.982 226.023 C 679.364 238.765 694.086 255.467 694.209 282.436 C 694.209 302.107 686.663 323.015 675.529 338.974 C 675.529 337.86 675.652 336.623 675.652 335.51 C 675.652 321.777 672.559 306.437 665.137 297.653 C 660.559 292.581 654.621 289.612 647.817 289.612 C 636.311 289.736 626.29 298.519 611.445 310.767 C 600.929 319.427 587.815 330.561 571.361 340.953 C 501.834 384.748 464.596 401.697 438.245 403.8 C 428.225 404.295 413.626 404.047 425.503 392.171 L 425.503 392.171 Z  M 489.215 660.011 C 528.309 660.011 560.969 648.135 586.207 625 C 613.177 600.505 628.517 563.762 628.517 524.297 C 628.517 505.369 622.579 489.657 611.816 477.533 C 670.085 491.513 730.705 521.452 764.355 566.483 C 749.262 561.535 738.746 560.298 727.983 560.298 C 717.096 560.421 708.436 571.803 708.436 584.793 C 708.436 591.597 711.034 599.268 714.127 608.917 C 718.952 623.887 725.261 643.186 725.261 666.197 C 725.261 687.476 719.942 711.847 703.24 739.064 C 702.746 717.043 696.807 699.476 689.261 690.074 C 683.322 682.774 676.889 680.919 672.559 681.042 C 665.631 681.042 660.188 684.506 655.734 689.702 C 651.157 695.022 647.322 702.074 642.868 710.239 C 626.785 739.064 601.548 784.962 522.618 808.715 C 529.794 796.344 533.505 783.725 533.505 773.704 C 533.505 769.745 532.886 766.034 531.649 762.941 C 529.299 756.879 523.979 753.291 518.041 753.291 L 517.917 753.291 C 509.257 753.662 499.236 756.384 487.607 759.724 C 469.421 764.797 447.4 770.982 423.152 770.982 C 398.038 770.982 370.574 764.426 342.367 743.023 C 352.141 741.538 360.801 738.075 367.11 732.755 C 372.306 728.301 375.522 722.487 375.522 716.425 C 375.399 707.146 368.1 700.837 359.811 693.29 C 347.687 681.908 333.336 668.547 333.336 645.908 C 333.336 639.351 334.573 632.052 337.419 623.763 C 340.017 630.938 343.728 637.371 348.553 642.815 C 355.976 650.733 364.759 655.681 373.419 655.681 C 382.45 655.805 387.894 651.475 390.121 646.031 C 392.471 640.588 392.348 634.279 392.348 629.454 C 392.348 623.887 394.946 618.567 399.028 614.608 C 403.234 610.649 408.801 608.175 414.616 608.175 C 427.853 608.175 437.998 615.598 445.05 626.608 C 451.978 637.619 455.689 652.341 455.689 666.073 C 455.689 674.609 454.328 682.774 451.483 689.579 L 448.514 696.878 L 454.823 692.053 C 466.7 682.774 475.978 669.661 480.308 660.135 C 482.906 660.011 486.123 660.011 489.215 660.011 L 489.215 660.011 Z  M 257.987 225.775 C 246.421 228.43 236.841 228.635 230.777 225.033 C 226.695 222.559 224.097 219.961 224.097 216.126 C 224.097 205.363 234.365 188.166 253.169 169.362 C 309.83 112.577 440.967 39.462 576.681 39.586 C 645.342 39.586 701.261 56.535 738.375 88.329 C 770.541 115.794 788.232 154.64 788.232 197.816 C 788.232 264.251 756.932 310.025 737.88 337.737 C 728.107 351.716 722.416 360.005 722.292 369.407 C 722.292 376.83 725.88 383.016 731.571 388.954 C 737.385 394.892 745.551 400.954 755.571 408.377 C 795.16 437.697 860.11 485.451 860.11 584.174 C 860.11 696.383 800.851 764.549 750.87 802.158 C 689.384 848.551 607.486 875.149 526.453 875.149 C 324.181 875.026 219.519 762.57 219.519 652.341 C 219.519 619.557 231.767 586.154 254.035 561.04 C 276.428 535.926 308.717 518.977 349.295 518.977 L 349.419 518.977 C 372.058 518.977 400.76 524.297 423.523 539.514 C 446.287 554.731 463.359 579.597 463.359 619.928 L 463.359 623.392 C 461.38 618.814 458.534 613.866 454.576 609.041 C 446.41 599.02 433.297 590.113 413.997 590.113 C 392.224 590.113 373.79 607.928 373.79 629.206 C 373.79 633.165 373.296 635.639 372.801 636.877 C 372.677 637.371 372.43 637.619 372.306 637.743 C 366.986 637.619 360.677 633.907 355.728 626.732 C 350.656 619.433 346.945 608.546 346.945 594.69 C 346.945 591.968 347.068 588.999 347.439 586.03 L 348.058 579.597 L 343.728 584.422 C 323.315 607.185 315.892 627.722 315.892 645.537 C 315.892 674.609 335.439 695.27 347.068 706.033 C 349.171 708.012 351.769 710.363 353.873 712.466 C 354.862 713.579 355.728 714.569 356.347 715.311 C 356.594 715.682 356.842 716.053 356.965 716.301 C 356.965 716.425 357.089 716.425 357.089 716.548 C 356.965 717.662 354.739 720.383 349.419 722.487 C 343.604 724.961 334.326 726.817 320.965 726.817 C 316.387 726.817 311.191 726.569 305.624 726.074 L 300.552 725.579 L 303.768 729.538 C 342.491 775.684 385.296 788.302 422.41 788.302 C 449.751 788.302 474.122 781.498 491.69 776.55 C 499.113 774.446 507.401 771.354 511.979 771.354 C 513.958 771.354 514.701 771.848 515.072 772.343 C 515.443 772.838 515.938 774.075 515.814 775.807 C 515.814 781.127 512.721 790.9 507.401 800.921 C 502.082 810.942 494.659 821.458 486.494 828.88 L 481.545 833.334 L 488.226 832.468 C 601.424 817.87 639.157 752.302 657.837 718.528 C 660.93 712.837 663.899 707.641 666.497 703.929 C 669.095 700.094 671.57 698.239 672.188 698.486 C 673.178 698.486 675.034 699.476 676.889 702.197 C 682.456 710.486 687.158 731.147 687.158 752.673 C 687.158 761.951 686.292 771.601 684.312 780.385 L 682.951 786.941 L 687.9 782.364 C 730.581 742.776 742.334 701.208 742.334 666.568 C 742.334 640.093 735.53 617.577 730.705 603.103 C 728.107 595.061 725.88 587.886 725.88 584.422 C 725.88 581.577 726.375 580.092 726.993 579.35 C 727.488 578.607 728.478 578.113 730.334 577.618 C 748.396 577.618 769.798 584.051 795.531 596.298 L 800.603 598.649 L 798.376 593.577 C 763.489 511.926 685.797 476.915 610.208 457.863 C 572.351 448.337 534.866 442.646 503.319 437.202 C 480.432 433.244 460.514 429.285 446.039 424.089 C 443.689 423.099 441.214 421.986 438.988 420.872 C 482.164 415.429 534.371 384.995 580.764 355.18 C 598.207 344.046 611.692 332.664 622.455 323.633 C 628.146 318.932 633.342 314.602 637.796 311.509 C 642.126 308.293 645.961 306.561 647.569 306.684 C 649.177 306.684 650.415 307.303 651.899 308.911 C 656.105 313.489 658.703 326.107 658.58 339.963 C 658.58 351.098 657.095 362.974 654.373 372.624 L 652.889 377.944 L 657.59 374.974 C 694.333 351.345 712.024 315.468 712.024 281.942 C 712.024 248.291 693.343 227.26 681.343 213.775 C 679.487 211.672 677.384 209.198 675.652 207.095 C 674.291 205.363 673.178 203.631 672.807 203.012 C 673.054 202.146 674.044 200.414 676.147 198.93 C 683.817 193.115 697.055 189.527 712.272 189.651 C 720.065 189.651 728.354 190.517 736.767 192.496 L 742.581 193.857 L 738.994 189.156 C 707.323 148.454 670.951 136.825 638.538 136.825 C 613.053 136.825 589.919 144.001 573.093 149.444 C 564.928 152.166 553.547 155.63 548.598 155.63 C 547.98 155.63 547.485 155.63 547.237 155.506 C 547.361 149.568 551.567 139.547 559.732 129.031 C 568.021 118.144 580.269 106.515 595.981 97.113 L 601.671 93.649 L 594.991 93.154 C 592.145 92.907 589.176 92.783 586.083 92.783 C 521.01 92.907 437.008 140.166 375.028 172.084 C 345.94 187.418 292.907 217.76 257.987 225.775 Z  M 217.169 956.924 L 217.169 941.089 L 287.686 941.089 L 287.686 956.924 L 261.953 956.924 L 261.953 1027.07 L 243.025 1027.07 L 243.025 956.924 L 217.169 956.924 Z  M 310.573 941.089 L 310.573 973.502 L 310.944 973.502 C 313.171 969.914 315.892 967.193 319.233 965.584 C 322.573 963.976 325.913 963.11 329.13 963.11 C 333.707 963.11 337.419 963.729 340.388 964.966 C 343.357 966.203 345.584 967.935 347.316 970.162 C 349.048 972.389 350.161 975.11 350.903 978.203 C 351.646 981.296 351.893 984.884 351.893 988.719 L 351.893 1027.07 L 334.821 1027.07 L 334.821 991.812 C 334.821 986.739 334.078 982.78 332.47 980.306 C 330.862 977.832 328.016 976.471 323.934 976.471 C 319.233 976.471 315.892 977.832 313.789 980.677 C 311.686 983.399 310.696 987.976 310.696 994.286 L 310.696 1026.946 L 293.5 1026.946 L 293.5 940.841 L 310.573 940.841 M 376.265 964.842 L 376.265 976.347 L 376.512 976.347 C 377.254 974.492 378.368 972.636 379.729 971.028 C 381.09 969.419 382.698 967.935 384.43 966.821 C 386.162 965.584 388.141 964.718 390.121 964.1 C 392.1 963.481 394.203 963.11 396.43 963.11 C 397.544 963.11 398.781 963.357 400.142 963.729 L 400.142 979.688 C 399.399 979.564 398.41 979.44 397.296 979.316 C 396.183 979.193 395.069 979.193 394.08 979.193 C 390.987 979.193 388.265 979.688 386.162 980.801 C 384.059 981.914 382.203 983.275 380.966 985.131 C 379.605 986.987 378.739 989.09 378.12 991.44 C 377.502 993.915 377.254 996.513 377.254 999.234 L 377.254 1027.317 L 360.182 1027.317 L 360.182 964.966 L 376.265 964.966 M 423.029 1012.101 C 425.627 1014.575 429.338 1015.812 434.163 1015.812 C 437.627 1015.812 440.596 1014.946 443.07 1013.214 C 445.544 1011.482 447.153 1009.626 447.648 1007.771 L 462.617 1007.771 C 460.266 1015.194 456.555 1020.637 451.483 1023.73 C 446.534 1026.946 440.472 1028.555 433.421 1028.555 C 428.472 1028.555 424.142 1027.812 420.183 1026.204 C 416.224 1024.596 412.884 1022.369 410.162 1019.523 C 407.441 1016.678 405.337 1013.214 403.853 1009.132 C 402.368 1005.049 401.626 1000.719 401.626 995.894 C 401.626 991.193 402.368 986.863 403.853 982.904 C 405.337 978.822 407.564 975.358 410.41 972.512 C 413.255 969.543 416.595 967.316 420.431 965.584 C 424.266 963.852 428.596 962.986 433.421 962.986 C 438.74 962.986 443.318 963.976 447.276 966.079 C 451.235 968.182 454.452 970.904 456.926 974.368 C 459.524 977.832 461.256 981.791 462.493 986.244 C 463.607 990.698 463.978 995.276 463.73 1000.1 L 418.822 1000.1 C 418.946 1005.668 420.431 1009.75 423.029 1012.101 M 442.328 979.316 C 440.349 977.09 437.132 975.976 433.049 975.976 C 430.328 975.976 427.977 976.471 426.245 977.337 C 424.513 978.327 423.029 979.44 421.915 980.801 C 420.802 982.162 420.059 983.646 419.688 985.131 C 419.193 986.616 418.946 987.976 418.946 989.214 L 446.782 989.214 C 445.792 984.884 444.307 981.667 442.328 979.316 L 442.328 979.316 Z  M 489.834 1012.101 C 492.432 1014.575 496.143 1015.812 500.968 1015.812 C 504.432 1015.812 507.401 1014.946 509.876 1013.214 C 512.35 1011.482 513.835 1009.626 514.453 1007.771 L 529.546 1007.771 C 527.196 1015.194 523.484 1020.637 518.412 1023.73 C 513.463 1026.946 507.401 1028.555 500.35 1028.555 C 495.401 1028.555 491.071 1027.812 487.112 1026.204 C 483.153 1024.596 479.813 1022.369 477.092 1019.523 C 474.37 1016.678 472.267 1013.214 470.782 1009.132 C 469.298 1005.049 468.555 1000.719 468.555 995.894 C 468.555 991.193 469.298 986.863 470.906 982.904 C 472.39 978.822 474.617 975.358 477.463 972.512 C 480.308 969.543 483.648 967.316 487.483 965.584 C 491.319 963.852 495.649 962.986 500.473 962.986 C 505.793 962.986 510.371 963.976 514.329 966.079 C 518.288 968.182 521.505 970.904 523.979 974.368 C 526.577 977.832 528.309 981.791 529.422 986.244 C 530.536 990.698 530.907 995.276 530.66 1000.1 L 485.751 1000.1 C 485.875 1005.668 487.236 1009.75 489.834 1012.101 M 509.257 979.316 C 507.278 977.09 504.061 975.976 499.979 975.976 C 497.257 975.976 495.03 976.471 493.174 977.337 C 491.319 978.327 489.958 979.44 488.844 980.801 C 487.731 982.162 486.989 983.646 486.494 985.131 C 485.999 986.616 485.751 987.976 485.751 989.214 L 513.587 989.214 C 512.721 984.884 511.237 981.667 509.257 979.316 L 509.257 979.316 Z  M 539.196 1008.513 L 558.124 1008.513 L 558.124 1027.07 L 539.196 1027.07 L 539.196 1008.513 Z  M 597.96 975.976 C 595.238 975.976 592.888 976.595 591.156 977.832 C 589.3 979.069 587.815 980.677 586.578 982.657 C 585.465 984.636 584.599 986.863 584.104 989.214 C 583.609 991.564 583.362 993.915 583.362 996.265 C 583.362 998.492 583.609 1000.843 584.104 1003.193 C 584.599 1005.544 585.341 1007.647 586.455 1009.503 C 587.568 1011.358 589.053 1012.967 590.908 1014.08 C 592.764 1015.317 594.991 1015.936 597.713 1015.936 C 601.795 1015.936 605.012 1014.822 607.238 1012.472 C 609.465 1010.245 610.826 1007.152 611.445 1003.193 L 627.899 1003.193 C 626.785 1011.482 623.569 1017.791 618.249 1022.121 C 612.929 1026.451 606.125 1028.678 597.836 1028.678 C 593.135 1028.678 588.929 1027.936 584.97 1026.328 C 581.135 1024.719 577.795 1022.616 575.073 1019.771 C 572.351 1016.926 570.248 1013.585 568.64 1009.75 C 567.155 1005.791 566.413 1001.585 566.413 996.884 C 566.413 992.059 567.155 987.605 568.516 983.399 C 569.877 979.316 571.98 975.729 574.702 972.636 C 577.423 969.667 580.764 967.316 584.723 965.584 C 588.681 963.852 593.135 962.986 598.207 962.986 C 601.919 962.986 605.506 963.481 608.847 964.471 C 612.311 965.461 615.28 966.945 618.002 968.925 C 620.723 970.904 622.95 973.378 624.558 976.224 C 626.167 979.193 627.156 982.657 627.404 986.616 L 610.702 986.616 C 609.589 979.564 605.259 975.976 597.96 975.976 Z  M 635.445 982.409 C 636.93 978.327 639.157 974.863 642.002 972.017 C 644.847 969.172 648.188 966.945 652.147 965.337 C 656.105 963.729 660.559 962.986 665.384 962.986 C 670.333 962.986 674.786 963.729 678.745 965.337 C 682.704 966.945 686.168 969.048 688.89 972.017 C 691.735 974.863 693.838 978.327 695.446 982.409 C 696.931 986.492 697.797 990.946 697.797 996.018 C 697.797 1000.966 697.055 1005.544 695.446 1009.503 C 693.962 1013.585 691.735 1016.926 688.89 1019.771 C 686.044 1022.616 682.704 1024.843 678.745 1026.328 C 674.786 1027.812 670.333 1028.555 665.384 1028.555 C 660.435 1028.555 656.105 1027.812 652.147 1026.328 C 648.188 1024.719 644.847 1022.616 642.002 1019.771 C 639.157 1016.926 637.054 1013.462 635.445 1009.503 C 633.961 1005.544 633.095 1000.966 633.095 996.018 C 633.218 991.069 633.961 986.492 635.445 982.409 Z  M 651.033 1003.317 C 651.528 1005.668 652.394 1007.771 653.507 1009.75 C 654.621 1011.606 656.229 1013.09 658.085 1014.204 C 660.064 1015.317 662.415 1015.936 665.26 1015.936 C 668.106 1015.936 670.58 1015.317 672.559 1014.204 C 674.539 1013.09 676.147 1011.606 677.261 1009.75 C 678.498 1007.894 679.24 1005.668 679.735 1003.317 C 680.23 1000.966 680.477 998.492 680.477 996.018 C 680.477 993.544 680.23 991.069 679.735 988.595 C 679.24 986.244 678.374 984.018 677.261 982.286 C 676.147 980.43 674.539 978.945 672.559 977.708 C 670.58 976.471 668.106 975.976 665.26 975.976 C 662.415 975.976 659.941 976.595 658.085 977.708 C 656.105 978.945 654.621 980.43 653.507 982.286 C 652.394 984.141 651.528 986.244 651.033 988.595 C 650.538 991.069 650.291 993.42 650.291 996.018 C 650.291 998.492 650.538 1000.966 651.033 1003.317 Z  M 705.344 1008.513 L 724.272 1008.513 L 724.272 1027.07 L 705.344 1027.07 L 705.344 1008.513 Z  M 776.726 1027.07 L 776.726 1018.41 L 776.355 1018.41 C 774.128 1021.998 771.407 1024.596 767.943 1026.204 C 764.479 1027.812 760.891 1028.678 757.303 1028.678 C 752.726 1028.678 748.891 1028.06 746.045 1026.823 C 743.076 1025.585 740.849 1023.977 739.117 1021.75 C 737.385 1019.523 736.272 1016.802 735.53 1013.709 C 734.787 1010.492 734.54 1007.028 734.54 1003.193 L 734.54 964.842 L 751.613 964.842 L 751.613 999.977 C 751.613 1005.173 752.355 1009.008 754.087 1011.482 C 755.695 1013.956 758.54 1015.317 762.623 1015.317 C 767.324 1015.317 770.664 1013.956 772.768 1011.111 C 774.871 1008.389 775.86 1003.812 775.86 997.379 L 775.86 964.718 L 792.933 964.718 L 792.933 1027.07 L 776.726 1027.07 M 818.418 941.089 L 818.418 987.234 L 839.944 964.842 L 860.233 964.842 L 836.728 987.729 L 862.831 1027.07 L 842.171 1027.07 L 824.975 999.234 L 818.418 1005.668 L 818.418 1027.07 L 801.222 1027.07 L 801.222 941.089 L 818.418 941.089" fill="rgb(214,213,201)"/></g></svg>