<?xml version="1.0" standalone="no"?>
<!DOCTYPE svg PUBLIC "-//W3C//DTD SVG 1.1//EN" "http://www.w3.org/Graphics/SVG/1.1/DTD/svg11.dtd">
<svg xmlns="http://www.w3.org/2000/svg" width="1141" height="218" fill="none" viewBox="0 0 1141 218"><path fill="#fff" d="m85.226 67.994-15.086 8.94c-2.82-4.896-5.508-8.089-8.062-9.579-2.66-1.703-6.093-2.554-10.297-2.554-5.161 0-9.445 1.463-12.85 4.39-3.406 2.873-5.109 6.492-5.109 10.855 0 6.013 4.47 10.856 13.41 14.527l12.292 5.03c10.004 4.043 17.32 8.992 21.95 14.845 4.63 5.801 6.944 12.931 6.944 21.392 0 11.334-3.778 20.7-11.334 28.096-7.61 7.45-17.055 11.175-28.336 11.175-10.695 0-19.529-3.166-26.5-9.499-6.864-6.332-11.148-15.245-12.85-26.739l18.837-4.151c.851 7.237 2.341 12.239 4.47 15.006 3.83 5.322 9.418 7.982 16.762 7.982 5.8 0 10.616-1.942 14.447-5.826 3.831-3.885 5.747-8.807 5.747-14.767 0-2.395-.346-4.576-1.038-6.545-.638-2.022-1.676-3.858-3.113-5.508-1.383-1.702-3.193-3.272-5.427-4.709-2.235-1.49-4.896-2.9-7.982-4.23l-11.893-4.949c-16.869-7.131-25.303-17.56-25.303-31.29 0-9.258 3.539-17 10.616-23.227 7.077-6.279 15.884-9.418 26.42-9.418 14.208 0 25.303 6.917 33.285 20.753Zm60.566 54.835v50.047h-18.598V49.636h21.073c10.323 0 18.119.718 23.387 2.154 5.321 1.437 10.004 4.151 14.048 8.142 7.077 6.918 10.616 15.645 10.616 26.18 0 11.282-3.778 20.221-11.335 26.82-7.556 6.598-17.746 9.897-30.57 9.897h-8.621Zm0-17.24h6.945c17.081 0 25.621-6.572 25.621-19.716 0-12.718-8.806-19.077-26.42-19.077h-6.146v38.793Zm79.883 5.108c0-17.347 6.359-32.247 19.077-44.699 12.665-12.452 27.883-18.677 45.656-18.677 17.561 0 32.62 6.279 45.178 18.837 12.611 12.558 18.917 27.644 18.917 45.257 0 17.72-6.332 32.753-18.997 45.098-12.718 12.399-28.07 18.598-46.055 18.598-15.911 0-30.199-5.508-42.863-16.523-13.942-12.185-20.913-28.149-20.913-47.891Zm18.758.239c0 13.623 4.576 24.824 13.728 33.604 9.1 8.78 19.609 13.17 31.529 13.17 12.931 0 23.839-4.47 32.726-13.409 8.886-9.046 13.33-20.061 13.33-33.045 0-13.144-4.39-24.159-13.171-33.045-8.726-8.94-19.529-13.41-32.406-13.41-12.824 0-23.653 4.47-32.486 13.41-8.834 8.833-13.25 19.742-13.25 32.725Zm191.549 9.419 38.154 52.521h-22.749l-35.2-50.446h-3.352v50.446h-18.598V49.636h21.791c16.283 0 28.043 3.06 35.28 9.179 7.982 6.81 11.972 15.804 11.972 26.978 0 8.727-2.501 16.23-7.503 22.509-5.001 6.279-11.6 10.297-19.795 12.053Zm-23.147-14.128h5.906c17.614 0 26.421-6.731 26.421-20.194 0-12.612-8.568-18.917-25.702-18.917h-6.625v39.111Zm128.812-39.111v105.76h-18.598V67.116h-28.336v-17.48h75.19v17.48h-28.256Z"/><path fill="url(#a)" d="M769.521 108.701h50.924v4.071c0 9.259-1.091 17.454-3.272 24.585-2.129 6.598-5.721 12.771-10.776 18.518-11.441 12.877-25.994 19.316-43.661 19.316-17.241 0-32.007-6.226-44.3-18.678-12.292-12.505-18.438-27.511-18.438-45.018 0-17.88 6.253-33.045 18.758-45.497 12.505-12.505 27.723-18.757 45.656-18.757 9.632 0 18.625 1.969 26.979 5.906 7.982 3.938 15.831 10.324 23.547 19.157l-13.25 12.691c-10.111-13.463-22.43-20.194-36.957-20.194-13.037 0-23.972 4.496-32.805 13.49-8.834 8.833-13.25 19.901-13.25 33.204 0 13.729 4.922 25.037 14.766 33.923 9.206 8.248 19.184 12.372 29.932 12.372 9.153 0 17.374-3.086 24.665-9.259 7.29-6.226 11.36-13.675 12.212-22.349h-30.73v-17.481Zm158.744-41.585h-49.408v29.613h47.971v17.48h-47.971v41.187h49.408v17.48h-68.006V49.636h68.006v17.48Zm40.771 105.76V41.254l89.874 94.027V49.635h18.6V180.38l-89.876-93.787v86.284h-18.598Z"/><path fill="#fff" d="M661.282 42.586v133.777h15.485v16.921h-33.763V25.744h33.763v16.842h-15.485Zm461.298 0v133.777h-15.48v16.921h33.76V25.744h-33.76v16.842h15.48Z"/><defs><radialGradient id="a" cx="0" cy="0" r="1" gradientTransform="matrix(208.543 64.0527 -186.931 246.602 919.024 115.726)" gradientUnits="userSpaceOnUse"><stop stop-color="#FFEBAF"/><stop offset="1" stop-color="#FFB049"/></radialGradient></defs></svg>